<?xml version="1.0" encoding="UTF-8" standalone="no"?>
<!-- Created with Inkscape (http://www.inkscape.org/) -->

<svg
   xmlns:dc="http://purl.org/dc/elements/1.1/"
   xmlns:cc="http://creativecommons.org/ns#"
   xmlns:rdf="http://www.w3.org/1999/02/22-rdf-syntax-ns#"
   xmlns:svg="http://www.w3.org/2000/svg"
   xmlns="http://www.w3.org/2000/svg"
   xmlns:sodipodi="http://sodipodi.sourceforge.net/DTD/sodipodi-0.dtd"
   xmlns:inkscape="http://www.inkscape.org/namespaces/inkscape"
   width="10.16mm"
   height="128.5mm"
   viewBox="0 0 10.16 128.50002"
   version="1.1"
   id="svg8"
   inkscape:version="0.92.4 (5da689c313, 2019-01-14)"
   sodipodi:docname="Pop.svg">
  <defs
     id="defs2" />
  <sodipodi:namedview
     id="base"
     pagecolor="#ffffff"
     bordercolor="#666666"
     borderopacity="1.0"
     inkscape:pageopacity="0.0"
     inkscape:pageshadow="2"
     inkscape:zoom="9.5182302"
     inkscape:cx="19.2"
     inkscape:cy="76.593798"
     inkscape:document-units="mm"
     inkscape:current-layer="layer1"
     showgrid="false"
     units="mm"
     inkscape:window-width="1440"
     inkscape:window-height="812"
     inkscape:window-x="-4"
     inkscape:window-y="22"
     inkscape:window-maximized="1"
     inkscape:pagecheckerboard="false"
     inkscape:showpageshadow="false" />
  <metadata
     id="metadata5">
    <rdf:RDF>
      <cc:Work
         rdf:about="">
        <dc:format>image/svg+xml</dc:format>
        <dc:type
           rdf:resource="http://purl.org/dc/dcmitype/StillImage" />
        <dc:title />
      </cc:Work>
    </rdf:RDF>
  </metadata>
  <g
     inkscape:label="panel"
     inkscape:groupmode="layer"
     id="layer1"
     transform="translate(0,-168.49997)"
     style="display:inline">
    <rect
       style="fill:#e9ddaf;stroke:none;stroke-width:0.4754692;stroke-opacity:1"
       id="rect4731"
       width="10.16"
       height="128.5"
       x="0"
       y="168.49998"
       inkscape:label="background" />
    <path
       style="color:#000000;font-style:normal;font-variant:normal;font-weight:normal;font-stretch:normal;font-size:medium;line-height:normal;font-family:sans-serif;font-variant-ligatures:normal;font-variant-position:normal;font-variant-caps:normal;font-variant-numeric:normal;font-variant-alternates:normal;font-feature-settings:normal;text-indent:0;text-align:start;text-decoration:none;text-decoration-line:none;text-decoration-style:solid;text-decoration-color:#000000;letter-spacing:normal;word-spacing:normal;text-transform:none;writing-mode:lr-tb;direction:ltr;text-orientation:mixed;dominant-baseline:auto;baseline-shift:baseline;text-anchor:start;white-space:normal;shape-padding:0;clip-rule:nonzero;display:inline;overflow:visible;visibility:visible;opacity:1;isolation:auto;mix-blend-mode:normal;color-interpolation:sRGB;color-interpolation-filters:linearRGB;solid-color:#000000;solid-opacity:1;vector-effect:none;fill:#ffeeaa;fill-opacity:0.48019804;fill-rule:evenodd;stroke:none;stroke-width:1.38780332;stroke-linecap:butt;stroke-linejoin:miter;stroke-miterlimit:4;stroke-dasharray:none;stroke-dashoffset:0;stroke-opacity:1;color-rendering:auto;image-rendering:auto;shape-rendering:auto;text-rendering:auto;enable-background:accumulate"
       clip-path="none"
       d="M 18.197266,7.8808594 C 12.127438,7.8738263 6.0568638,8.0794424 0,8.4902344 V 9.8613281 C 12.784047,8.9889893 25.627085,9.0653205 38.400391,10.0625 V 8.6914062 C 31.678532,8.1693251 24.939159,7.8886711 18.197266,7.8808594 Z m -0.0625,10.9570316 C 12.084651,18.832349 6.0358253,19.054667 0,19.484375 v 1.375 c 12.782754,-0.91498 25.629117,-0.842818 38.400391,0.203125 v -1.375 C 31.659513,19.138801 24.897635,18.844085 18.134766,18.837891 Z m -0.0625,10.96289 C 12.042568,29.796609 6.0138762,30.032316 0,30.482422 v 1.375 C 12.780536,30.894919 25.632081,30.963463 38.400391,32.0625 V 30.685547 C 31.640203,30.107236 24.856706,29.805475 18.072266,29.800781 Z m -0.05664,10.964844 C 12.004274,40.76323 5.993728,41.013002 0,41.486328 v 1.367188 c 12.777603,-1.015688 25.635863,-0.956082 38.400391,0.201172 V 41.689453 C 31.623265,41.078986 24.819611,40.768336 18.015626,40.765625 Z m -0.06055,10.957031 C 11.963335,51.722226 5.9720187,51.983407 0,52.482422 v 1.375 c 12.774649,-1.074828 25.639855,-0.998058 38.400391,0.224609 V 52.703125 C 31.604763,52.056422 24.780653,51.723147 17.955078,51.722656 Z m -0.05664,10.960938 C 11.92464,62.685042 5.9515594,62.954696 0,63.482422 v 1.375 C 12.770905,63.7172 25.644788,63.809045 38.400391,65.105469 V 63.726562 C 31.588367,63.039321 24.744036,62.681935 17.898438,62.683594 Z m -0.06836,10.966797 C 11.877656,73.654267 5.9272152,73.942173 0,74.501953 V 75.875 c 12.766779,-1.214793 25.650224,-1.127515 38.400391,0.251953 V 74.753906 C 31.568963,74.020533 24.699479,73.645917 17.830078,73.650391 Z m -0.05664,10.96289 C 11.838657,84.619556 5.9059228,84.930726 0,85.527344 v 1.375 c 12.761231,-1.301034 25.657325,-1.214667 38.400391,0.257812 v -1.375 C 31.553494,84.99969 24.663572,84.605996 17.773438,84.613281 Z m -0.05664,10.955078 C 11.79957,95.577737 5.8838827,95.911552 0,96.550781 v 1.378907 c 12.755414,-1.398535 25.665113,-1.298614 38.400391,0.283203 v -1.38086 C 31.539136,95.987285 24.62774,95.557406 17.716797,95.568359 Z m -0.06641,10.966801 C 11.753702,106.5481 5.8578084,106.90001 0,107.58789 v 1.37695 c 12.746267,-1.51104 25.676615,-1.409 38.400391,0.29883 v -1.37695 c -6.877839,-0.91438 -13.81435,-1.36679 -20.75,-1.35156 z m -0.05664,10.96093 C 11.713066,117.51278 5.8346784,117.90283 0,118.64844 v 1.38476 c 12.736774,-1.64559 25.68891,-1.53302 38.400391,0.32227 v -1.38477 c -6.889944,-0.99569 -13.848669,-1.49434 -20.806641,-1.47461 z m -0.05664,10.96289 C 11.67243,128.48102 5.8094414,128.89781 0,129.71289 v 1.38477 c 12.722862,-1.80458 25.706516,-1.6771 38.400391,0.35546 v -1.39257 c -6.89979,-1.09134 -13.882234,-1.6278 -20.863282,-1.60157 z m -0.06836,10.95899 C 11.621631,139.4454 5.7796761,139.91501 0,140.8125 v 1.38281 c 12.704522,-1.9992 25.729453,-1.86683 38.400391,0.37891 v -1.38477 C 31.490406,139.97993 24.47772,139.38509 17.46875,139.41797 Z M 17.412109,150.375 C 11.578456,150.40963 5.7493566,150.93075 0,151.93164 v 1.39453 c 12.679393,-2.23976 25.760701,-2.09129 38.400391,0.41992 v -1.39648 C 31.488133,150.99608 24.447468,150.33324 17.412109,150.375 Z m 2.056641,10.97266 C 12.940534,161.24929 6.4068667,161.85522 0,163.125 v 1.39062 c 12.644849,-2.54737 25.803796,-2.3695 38.400391,0.48047 v -1.40039 c -6.220473,-1.38441 -12.569345,-2.15218 -18.931641,-2.24804 z m -0.337891,10.95703 C 12.701864,172.22004 6.2691356,172.90992 0,174.35156 v 1.41406 c 12.589685,-2.95322 25.871759,-2.74862 38.400391,0.54493 v -1.41993 c -6.299243,-1.62521 -12.778776,-2.50048 -19.269532,-2.58593 z m -0.33789,10.95508 C 12.455891,183.19445 6.1162641,184.00066 0,185.68164 v 1.43164 c 12.500425,-3.51639 25.981476,-3.26573 38.400391,0.64453 v -1.4414 c -6.358113,-1.95516 -12.977809,-2.98831 -19.607422,-3.05664 z m -0.337891,10.95898 C 12.192978,194.17853 5.9348275,195.17671 0,197.20898 v 1.45313 c 12.339265,-4.35521 26.177589,-4.05252 38.400391,0.76562 v -1.47265 c -6.373929,-2.43663 -13.15846,-3.69274 -19.945313,-3.73633 z m -0.34375,10.94727 C 11.888733,205.16306 5.681363,206.45835 0,209.06641 v 1.53125 c 12.004531,-5.76187 26.585175,-5.33322 38.400391,0.98632 v -1.55078 c -6.290203,-3.22041 -13.294783,-4.86386 -20.289063,-4.86718 z m -0.345703,10.95312 C 11.459088,216.1849 5.2004892,218.07653 0,221.85156 v 1.73047 c 11.063009,-8.70556 27.757119,-7.96355 38.400391,1.43945 v -1.81445 c -5.862497,-4.76199 -13.278036,-7.1646 -20.634766,-7.08789 z m -0.359375,10.93945 c -4.979498,0.17018 -9.8555815,2.14775 -13.3378906,6.0586 C 1.5955326,235.89428 0.22003057,239.37892 0,242.89453 v 1.97852 c 0.25305582,4.01601 2.0471238,7.90837 5.5195312,10.66015 5.6496328,4.47723 14.5782858,4.27962 19.2343748,-1.53711 3.523827,-4.4023 3.256808,-11.29154 -1.763672,-14.64257 -1.739229,-1.16083 -3.93105,-1.65358 -6.001953,-1.38868 -2.070904,0.2652 -4.042668,1.32897 -5.166015,3.2793 -0.659047,1.1443 -0.87579,2.58415 -0.5625,3.91211 0.31329,1.32801 1.258791,2.57871 2.849609,2.9668 0.824844,0.20143 1.682865,-0.0255 2.410156,-0.49414 0.363643,-0.23428 0.710473,-0.56415 0.833985,-1.05469 0.123513,-0.49069 -0.07497,-1.05622 -0.478516,-1.46875 l -1.033203,0.93555 c 0.18567,0.18984 0.138137,0.19741 0.134765,0.21093 -0.0034,0.0145 -0.05892,0.12334 -0.240234,0.24024 -0.362631,0.2338 -1.134032,0.34921 -1.283203,0.3125 -1.048705,-0.25602 -1.588084,-0.98333 -1.816406,-1.95117 -0.22832,-0.96785 -0.04964,-2.14517 0.417969,-2.95704 0.891981,-1.54866 2.413493,-2.3655 4.121093,-2.58398 1.7076,-0.21834 3.578002,0.20063 5.009766,1.15625 4.286639,2.86117 4.518426,8.86931 1.451172,12.70117 -4.128786,5.15804 -12.149424,5.33567 -17.2187502,1.31836 -6.4174693213,-5.08563 -6.55338733,-14.55671 -1.2734376,-20.48633 6.4204858,-7.21053 18.0528658,-7.28933 25.2851568,-1.125 8.547715,7.28555 8.593461,20.25151 1.076171,28.25782 C 23.360971,269.80955 9.441149,270.34988 0,263.54688 v 1.67773 c 9.973091,6.58569 24.128892,5.79387 32.548828,-3.17383 3.700615,-3.94133 5.68324,-9.006 5.851563,-14.08594 v -1.4375 c -0.188901,-5.45381 -2.488042,-10.80538 -7.03125,-14.67773 -3.900275,-3.32435 -8.983393,-4.96119 -13.962891,-4.79102 z m 20.994141,42.98438 C 28.070372,279.66683 12.638753,281.5527 0,276.17773 v 1.47266 c 12.640796,5.13677 27.818177,3.36834 38.400391,-5.75586 z m 0,13.77734 C 26.842306,290.52184 12.684079,291.79724 0,287.88086 v 1.43359 c 12.687636,3.79264 26.755725,2.55757 38.400391,-3.91797 z m 0,12.38477 C 26.360486,301.40671 12.717205,302.39291 0,299.29297 v 1.4082 c 12.720916,3.02317 26.318736,2.04707 38.400391,-3.02344 z m 0,11.8164 C 26.114059,312.29168 12.741014,313.11102 0,310.54102 v 1.39257 c 12.742024,2.51973 26.091244,1.71672 38.400391,-2.46289 z m 0,11.55664 C 25.970235,323.20583 12.75582,323.89412 0,321.69531 v 1.38281 c 12.756864,2.16161 25.955884,1.48484 38.400391,-2.08007 z m 0,11.41797 C 25.882104,334.15077 12.762579,334.75128 0,332.83008 v 1.38086 c 12.763543,1.89286 25.872501,1.30375 38.400391,-1.80274 z m 0,11.29883 C 25.820901,345.0879 12.769228,345.61737 0,343.91016 v 1.375 c 12.769868,1.68546 25.814341,1.16369 38.400391,-1.5918 z m 0,11.2207 C 25.7774,356.02208 12.774447,356.49449 0,354.95703 v 1.38086 c 12.775167,1.52008 25.772232,1.05561 38.400391,-1.41992 z m 0,11.1836 C 25.745524,366.97203 12.778413,367.40811 0,366.00977 v 1.37304 c 12.778252,1.38272 25.742311,0.95323 38.400391,-1.29492 z m 0,11.14648 C 25.721546,377.92547 12.781231,378.30965 0,377.02734 v 1.36914 c 12.781205,1.26975 25.719027,0.88922 38.400391,-1.16992 z m 0,11.10547 C 25.702782,388.86828 12.783688,389.23113 0,388.04688 v 1.37304 c 12.783917,1.1737 25.700676,0.8113 38.400391,-1.08789 z m 0,11.10352 C 25.688334,399.83207 12.78539,400.16107 0,399.06055 v 1.36523 c 12.785511,1.09111 25.686604,0.76845 38.400391,-0.99414 z m 0,11.0625 C 25.676444,410.77435 12.787063,411.08094 0,410.05273 v 1.36524 c 12.787606,1.02004 25.674581,0.71279 38.400391,-0.93164 z m 0,11.05664 C 25.666584,421.72612 12.788567,422.01531 0,421.05078 v 1.36914 c 12.788644,0.95743 25.665489,0.67147 38.400391,-0.86914 z m 0,11.05664 C 25.659177,432.69018 12.789089,432.95707 0,432.04883 v 1.37109 c 12.789528,0.90204 25.657878,0.63693 38.400391,-0.8125 z m 0,11.03515 C 25.651976,443.64296 12.790629,443.9055 0,443.04688 v 1.36328 c 12.790546,0.85373 25.651307,0.59241 38.400391,-0.77539 z m 0,11.02149 C 25.646514,454.59091 12.7913,454.83579 0,454.02148 v 1.36914 c 12.791542,0.80921 25.645656,0.5652 38.400391,-0.73046 z m 0,11.02344 C 25.641686,465.54844 12.792038,465.77601 0,465.00195 v 1.36719 c 12.791987,0.76943 25.6412,0.54299 38.400391,-0.6875 z m 0,11.02929 C 25.637627,476.5177 12.792631,476.72621 0,475.98828 v 1.36133 c 12.792835,0.73421 25.636966,0.52818 38.400391,-0.64258 z"
       transform="matrix(0.26458333,0,0,0.26458333,0,168.49997)"
       id="path3775"
       inkscape:connector-curvature="0"
       inkscape:label="spiral" />
    <path
       style="font-style:normal;font-variant:normal;font-weight:normal;font-stretch:normal;font-size:8px;line-height:1.25;font-family:Sniglet;-inkscape-font-specification:'Sniglet, Normal';font-variant-ligatures:normal;font-variant-caps:normal;font-variant-numeric:normal;font-feature-settings:normal;text-align:center;letter-spacing:0px;word-spacing:0px;writing-mode:lr-tb;text-anchor:middle;fill:#ff6600;fill-opacity:1;stroke:none;stroke-width:0.50796854"
       d="m 7.6269253,268.14504 c -0.6954235,-0.004 -0.5570709,0.71056 -0.5570709,0.71056 -0.2806095,0 -0.7400079,0.0976 -0.7400079,0.54829 0,0.64565 0.8175219,0.49092 0.8175219,0.49092 -0.052875,0.73093 -0.1057882,1.37666 0.5896277,1.37666 0.699491,0 0.5245159,-1.35237 0.5245159,-1.35237 0,0 0.7239879,0.0654 0.7239879,-0.51521 0,-0.62536 -0.7725628,-0.54054 -0.7725628,-0.54054 0,0 0.089073,-0.71831 -0.5860118,-0.71831 z m -5.2647934,0.98238 c 0,0 -1.1875248,-0.11376 -1.1875248,1.14101 0,0 1.73e-5,1.03147 1.1875248,1.03147 0,0 0.1912103,-6e-5 0.4108273,-0.0894 0,0 0.3413061,-0.14216 0.5121138,-0.45889 0.077276,-0.15022 0.1260966,-0.34509 0.1260966,-0.59687 0,0 2.036e-4,-1.02732 -1.04903,-1.02732 z m 1.8639676,0.002 c -0.1452521,1.9e-4 -0.4469655,0.0512 -0.5384686,0.4563 0,0 -0.1748213,0.79584 0.1586438,1.28313 0,0 0.2237383,0.40189 1.0655668,0.42219 0.7970943,0.0203 1.0288791,-0.62115 1.0288791,-0.62115 0,0 0.2398928,-0.53162 0.1219465,-1.09605 0,0 -0.06521,-0.4713 -0.6020299,-0.44287 0,0 -0.4594714,-2.1e-4 -0.4635388,0.53175 -0.00403,0.3411 -1.92e-5,0.48731 -0.1260966,0.48731 -0.1382777,0 -0.1261542,-0.30053 -0.1302274,-0.48731 -0.012104,-0.49946 -0.4351166,-0.52762 -0.4351166,-0.52762 0,0 -0.031164,-0.006 -0.079581,-0.006 z m -1.8882569,0.9803 c 0.1016765,0 0.1586438,0.0852 0.1586438,0.17055 0,0.0934 -0.069168,0.15041 -0.1586438,0.15041 -0.089476,0 -0.1546475,-0.0367 -0.1627747,-0.15041 -0.00807,-0.0852 0.069245,-0.17055 0.1627747,-0.17055 z"
       id="path4618"
       inkscape:connector-curvature="0"
       inkscape:label="out" />
    <path
       style="font-style:normal;font-variant:normal;font-weight:normal;font-stretch:normal;font-size:8px;line-height:1.25;font-family:Sniglet;-inkscape-font-specification:'Sniglet, Normal';font-variant-ligatures:normal;font-variant-caps:normal;font-variant-numeric:normal;font-feature-settings:normal;text-align:center;letter-spacing:0px;word-spacing:0px;writing-mode:lr-tb;text-anchor:middle;fill:#ff6600;fill-opacity:1;stroke:none;stroke-width:0.50796854"
       d="m 3.583758,182.83346 c -0.032413,-0.002 -0.065671,-0.002 -0.099217,0.002 -0.2724766,0.0284 -0.4719197,0.25185 -0.4475169,0.49144 0.028474,0.24365 0.2645088,0.41807 0.5410508,0.38964 0.2684091,-0.0284 0.467785,-0.25185 0.4433842,-0.49145 -0.021346,-0.21317 -0.2108482,-0.37348 -0.4377009,-0.39119 z m 1.7006703,0.97565 c -0.048802,-0.004 -0.1027909,-0.004 -0.1622559,5.3e-4 -0.5449511,0.0324 -0.5937624,0.6413 -0.5937624,0.6413 -0.048802,0.57256 0.048571,0.93432 0.048571,0.93432 0,0 0.085307,0.57242 0.6180499,0.56431 0.561219,-0.008 0.6061646,-0.54417 0.6061646,-0.54417 0,0 0.028397,-0.20711 -0.00423,-0.60099 0.1057306,0 0.14262,0.57258 0.14262,0.57258 0.028474,0.65376 0.6991144,0.56016 0.6950489,0.56016 0.6466219,-0.11376 0.5736077,-0.95394 0.5736077,-0.95394 -0.1179309,-1.66895 -1.4231696,-0.87748 -1.4231696,-0.87748 -0.064057,-0.11011 -0.1591817,-0.27585 -0.5007433,-0.29661 z m -1.6862008,0.0207 c 0,0 -0.4311357,-0.02 -0.5653403,0.47541 0,0 -0.199005,0.73051 0.016523,1.31931 0,0 0.1176812,0.36971 0.5772256,0.35348 0,0 0.4881376,0.0115 0.569473,-0.47131 0.1301313,-0.7634 0.00423,-1.19785 0.00423,-1.19785 0,0 -0.101811,-0.50747 -0.6020298,-0.47904 z"
       id="path4633"
       inkscape:connector-curvature="0"
       inkscape:label="in" />
    <path
       style="font-style:normal;font-variant:normal;font-weight:normal;font-stretch:normal;font-size:8px;line-height:1.25;font-family:Sniglet;-inkscape-font-specification:'Sniglet, Normal';font-variant-ligatures:normal;font-variant-caps:normal;font-variant-numeric:normal;font-feature-settings:normal;text-align:center;letter-spacing:0px;word-spacing:0px;writing-mode:lr-tb;text-anchor:middle;fill:#ff6600;fill-opacity:1;stroke:none;stroke-width:0.5079686"
       d="m 6.2766202,224.30742 c -0.032382,-0.003 -0.065669,-0.002 -0.09922,0.002 -0.2724759,0.0284 -0.4719171,0.25186 -0.4475162,0.49144 0.028468,0.24364 0.26451,0.41807 0.5410527,0.38964 0.2684091,-0.0284 0.4677842,-0.25186 0.4433833,-0.49144 -0.021351,-0.21319 -0.2108485,-0.37348 -0.4376999,-0.39119 z m -4.6979063,0.006 c -0.69542355,-0.004 -0.5570709,0.71054 -0.5570709,0.71054 -0.28060946,0 -0.74000584,0.0975 -0.74000584,0.54829 0,0.64566 0.81751914,0.49145 0.81751914,0.49145 -0.052868,0.73092 -0.1057928,1.37613 0.5896307,1.37613 0.6994904,0 0.5245161,-1.35185 0.5245161,-1.35185 0,0 0.7239878,0.065 0.7239878,-0.51573 0,-0.62535 -0.7730792,-0.54002 -0.7730792,-0.54002 0,0 0.089592,-0.71881 -0.5854978,-0.71881 z m 2.1735137,0.89348 c 0,0 -0.504182,-0.0284 -0.6180526,0.48731 0,0 -0.1223396,0.75102 0.072867,1.3317 0,0 0.1259439,0.40596 0.5854927,0.39377 0,0 0.8259273,0.0895 0.6469879,-1.21801 0,0 0.3617067,0.27597 0.7033183,0.077 0,0 0.2561121,-0.14223 0.2439116,-0.49145 -0.00407,-0.14212 -0.060748,-0.41391 -0.390159,-0.49919 0,0 -0.4268416,-0.11373 -0.7074511,0.28422 0,0 -0.081433,-0.38159 -0.5369148,-0.36535 z m 2.5388602,0.0971 c 0,0 -0.4306186,-0.02 -0.5648232,0.47542 0,0 -0.1995174,0.7305 0.016013,1.3193 0,0 0.1181915,0.36971 0.5777403,0.35347 0,0 0.48762,0.0119 0.5689561,-0.47129 0.1301429,-0.76341 0.00407,-1.19786 0.00407,-1.19786 0,0 -0.1018124,-0.50746 -0.6020293,-0.47904 z m 2.0990963,5.1e-4 c -0.2240352,0.002 -0.4508459,0.0554 -0.6521527,0.17415 0,0 -0.2892311,0.17064 -0.4356361,0.57671 -0.1179373,0.33703 -0.040465,0.81225 0.1994717,1.06402 0.3904132,0.41419 1.0857249,0.23926 1.0857249,0.23926 0,0 0.028722,0.2882 -0.4511357,0.30851 0,0 -0.3704045,-0.0568 -0.4883419,0.20308 0,0 -0.2195261,0.41015 0.3172921,0.601 0,0 1.4884555,0.41828 1.7487309,-1.05575 0,0 0.2482835,-1.18968 -0.3617371,-1.7663 -0.2236743,-0.21065 -0.5888123,-0.34837 -0.9622161,-0.34468 z m 0.1446969,1.03508 c 0.1016701,0 0.158646,0.0853 0.158646,0.17053 0,0.0934 -0.069176,0.15038 -0.158646,0.15038 -0.08947,0 -0.1546453,-0.0367 -0.1627789,-0.15038 -0.00813,-0.0853 0.069242,-0.17053 0.1627789,-0.17053 z"
       id="path4645"
       inkscape:connector-curvature="0"
       inkscape:label="trig" />
    <path
       inkscape:connector-curvature="0"
       id="path137"
       d="m 4.5025675,190.72084 -0.059945,0.33744 c -2.1189798,4.50934 -0.380125,4.76348 0.5100463,9.4449 0.8391567,4.41314 1.520557,8.70175 -0.1700154,15.65021 -0.7992531,-0.0318 -1.5974817,-0.0468 -2.3781494,-0.0434 -1.8528998,0.008 1.5261567,4.80371 2.4851196,4.85138 v 5.3e-4 c 0.9589979,0.0469 4.6755208,-4.36186 2.9698445,-4.5713 -0.754411,-0.0928 -1.5267742,-0.15345 -2.3011516,-0.19792 2.648568,-8.6999 0.8593394,-9.83126 0.064079,-15.81662 -0.6295782,-4.73838 -1.447673,-5.1049 -0.5074627,-9.1984 l 0.059945,-0.33435 z"
       style="color:#000000;font-style:normal;font-variant:normal;font-weight:normal;font-stretch:normal;font-size:medium;line-height:normal;font-family:sans-serif;font-variant-ligatures:normal;font-variant-position:normal;font-variant-caps:normal;font-variant-numeric:normal;font-variant-alternates:normal;font-feature-settings:normal;text-indent:0;text-align:start;text-decoration:none;text-decoration-line:none;text-decoration-style:solid;text-decoration-color:#000000;letter-spacing:normal;word-spacing:normal;text-transform:none;writing-mode:lr-tb;direction:ltr;text-orientation:mixed;dominant-baseline:auto;baseline-shift:baseline;text-anchor:start;white-space:normal;shape-padding:0;clip-rule:nonzero;display:inline;overflow:visible;visibility:visible;opacity:1;isolation:auto;mix-blend-mode:normal;color-interpolation:sRGB;color-interpolation-filters:linearRGB;solid-color:#000000;solid-opacity:1;vector-effect:none;fill:#ffb380;fill-opacity:1;fill-rule:nonzero;stroke:none;stroke-width:0.682239;stroke-linecap:square;stroke-linejoin:miter;stroke-miterlimit:4;stroke-dasharray:none;stroke-dashoffset:0;stroke-opacity:1;color-rendering:auto;image-rendering:auto;shape-rendering:auto;text-rendering:auto;enable-background:accumulate"
       inkscape:label="arrow in to trig" />
    <path
       inkscape:connector-curvature="0"
       id="path6092"
       d="m 5.7288493,234.47993 -0.6723105,0.12248 -0.6175333,0.33434 c 0.6574518,7.67495 1.0629607,5.85477 0.1700155,10.55078 -0.7794104,4.09892 -2.7856202,8.24797 -0.6816122,15.76958 -0.5520327,0.0631 -1.1009929,0.13401 -1.6396932,0.22221 -1.69588222,0.27765 2.1948856,4.53363 3.1512289,4.44831 0.956346,-0.0853 4.1394554,-5.01296 2.2877156,-4.94699 -0.9591371,0.0341 -1.9420806,0.0945 -2.9217856,0.185 -1.4292749,-6.178 -0.9428773,-11.77544 0.473873,-15.55047 1.2786275,-3.40698 1.4636575,-3.24088 0.5100463,-10.79779 z"
       style="color:#000000;font-style:normal;font-variant:normal;font-weight:normal;font-stretch:normal;font-size:medium;line-height:normal;font-family:sans-serif;font-variant-ligatures:normal;font-variant-position:normal;font-variant-caps:normal;font-variant-numeric:normal;font-variant-alternates:normal;font-feature-settings:normal;text-indent:0;text-align:start;text-decoration:none;text-decoration-line:none;text-decoration-style:solid;text-decoration-color:#000000;letter-spacing:normal;word-spacing:normal;text-transform:none;writing-mode:lr-tb;direction:ltr;text-orientation:mixed;dominant-baseline:auto;baseline-shift:baseline;text-anchor:start;white-space:normal;shape-padding:0;clip-rule:nonzero;display:inline;overflow:visible;visibility:visible;opacity:1;isolation:auto;mix-blend-mode:normal;color-interpolation:sRGB;color-interpolation-filters:linearRGB;solid-color:#000000;solid-opacity:1;vector-effect:none;fill:#ffb380;fill-opacity:1;fill-rule:nonzero;stroke:none;stroke-width:0.682239;stroke-linecap:square;stroke-linejoin:miter;stroke-miterlimit:4;stroke-dasharray:none;stroke-dashoffset:0;stroke-opacity:1;color-rendering:auto;image-rendering:auto;shape-rendering:auto;text-rendering:auto;enable-background:accumulate"
       inkscape:label="arrow trig to out" />
    <g
       id="g1070"
       transform="matrix(0.05036065,0,0,0.050285,2.9216137,274.62361)"
       inkscape:label="logo">
      <path
         style="display:inline;fill:#ff7f2a;fill-opacity:1;stroke:none;stroke-width:8.83188725;stroke-miterlimit:4;stroke-dasharray:none;stroke-opacity:1"
         clip-path="none"
         d="m 14.98868,184.77015 c -10.5846059,-8e-5 -19.1651649,8.58046 -19.1650779,19.16509 0.0079,3.46001 0.951431,6.85348 2.731794,9.82029 -14.9807161,9.76853 -31.9787901,24.9568 -31.9787901,45.48078 0,6.29269 0.979801,11.77111 2.754789,16.54138 19.150062,-15.47065 48.908787,-23.91629 73.527186,-23.9312 24.617726,0.0323 54.369866,8.49435 73.508769,23.97777 1.78608,-4.7812 2.77321,-10.27468 2.77321,-16.58795 0,-21.44849 -18.02156,-37.06913 -34.026343,-46.76704 1.32766,-2.6494 2.02282,-5.5706 2.03086,-8.53403 8e-5,-10.58463 -8.58047,-19.16517 -19.16508,-19.16509 -9.398011,0.0114 -17.401104,6.83599 -18.897114,16.11418 -2.106345,-0.17568 -4.186396,-0.26623 -6.224302,-0.26623 -2.904836,0 -5.894371,0.17969 -8.925621,0.53647 -1.378833,-9.40318 -9.440553,-16.37555 -18.94428,-16.38442 z"
         id="path5912"
         inkscape:connector-curvature="0"
         sodipodi:nodetypes="cccscccsccccscc"
         inkscape:label="face-fill" />
      <path
         style="display:inline;fill:#ffccaa;fill-opacity:1;stroke:none;stroke-width:8.83188725;stroke-miterlimit:4;stroke-dasharray:none;stroke-opacity:1"
         clip-path="none"
         d="m 42.86291,251.84649 c -23.077107,0.0141 -55.844803,7.43621 -75.63109,21.10856 5.500568,31.33375 44.838064,33.1236 75.63109,33.1236 30.776767,0 70.08909,-1.78809 75.62244,-33.07415 C 98.709807,259.31631 65.942427,251.87678 42.86291,251.84649 Z"
         id="path5958"
         inkscape:connector-curvature="0"
         inkscape:label="chin-fill" />
      <path
         style="display:inline;fill:none;fill-opacity:1;stroke:#000000;stroke-width:8.83188725;stroke-miterlimit:4;stroke-dasharray:none;stroke-opacity:1"
         d="m 14.988691,184.77015 c -10.5846169,-8e-5 -19.1651629,8.58046 -19.1650809,19.16509 0.0075,3.46001 0.951415,6.85348 2.731791,9.82029 -14.9807161,9.76853 -31.9787941,30.84472 -31.9787901,51.36871 0,38.87761 43.1020531,40.95441 76.28197,40.95441 33.179926,0 76.281979,-2.07681 76.281979,-40.95441 0,-21.44849 -18.02157,-42.95706 -34.026343,-52.65497 1.32765,-2.6494 2.02282,-5.5706 2.03087,-8.53403 8e-5,-10.58463 -8.58047,-19.16517 -19.16508,-19.16509 -9.398011,0.0114 -17.401114,6.83599 -18.897124,16.11418 -2.106335,-0.17568 -4.186407,-0.26623 -6.224302,-0.26623 -2.904826,0 -5.894358,0.17969 -8.925607,0.53647 -1.378831,-9.40318 -9.440553,-16.37555 -18.944283,-16.38442 z"
         id="circle823"
         inkscape:connector-curvature="0"
         sodipodi:nodetypes="cccsssccccscc"
         inkscape:label="face-outline"
         clip-path="none" />
      <path
         inkscape:connector-curvature="0"
         id="circle827"
         d="m 24.784385,212.00047 c -9.816719,0 -17.1671127,8.99836 -17.1671075,19.238 a 4.4174759,4.4174759 0 1 0 8.8349515,0 c 0,-6.13364 4.064092,-10.41027 8.332156,-10.41027 a 4.4163852,4.4163852 0 1 0 0,-8.82773 z m 36.140198,0 a 4.4163852,4.4163852 0 1 0 0,8.82773 c 4.268069,0 8.342411,4.27663 8.342411,10.41027 a 4.4163852,4.4163852 0 1 0 8.824696,0 c 0,-10.23964 -7.350388,-19.238 -17.167107,-19.238 z"
         style="color:#000000;font-style:normal;font-variant:normal;font-weight:normal;font-stretch:normal;font-size:medium;line-height:normal;font-family:sans-serif;font-variant-ligatures:normal;font-variant-position:normal;font-variant-caps:normal;font-variant-numeric:normal;font-variant-alternates:normal;font-feature-settings:normal;text-indent:0;text-align:start;text-decoration:none;text-decoration-line:none;text-decoration-style:solid;text-decoration-color:#000000;letter-spacing:normal;word-spacing:normal;text-transform:none;writing-mode:lr-tb;direction:ltr;text-orientation:mixed;dominant-baseline:auto;baseline-shift:baseline;text-anchor:start;white-space:normal;shape-padding:0;clip-rule:nonzero;display:inline;overflow:visible;visibility:visible;opacity:1;isolation:auto;mix-blend-mode:normal;color-interpolation:sRGB;color-interpolation-filters:linearRGB;solid-color:#000000;solid-opacity:1;vector-effect:none;fill:#000000;fill-opacity:1;fill-rule:nonzero;stroke:none;stroke-width:8.83188725;stroke-linecap:round;stroke-linejoin:miter;stroke-miterlimit:4;stroke-dasharray:none;stroke-dashoffset:0;stroke-opacity:1;color-rendering:auto;image-rendering:auto;shape-rendering:auto;text-rendering:auto;enable-background:accumulate"
         inkscape:label="eyes" />
      <path
         style="display:inline;fill:#a05a2c;fill-opacity:1;stroke:#000000;stroke-width:8.83188725;stroke-linecap:round;stroke-miterlimit:4;stroke-dasharray:none;stroke-opacity:1"
         d="m 30.887331,234.58286 c 3.054125,-6.45051 20.88837,-6.45051 23.942506,0 2.159598,4.5612 -6.32795,10.47298 -11.971256,10.47298 -5.643303,0 -14.130848,-5.91178 -11.97125,-10.47298 z"
         id="rect915"
         inkscape:connector-curvature="0"
         sodipodi:nodetypes="ssss"
         inkscape:label="nose" />
      <g
         id="g5916"
         transform="matrix(1.1126787,0,0,1.1126787,-73.97268,144.9571)"
         style="display:inline"
         inkscape:label="chortle">
        <path
           sodipodi:nodetypes="sssssss"
           inkscape:connector-curvature="0"
           id="path4617"
           d="m 126.18104,108.45957 c 0,5.84898 1.06881,13.12862 -4.08712,17.35851 -5.15593,4.22989 -11.24494,8.58503 -17.09392,8.58503 -5.848979,0 -11.937986,-4.35514 -17.093916,-8.58503 -5.155929,-4.22989 -4.087114,-11.50953 -4.087114,-17.35851 0,-11.697983 9.483071,1.5731 21.18103,1.5731 11.69796,0 21.18104,-13.271113 21.18104,-1.5731 z"
           style="display:inline;fill:#ffffff;fill-opacity:1;stroke:#000000;stroke-width:7.9375;stroke-linecap:round;stroke-miterlimit:4;stroke-dasharray:none;stroke-opacity:1"
           inkscape:label="mouth" />
        <path
           sodipodi:nodetypes="cc"
           inkscape:connector-curvature="0"
           id="path4609"
           d="m 105,111.77529 v 19.86999"
           style="display:inline;fill:none;stroke:#000000;stroke-width:7.9375;stroke-linecap:round;stroke-linejoin:miter;stroke-miterlimit:4;stroke-dasharray:none;stroke-opacity:1"
           inkscape:label="tooth-gap" />
      </g>
    </g>
    <path
       inkscape:connector-curvature="0"
       id="path1669"
       d="m 1.9740392,175.26441 c -0.277749,0.0122 -0.8605814,0.11576 -1.08003742,0.7488 0,0 -0.26850442,0.75482 -0.0165364,1.59887 0,0 0.18309052,0.63285 0.82113842,0.56792 0,0 0.6056635,-0.0283 0.4268475,-0.81959 0,0 1.2720893,0.142 1.2314493,-1.04696 0,0 -0.020378,-1.00639 -1.2314493,-1.04697 0,0 -0.058829,-0.006 -0.151412,-0.002 z m 6.0327067,0 c -0.277749,0.0122 -0.8605816,0.11576 -1.0800373,0.7488 0,0 -0.2685045,0.75482 -0.016537,1.59887 0,0 0.1830903,0.63285 0.8211383,0.56792 0,0 0.6051466,-0.0283 0.4263306,-0.81959 0,0 1.2720894,0.142 1.2314494,-1.04696 0,0 -0.020378,-1.00639 -1.2314494,-1.04697 0,0 -0.058312,-0.006 -0.1508951,-0.002 z m -2.9398721,0.0682 c -0.280035,-0.006 -1.3999147,0.0627 -1.3999147,1.53272 0,0 -8.01e-5,1.37149 1.4629598,1.37149 0,0 1.3006959,2.9e-4 1.3006959,-1.52549 0,0 -2.159e-4,-1.37562 -1.3006959,-1.37562 0,0 -0.02304,-0.002 -0.063045,-0.003 z m -2.9496909,0.89968 c 0.1016,0 0.1586467,0.0853 0.1586467,0.17054 0,0.0933 -0.069239,0.14986 -0.1586467,0.14986 -0.089408,0 -0.154136,-0.0362 -0.162264,-0.14986 -0.00813,-0.0852 0.068792,-0.17054 0.162264,-0.17054 z m 6.0327066,0 c 0.1016,0 0.15813,0.0853 0.15813,0.17054 0,0.0933 -0.068722,0.14986 -0.15813,0.14986 -0.089408,0 -0.1546527,-0.0362 -0.1627807,-0.14986 -0.00813,-0.0852 0.069309,-0.17054 0.1627807,-0.17054 z m -3.0809488,0.40566 c 0.1016,0 0.1586465,0.0853 0.1586465,0.17054 0,0.0933 -0.069238,0.15038 -0.1586465,0.15038 -0.089408,0 -0.154136,-0.0368 -0.162264,-0.15038 -0.00813,-0.0852 0.068792,-0.17054 0.162264,-0.17054 z"
       style="font-style:normal;font-variant:normal;font-weight:normal;font-stretch:normal;font-size:12px;line-height:1.25;font-family:Sniglet;-inkscape-font-specification:'Sniglet, Normal';font-variant-ligatures:normal;font-variant-caps:normal;font-variant-numeric:normal;font-feature-settings:normal;text-align:start;letter-spacing:0px;word-spacing:0px;writing-mode:lr-tb;text-anchor:start;fill:#ff0000;fill-opacity:1;stroke:none;stroke-width:0.3384122"
       inkscape:label="POP" />
  </g>
  <g
     inkscape:groupmode="layer"
     id="layer2"
     inkscape:label="components"
     style="display:none">
    <circle
       id="circle4618"
       cx="5.0799999"
       cy="108.93054"
       r="2.54"
       style="fill:#0000ff;stroke:none;stroke-width:0.27695709"
       inkscape:label="VOLTAGE" />
    <circle
       inkscape:label="TRIGGER"
       style="fill:#00ff00;stroke:none;stroke-width:0.27695709"
       r="2.54"
       cy="64.382431"
       cx="5.0799999"
       id="circle4616" />
    <circle
       id="path3809"
       cx="5.0800004"
       cy="22.873833"
       r="2.54"
       style="fill:#00ff00;stroke:none;stroke-width:0.27695709"
       inkscape:label="VOLTAGE" />
  </g>
</svg>
