<?xml version="1.0" encoding="UTF-8" standalone="no"?>
<!-- Created with Inkscape (http://www.inkscape.org/) -->

<svg
   xmlns:dc="http://purl.org/dc/elements/1.1/"
   xmlns:cc="http://creativecommons.org/ns#"
   xmlns:rdf="http://www.w3.org/1999/02/22-rdf-syntax-ns#"
   xmlns:svg="http://www.w3.org/2000/svg"
   xmlns="http://www.w3.org/2000/svg"
   xmlns:sodipodi="http://sodipodi.sourceforge.net/DTD/sodipodi-0.dtd"
   xmlns:inkscape="http://www.inkscape.org/namespaces/inkscape"
   width="10.16mm"
   height="128.5mm"
   viewBox="0 0 10.16 128.50002"
   version="1.1"
   id="svg8"
   inkscape:version="0.92.4 (5da689c313, 2019-01-14)"
   sodipodi:docname="Pop.svg">
  <defs
     id="defs2" />
  <sodipodi:namedview
     id="base"
     pagecolor="#ffffff"
     bordercolor="#666666"
     borderopacity="1.0"
     inkscape:pageopacity="0.0"
     inkscape:pageshadow="2"
     inkscape:zoom="1.8139916"
     inkscape:cx="19.2"
     inkscape:cy="242.83465"
     inkscape:document-units="mm"
     inkscape:current-layer="layer1"
     showgrid="false"
     units="mm"
     inkscape:window-width="1920"
     inkscape:window-height="1132"
     inkscape:window-x="0"
     inkscape:window-y="32"
     inkscape:window-maximized="1"
     inkscape:pagecheckerboard="false"
     inkscape:showpageshadow="false" />
  <metadata
     id="metadata5">
    <rdf:RDF>
      <cc:Work
         rdf:about="">
        <dc:format>image/svg+xml</dc:format>
        <dc:type
           rdf:resource="http://purl.org/dc/dcmitype/StillImage" />
        <dc:title />
      </cc:Work>
    </rdf:RDF>
  </metadata>
  <g
     inkscape:label="panel"
     id="layer1"
     transform="translate(0,-168.49997)"
     style="display:inline"
     inkscape:groupmode="layer"
     sodipodi:insensitive="true">
    <rect
       style="fill:#d5f6ff;fill-opacity:1;stroke:none;stroke-width:0.13605559;stroke-linecap:butt;stroke-linejoin:round;stroke-miterlimit:4;stroke-dasharray:none;stroke-dashoffset:0;stroke-opacity:1"
       id="rect2012"
       width="10.16"
       height="128.5"
       x="1.4210855e-14"
       y="168.49997"
       inkscape:label="sky" />
    <path
       style="display:inline;fill:#88aa00;fill-opacity:1;stroke-width:0.18403247"
       d="m -7.6293944e-8,259.24136 v 37.75861 H 10.16 V 259.24136 H 5.0799999 Z"
       id="rect10"
       inkscape:connector-curvature="0"
       inkscape:label="grass"
       sodipodi:nodetypes="cccccc" />
    <path
       style="display:inline;fill:#ffccaa;fill-opacity:1;stroke-width:0.02994928"
       d="m -7.6293944e-8,258.24136 v 1 H 10.16 v -1 H 5.0799999 Z"
       id="path1045"
       inkscape:connector-curvature="0"
       inkscape:label="horizon"
       sodipodi:nodetypes="cccccc" />
    <path
       style="display:inline;fill:#f9f9f9;fill-opacity:1;stroke-width:1.28314447"
       d="m 37.626953,14.259766 c -0.460173,0.100537 -1.105193,2.019464 -1.998047,6.583984 -3.184463,3.199937 -4.973089,7.530465 -4.976562,12.044922 -3.44e-4,5.987338 3.086823,11.241012 7.748047,14.291016 0,-5.714942 1.031859,-33.31434 -0.773438,-32.919922 z M 0,151.86328 v 35.17969 c 4.6612222,-3.05 7.7483897,-8.30368 7.7480469,-14.29102 C 7.7445735,168.2375 5.95595,163.90697 2.7714844,160.70703 2.6780211,157.44798 1.6704819,154.42028 0,151.86328 Z M 38.400391,283.77539 C 20.772251,291.46621 8.3689738,308.79296 7.7871094,329.08203 4.7509877,332.13294 2.148326,335.53256 0,339.17969 h 38.400391 z"
       transform="matrix(0.26458333,0,0,0.26458333,0,168.49997)"
       id="path1954"
       inkscape:connector-curvature="0"
       inkscape:label="clouds" />
    <g
       id="g1070"
       transform="matrix(0.05036065,0,0,0.050285,2.9216137,274.62361)"
       inkscape:label="logo">
      <path
         style="display:inline;fill:#ff7f2a;fill-opacity:1;stroke:none;stroke-width:8.83188725;stroke-miterlimit:4;stroke-dasharray:none;stroke-opacity:1"
         clip-path="none"
         d="m 14.98868,184.77015 c -10.5846059,-8e-5 -19.1651649,8.58046 -19.1650779,19.16509 0.0079,3.46001 0.951431,6.85348 2.731794,9.82029 -14.9807161,9.76853 -31.9787901,24.9568 -31.9787901,45.48078 0,6.29269 0.979801,11.77111 2.754789,16.54138 19.150062,-15.47065 48.908787,-23.91629 73.527186,-23.9312 24.617726,0.0323 54.369866,8.49435 73.508769,23.97777 1.78608,-4.7812 2.77321,-10.27468 2.77321,-16.58795 0,-21.44849 -18.02156,-37.06913 -34.026343,-46.76704 1.32766,-2.6494 2.02282,-5.5706 2.03086,-8.53403 8e-5,-10.58463 -8.58047,-19.16517 -19.16508,-19.16509 -9.398011,0.0114 -17.401104,6.83599 -18.897114,16.11418 -2.106345,-0.17568 -4.186396,-0.26623 -6.224302,-0.26623 -2.904836,0 -5.894371,0.17969 -8.925621,0.53647 -1.378833,-9.40318 -9.440553,-16.37555 -18.94428,-16.38442 z"
         id="path5912"
         inkscape:connector-curvature="0"
         sodipodi:nodetypes="cccscccsccccscc"
         inkscape:label="face-fill" />
      <path
         style="display:inline;fill:#ffccaa;fill-opacity:1;stroke:none;stroke-width:8.83188725;stroke-miterlimit:4;stroke-dasharray:none;stroke-opacity:1"
         clip-path="none"
         d="m 42.86291,251.84649 c -23.077107,0.0141 -55.844803,7.43621 -75.63109,21.10856 5.500568,31.33375 44.838064,33.1236 75.63109,33.1236 30.776767,0 70.08909,-1.78809 75.62244,-33.07415 C 98.709807,259.31631 65.942427,251.87678 42.86291,251.84649 Z"
         id="path5958"
         inkscape:connector-curvature="0"
         inkscape:label="chin-fill" />
      <path
         style="display:inline;fill:none;fill-opacity:1;stroke:#000000;stroke-width:8.83188725;stroke-miterlimit:4;stroke-dasharray:none;stroke-opacity:1"
         d="m 14.988691,184.77015 c -10.5846169,-8e-5 -19.1651629,8.58046 -19.1650809,19.16509 0.0075,3.46001 0.951415,6.85348 2.731791,9.82029 -14.9807161,9.76853 -31.9787941,30.84472 -31.9787901,51.36871 0,38.87761 43.1020531,40.95441 76.28197,40.95441 33.179926,0 76.281979,-2.07681 76.281979,-40.95441 0,-21.44849 -18.02157,-42.95706 -34.026343,-52.65497 1.32765,-2.6494 2.02282,-5.5706 2.03087,-8.53403 8e-5,-10.58463 -8.58047,-19.16517 -19.16508,-19.16509 -9.398011,0.0114 -17.401114,6.83599 -18.897124,16.11418 -2.106335,-0.17568 -4.186407,-0.26623 -6.224302,-0.26623 -2.904826,0 -5.894358,0.17969 -8.925607,0.53647 -1.378831,-9.40318 -9.440553,-16.37555 -18.944283,-16.38442 z"
         id="circle823"
         inkscape:connector-curvature="0"
         sodipodi:nodetypes="cccsssccccscc"
         inkscape:label="face-outline"
         clip-path="none" />
      <path
         inkscape:connector-curvature="0"
         id="circle827"
         d="m 24.784385,212.00047 c -9.816719,0 -17.1671127,8.99836 -17.1671075,19.238 a 4.4174759,4.4174759 0 1 0 8.8349515,0 c 0,-6.13364 4.064092,-10.41027 8.332156,-10.41027 a 4.4163852,4.4163852 0 1 0 0,-8.82773 z m 36.140198,0 a 4.4163852,4.4163852 0 1 0 0,8.82773 c 4.268069,0 8.342411,4.27663 8.342411,10.41027 a 4.4163852,4.4163852 0 1 0 8.824696,0 c 0,-10.23964 -7.350388,-19.238 -17.167107,-19.238 z"
         style="color:#000000;font-style:normal;font-variant:normal;font-weight:normal;font-stretch:normal;font-size:medium;line-height:normal;font-family:sans-serif;font-variant-ligatures:normal;font-variant-position:normal;font-variant-caps:normal;font-variant-numeric:normal;font-variant-alternates:normal;font-feature-settings:normal;text-indent:0;text-align:start;text-decoration:none;text-decoration-line:none;text-decoration-style:solid;text-decoration-color:#000000;letter-spacing:normal;word-spacing:normal;text-transform:none;writing-mode:lr-tb;direction:ltr;text-orientation:mixed;dominant-baseline:auto;baseline-shift:baseline;text-anchor:start;white-space:normal;shape-padding:0;clip-rule:nonzero;display:inline;overflow:visible;visibility:visible;opacity:1;isolation:auto;mix-blend-mode:normal;color-interpolation:sRGB;color-interpolation-filters:linearRGB;solid-color:#000000;solid-opacity:1;vector-effect:none;fill:#000000;fill-opacity:1;fill-rule:nonzero;stroke:none;stroke-width:8.83188725;stroke-linecap:round;stroke-linejoin:miter;stroke-miterlimit:4;stroke-dasharray:none;stroke-dashoffset:0;stroke-opacity:1;color-rendering:auto;image-rendering:auto;shape-rendering:auto;text-rendering:auto;enable-background:accumulate"
         inkscape:label="eyes" />
      <path
         style="display:inline;fill:#a05a2c;fill-opacity:1;stroke:#000000;stroke-width:8.83188725;stroke-linecap:round;stroke-miterlimit:4;stroke-dasharray:none;stroke-opacity:1"
         d="m 30.887331,234.58286 c 3.054125,-6.45051 20.88837,-6.45051 23.942506,0 2.159598,4.5612 -6.32795,10.47298 -11.971256,10.47298 -5.643303,0 -14.130848,-5.91178 -11.97125,-10.47298 z"
         id="rect915"
         inkscape:connector-curvature="0"
         sodipodi:nodetypes="ssss"
         inkscape:label="nose" />
      <g
         id="g5916"
         transform="matrix(1.1126787,0,0,1.1126787,-73.97268,144.9571)"
         style="display:inline"
         inkscape:label="chortle">
        <path
           sodipodi:nodetypes="sssssss"
           inkscape:connector-curvature="0"
           id="path4617"
           d="m 126.18104,108.45957 c 0,5.84898 1.06881,13.12862 -4.08712,17.35851 -5.15593,4.22989 -11.24494,8.58503 -17.09392,8.58503 -5.848979,0 -11.937986,-4.35514 -17.093916,-8.58503 -5.155929,-4.22989 -4.087114,-11.50953 -4.087114,-17.35851 0,-11.697983 9.483071,1.5731 21.18103,1.5731 11.69796,0 21.18104,-13.271113 21.18104,-1.5731 z"
           style="display:inline;fill:#ffffff;fill-opacity:1;stroke:#000000;stroke-width:7.9375;stroke-linecap:round;stroke-miterlimit:4;stroke-dasharray:none;stroke-opacity:1"
           inkscape:label="mouth" />
        <path
           sodipodi:nodetypes="cc"
           inkscape:connector-curvature="0"
           id="path4609"
           d="m 105,111.77529 v 19.86999"
           style="display:inline;fill:none;stroke:#000000;stroke-width:7.9375;stroke-linecap:round;stroke-linejoin:miter;stroke-miterlimit:4;stroke-dasharray:none;stroke-opacity:1"
           inkscape:label="tooth-gap" />
      </g>
    </g>
    <path
       style="font-style:normal;font-variant:normal;font-weight:normal;font-stretch:normal;font-size:10.66666698px;line-height:1.25;font-family:'Francois One';-inkscape-font-specification:'Francois One, Normal';font-variant-ligatures:normal;font-variant-caps:normal;font-variant-numeric:normal;font-feature-settings:normal;text-align:center;letter-spacing:0px;word-spacing:0px;writing-mode:lr-tb;text-anchor:middle;fill:#f9f9f9;fill-opacity:1;stroke:none;stroke-width:0.26458332"
       inkscape:connector-curvature="0"
       id="path258"
       d="m 4.6147043,261.5674 c -0.114836,0 -0.2134235,0.0248 -0.2961058,0.0744 -0.081763,0.0487 -0.1492864,0.1177 -0.2025716,0.20774 -0.053284,0.09 -0.092616,0.19878 -0.1183391,0.32556 -0.024805,0.12678 -0.037207,0.26458 -0.037207,0.41341 0,0.0992 0.0035,0.19706 0.010853,0.29352 0.00735,0.0965 0.020383,0.18816 0.038757,0.27544 0.018375,0.0864 0.043179,0.16691 0.074414,0.24133 0.031237,0.0735 0.071199,0.137 0.1198893,0.1912 0.04869,0.0542 0.1065681,0.0968 0.1736328,0.12712 0.067982,0.0303 0.1466456,0.0455 0.236678,0.0455 0.090032,0 0.1692129,-0.0152 0.237195,-0.0455 0.067984,-0.0303 0.1264925,-0.0729 0.175183,-0.12712 0.04869,-0.0542 0.088653,-0.11771 0.1198893,-0.1912 0.032154,-0.0744 0.057073,-0.15497 0.075448,-0.24133 0.019285,-0.0873 0.032952,-0.17898 0.040308,-0.27544 0.00736,-0.0965 0.010853,-0.1943 0.010853,-0.29352 0,-0.14883 -0.013033,-0.28663 -0.038758,-0.41341 -0.024805,-0.12678 -0.064135,-0.23553 -0.1183389,-0.32556 -0.053284,-0.09 -0.1215543,-0.15905 -0.2051555,-0.20774 -0.082682,-0.0496 -0.1817865,-0.0744 -0.2966228,-0.0744 z m -2.2722126,0.0341 -0.4893758,0.0165 0.4991943,2.10013 h 0.4532024 l 0.5100463,-2.11667 -0.3984252,0.0165 -0.2935222,1.44435 z m 3.6437052,0 -0.4134115,0.0165 v 1.40301 c 0,0.0992 0.011139,0.19367 0.034106,0.28371 0.022969,0.09 0.058682,0.1692 0.1064535,0.23719 0.04869,0.0671 0.1094386,0.12081 0.1829345,0.16123 0.074415,0.0395 0.1626095,0.0594 0.2645834,0.0594 0.1093242,0 0.2015373,-0.0138 0.2759522,-0.0413 0.075332,-0.0276 0.1367133,-0.064 0.1844849,-0.10904 0.048692,-0.045 0.085898,-0.096 0.1116211,-0.15296 0.025723,-0.0579 0.044269,-0.11576 0.055294,-0.17364 0.011941,-0.0588 0.018836,-0.11529 0.020672,-0.16949 0.00183,-0.0551 0.00259,-0.10273 0.00259,-0.14315 v -1.37149 l -0.3787883,0.0331 v 1.41542 c 0,0.0413 -0.00138,0.0834 -0.00414,0.12661 -0.00183,0.0423 -0.01,0.0808 -0.02377,0.11575 -0.013782,0.0349 -0.035197,0.0637 -0.064595,0.0858 -0.028478,0.022 -0.069188,0.0331 -0.1224733,0.0331 -0.056958,0 -0.1010549,-0.0109 -0.1322916,-0.032 -0.030323,-0.022 -0.053636,-0.0497 -0.069247,-0.0837 -0.014711,-0.034 -0.023087,-0.0725 -0.025839,-0.11472 -0.00275,-0.0423 -0.00414,-0.0844 -0.00414,-0.12661 z m 1.0800373,0 -0.033073,0.33073 h 0.4314984 v 1.80247 l 0.4134114,-0.0331 v -1.7694 h 0.3953246 l 0.033073,-0.33073 z m -2.4515299,0.29507 c 0.037666,0 0.069993,0.0117 0.096635,0.0346 0.027561,0.022 0.050355,0.0517 0.068729,0.0894 0.018373,0.0367 0.032784,0.0795 0.042892,0.12815 0.011025,0.0487 0.019301,0.0991 0.024805,0.15141 0.00556,0.0515 0.00894,0.10169 0.00982,0.15038 0.00183,0.0478 0.00259,0.0939 0.00259,0.13798 0,0.12678 -0.00214,0.24116 -0.00672,0.34313 -0.00459,0.10106 -0.01561,0.18724 -0.033073,0.2589 -0.016536,0.0707 -0.041341,0.12523 -0.074414,0.16381 -0.032154,0.0377 -0.076137,0.0568 -0.1312582,0.0568 -0.055121,0 -0.098587,-0.0192 -0.1307412,-0.0568 -0.032163,-0.0386 -0.056336,-0.0931 -0.072864,-0.16381 -0.016544,-0.0717 -0.027453,-0.15784 -0.032039,-0.2589 -0.00459,-0.10197 -0.00672,-0.21635 -0.00672,-0.34313 0,-0.0441 6.615e-4,-0.0902 0.00156,-0.13798 0.00185,-0.0487 0.00535,-0.0989 0.010853,-0.15038 0.0055,-0.0524 0.013147,-0.10271 0.023254,-0.15141 0.011017,-0.0487 0.025429,-0.0914 0.042892,-0.12815 0.018375,-0.0377 0.041054,-0.0674 0.067696,-0.0894 0.026642,-0.023 0.058452,-0.0346 0.096118,-0.0346 z m -1.2552203,1.42472 v 0.41341 l 0.396875,-0.0331 v -0.38034 z"
       inkscape:label="label_voltage_out" />
    <path
       style="font-style:normal;font-variant:normal;font-weight:normal;font-stretch:normal;font-size:10.66666698px;line-height:1.25;font-family:'Francois One';-inkscape-font-specification:'Francois One, Normal';font-variant-ligatures:normal;font-variant-caps:normal;font-variant-numeric:normal;font-feature-settings:normal;text-align:center;letter-spacing:0px;word-spacing:0px;writing-mode:lr-tb;text-anchor:middle;fill:#1a1a1a;fill-opacity:1;stroke:none;stroke-width:0.26458332"
       inkscape:connector-curvature="0"
       id="path269"
       d="m 5.4435964,245.25061 c -0.08452,0 -0.1603116,0.0158 -0.2273763,0.047 -0.067065,0.0312 -0.1263213,0.074 -0.1777669,0.12816 -0.050529,0.0542 -0.093361,0.11696 -0.129191,0.18862 -0.035828,0.0717 -0.065399,0.14871 -0.088367,0.23048 -0.022048,0.0808 -0.038585,0.16364 -0.049609,0.24908 -0.010107,0.0854 -0.014986,0.16938 -0.014986,0.25115 0,0.0965 0.00425,0.19091 0.013436,0.2837 0.00919,0.0919 0.02423,0.17932 0.044441,0.262 0.020212,0.0818 0.045763,0.15755 0.076998,0.22737 0.032156,0.0689 0.070108,0.12828 0.114205,0.1788 0.045014,0.0496 0.097265,0.0882 0.1560626,0.11576 0.059715,0.0285 0.1266082,0.0429 0.2010214,0.0429 0.055122,0 0.1039834,-0.006 0.1462442,-0.0191 0.042259,-0.0119 0.078836,-0.0284 0.1100709,-0.0486 0.031237,-0.0211 0.057419,-0.0446 0.078548,-0.0703 0.022053,-0.0257 0.039967,-0.052 0.053743,-0.0796 0.033066,-0.0643 0.05299,-0.13734 0.059428,-0.21911 0.016542,0.068 0.031699,0.12937 0.045475,0.18449 0.00552,0.0239 0.011033,0.0473 0.016536,0.0703 0.00644,0.023 0.011951,0.0443 0.016536,0.0636 0.0046,0.0184 0.0081,0.0343 0.010853,0.0481 0.0037,0.0138 0.00584,0.0227 0.00672,0.0264 l 0.1586466,-0.0165 v -1.0418 H 5.4906224 l -0.033073,0.35812 H 5.666839 c 0,0.0588 -0.00488,0.11329 -0.014986,0.16381 -0.00919,0.0505 -0.023601,0.0945 -0.042891,0.13126 -0.019293,0.0367 -0.042834,0.0657 -0.071313,0.0868 -0.027561,0.0202 -0.059888,0.03 -0.096635,0.03 -0.045016,0 -0.08297,-0.0111 -0.114205,-0.0341 -0.031236,-0.0239 -0.057304,-0.0555 -0.077514,-0.0941 -0.020212,-0.0395 -0.035485,-0.085 -0.046509,-0.13642 -0.010107,-0.0514 -0.018267,-0.10519 -0.02377,-0.16123 -0.00462,-0.056 -0.00739,-0.11254 -0.00827,-0.1695 -8.731e-4,-0.057 -0.00103,-0.1107 -0.00103,-0.16123 0,-0.0533 0.00138,-0.10978 0.00414,-0.1695 0.00367,-0.0606 0.00918,-0.11989 0.016536,-0.17777 0.00735,-0.0588 0.017113,-0.11466 0.029972,-0.16795 0.012861,-0.0542 0.029397,-0.10168 0.049609,-0.14211 0.020212,-0.0404 0.044269,-0.0722 0.07183,-0.0961 0.027561,-0.0248 0.059888,-0.0372 0.096635,-0.0372 0.032154,0 0.059715,0.007 0.082682,0.0217 0.022974,0.0138 0.042267,0.033 0.057878,0.0568 0.015616,0.023 0.028017,0.0493 0.037207,0.0796 0.00919,0.0303 0.0162,0.062 0.021704,0.0951 0.00644,0.0322 0.0112,0.0645 0.013952,0.0966 0.00369,0.0312 0.00718,0.0602 0.010853,0.0868 l 0.3942911,-0.0264 c 0,-0.0955 -0.011771,-0.18724 -0.035657,-0.27543 -0.023887,-0.0891 -0.060978,-0.16766 -0.1105874,-0.23565 -0.049609,-0.068 -0.1129993,-0.12236 -0.1901693,-0.16278 -0.07717,-0.0413 -0.1694997,-0.062 -0.2769856,-0.062 z m -4.47001141,0.0444 -0.0330729,0.33073 H 1.3714935 v 1.80247 l 0.4134115,-0.0331 v -1.7694 h 0.3958414 l 0.033073,-0.33073 z m 1.97042231,0 -0.5017781,0.0165 v 2.11667 l 0.4123778,-0.0331 v -0.91105 h 0.1612307 l 0.3772379,0.96479 0.4066934,-0.11058 c -0.071658,-0.16996 -0.1356807,-0.32166 -0.1917195,-0.45579 -0.023886,-0.057 -0.047312,-0.11334 -0.07028,-0.16846 -0.022048,-0.0551 -0.042087,-0.1041 -0.060461,-0.14728 -0.017455,-0.0432 -0.031867,-0.0783 -0.042891,-0.10491 -0.011025,-0.0267 -0.016536,-0.0405 -0.016536,-0.0413 0.045014,-0.0257 0.086241,-0.0548 0.1229897,-0.0879 0.037666,-0.0331 0.069476,-0.0715 0.096118,-0.11472 0.026649,-0.0432 0.047318,-0.0922 0.062012,-0.14728 0.014692,-0.0551 0.02222,-0.11713 0.02222,-0.18603 0,-0.1029 -0.018661,-0.19172 -0.056327,-0.26614 -0.036749,-0.0744 -0.089746,-0.13516 -0.1586466,-0.18293 -0.067984,-0.0487 -0.1499203,-0.0844 -0.2454629,-0.10645 -0.095545,-0.023 -0.2010215,-0.0341 -0.3167767,-0.0341 z m 1.5048177,0 -0.4134115,0.0331 v 2.10013 l 0.4134115,-0.0331 z m 3.0535604,0 -0.4134114,0.0331 v 2.10013 l 0.4134114,-0.0331 z m 0.8216554,0 -0.4314984,0.0165 v 2.10013 l 0.3694864,-0.0165 v -1.28985 l 0.618567,1.32292 0.3389974,-0.0331 v -2.10013 l -0.3498493,0.0331 v 1.22628 z m -5.4694338,0.33073 h 0.1927532 c 0.036749,0 0.070568,0.004 0.1018026,0.0134 0.032154,0.008 0.059715,0.0233 0.082682,0.0444 0.023889,0.0202 0.042435,0.0471 0.055294,0.0811 0.013777,0.0331 0.020672,0.0744 0.020672,0.12403 0,0.0625 -0.00889,0.11271 -0.026355,0.15037 -0.016536,0.0377 -0.039331,0.0667 -0.06873,0.0879 -0.02848,0.0202 -0.061553,0.034 -0.099219,0.0413 -0.037666,0.006 -0.076999,0.01 -0.1183391,0.01 H 2.854608 Z"
       inkscape:label="label_trigger_in" />
    <path
       style="font-style:normal;font-variant:normal;font-weight:normal;font-stretch:normal;font-size:10.66666698px;line-height:1.25;font-family:'Francois One';-inkscape-font-specification:'Francois One, Normal';font-variant-ligatures:normal;font-variant-caps:normal;font-variant-numeric:normal;font-feature-settings:normal;text-align:center;letter-spacing:0px;word-spacing:0px;writing-mode:lr-tb;text-anchor:middle;fill:#1a1a1a;fill-opacity:1;stroke:none;stroke-width:0.26458332"
       inkscape:connector-curvature="0"
       id="path282"
       d="m 3.3868216,231.6604 -0.488859,0.0165 0.4986777,2.10013 h 0.4532021 l 0.5100465,-2.11667 -0.3984254,0.0165 -0.2935221,1.44384 z m 2.1580078,0 -0.4134115,0.0331 v 2.10013 l 0.4134115,-0.0331 z m 0.8216553,0 -0.4314981,0.0165 v 2.10013 l 0.3694864,-0.0165 v -1.28984 l 0.6185669,1.32291 0.3389974,-0.0331 v -2.10013 l -0.3498495,0.0331 v 1.22628 z m -1.962671,1.71979 v 0.41341 l 0.396875,-0.0331 v -0.38034 z"
       inkscape:label="label_voltage_in" />
    <path
       inkscape:connector-curvature="0"
       id="path1669"
       d="m 1.9740392,175.26441 c -0.277749,0.0122 -0.8605814,0.11576 -1.08003742,0.7488 0,0 -0.26850442,0.75482 -0.0165364,1.59887 0,0 0.18309052,0.63285 0.82113842,0.56792 0,0 0.6056635,-0.0283 0.4268475,-0.81959 0,0 1.2720893,0.142 1.2314493,-1.04696 0,0 -0.020378,-1.00639 -1.2314493,-1.04697 0,0 -0.058829,-0.006 -0.151412,-0.002 z m 6.0327067,0 c -0.277749,0.0122 -0.8605816,0.11576 -1.0800373,0.7488 0,0 -0.2685045,0.75482 -0.016537,1.59887 0,0 0.1830903,0.63285 0.8211383,0.56792 0,0 0.6051466,-0.0283 0.4263306,-0.81959 0,0 1.2720894,0.142 1.2314494,-1.04696 0,0 -0.020378,-1.00639 -1.2314494,-1.04697 0,0 -0.058312,-0.006 -0.1508951,-0.002 z m -2.9398721,0.0682 c -0.280035,-0.006 -1.3999147,0.0627 -1.3999147,1.53272 0,0 -8.01e-5,1.37149 1.4629598,1.37149 0,0 1.3006959,2.9e-4 1.3006959,-1.52549 0,0 -2.159e-4,-1.37562 -1.3006959,-1.37562 0,0 -0.02304,-0.002 -0.063045,-0.003 z m -2.9496909,0.89968 c 0.1016,0 0.1586467,0.0853 0.1586467,0.17054 0,0.0933 -0.069239,0.14986 -0.1586467,0.14986 -0.089408,0 -0.154136,-0.0362 -0.162264,-0.14986 -0.00813,-0.0852 0.068792,-0.17054 0.162264,-0.17054 z m 6.0327066,0 c 0.1016,0 0.15813,0.0853 0.15813,0.17054 0,0.0933 -0.068722,0.14986 -0.15813,0.14986 -0.089408,0 -0.1546527,-0.0362 -0.1627807,-0.14986 -0.00813,-0.0852 0.069309,-0.17054 0.1627807,-0.17054 z m -3.0809488,0.40566 c 0.1016,0 0.1586465,0.0853 0.1586465,0.17054 0,0.0933 -0.069238,0.15038 -0.1586465,0.15038 -0.089408,0 -0.154136,-0.0368 -0.162264,-0.15038 -0.00813,-0.0852 0.068792,-0.17054 0.162264,-0.17054 z"
       style="font-style:normal;font-variant:normal;font-weight:normal;font-stretch:normal;font-size:12px;line-height:1.25;font-family:Sniglet;-inkscape-font-specification:'Sniglet, Normal';font-variant-ligatures:normal;font-variant-caps:normal;font-variant-numeric:normal;font-feature-settings:normal;text-align:start;letter-spacing:0px;word-spacing:0px;writing-mode:lr-tb;text-anchor:start;fill:#ff0000;fill-opacity:1;stroke:none;stroke-width:0.3384122"
       inkscape:label="POP" />
  </g>
  <g
     inkscape:groupmode="layer"
     id="layer3"
     inkscape:label="labels_as_text"
     style="display:none"
     sodipodi:insensitive="true">
    <flowRoot
       transform="matrix(0.26458333,0,0,0.26458333,67.438122,3.7127456)"
       style="font-style:normal;font-variant:normal;font-weight:normal;font-stretch:normal;font-size:10.66666698px;line-height:1.25;font-family:'Francois One';-inkscape-font-specification:'Francois One, Normal';font-variant-ligatures:normal;font-variant-caps:normal;font-variant-numeric:normal;font-feature-settings:normal;text-align:center;letter-spacing:0px;word-spacing:0px;writing-mode:lr-tb;text-anchor:middle;display:inline;fill:#1a1a1a;fill-opacity:1;stroke:none"
       id="flowRoot1479"
       xml:space="preserve"><flowRegion
         style="font-style:normal;font-variant:normal;font-weight:normal;font-stretch:normal;font-size:10.66666698px;font-family:'Francois One';-inkscape-font-specification:'Francois One, Normal';font-variant-ligatures:normal;font-variant-caps:normal;font-variant-numeric:normal;font-feature-settings:normal;text-align:center;writing-mode:lr-tb;text-anchor:middle;fill:#1a1a1a;fill-opacity:1"
         id="flowRegion1475"><rect
           style="font-style:normal;font-variant:normal;font-weight:normal;font-stretch:normal;font-size:10.66666698px;font-family:'Francois One';-inkscape-font-specification:'Francois One, Normal';font-variant-ligatures:normal;font-variant-caps:normal;font-variant-numeric:normal;font-feature-settings:normal;text-align:center;writing-mode:lr-tb;text-anchor:middle;fill:#1a1a1a;fill-opacity:1"
           y="122.38205"
           x="-266.81491"
           height="21.499548"
           width="62.844833"
           id="rect1473" /></flowRegion><flowPara
         id="flowPara1477">TRIG IN</flowPara></flowRoot>    <flowRoot
       xml:space="preserve"
       id="flowRoot1554"
       style="font-style:normal;font-variant:normal;font-weight:normal;font-stretch:normal;font-size:10.66666698px;line-height:1.25;font-family:'Francois One';-inkscape-font-specification:'Francois One, Normal';font-variant-ligatures:normal;font-variant-caps:normal;font-variant-numeric:normal;font-feature-settings:normal;text-align:center;letter-spacing:0px;word-spacing:0px;writing-mode:lr-tb;text-anchor:middle;display:inline;fill:#1a1a1a;fill-opacity:1;stroke:none"
       transform="matrix(0.26458333,0,0,0.26458333,67.445701,-1.5789211)"><flowRegion
         id="flowRegion1550"
         style="font-style:normal;font-variant:normal;font-weight:normal;font-stretch:normal;font-size:10.66666698px;font-family:'Francois One';-inkscape-font-specification:'Francois One, Normal';font-variant-ligatures:normal;font-variant-caps:normal;font-variant-numeric:normal;font-feature-settings:normal;text-align:center;writing-mode:lr-tb;text-anchor:middle;fill:#1a1a1a;fill-opacity:1"><rect
           id="rect1548"
           width="62.844833"
           height="21.499548"
           x="-266.81491"
           y="122.38205"
           style="font-style:normal;font-variant:normal;font-weight:normal;font-stretch:normal;font-size:10.66666698px;font-family:'Francois One';-inkscape-font-specification:'Francois One, Normal';font-variant-ligatures:normal;font-variant-caps:normal;font-variant-numeric:normal;font-feature-settings:normal;text-align:center;writing-mode:lr-tb;text-anchor:middle;fill:#1a1a1a;fill-opacity:1" /></flowRegion><flowPara
         id="flowPara1552">V.IN</flowPara></flowRoot>    <flowRoot
       xml:space="preserve"
       id="flowRoot1562"
       style="font-style:normal;font-variant:normal;font-weight:normal;font-stretch:normal;font-size:10.66666698px;line-height:1.25;font-family:'Francois One';-inkscape-font-specification:'Francois One, Normal';font-variant-ligatures:normal;font-variant-caps:normal;font-variant-numeric:normal;font-feature-settings:normal;text-align:center;letter-spacing:0px;word-spacing:0px;writing-mode:lr-tb;text-anchor:middle;display:inline;fill:#1a1a1a;fill-opacity:1;stroke:none"
       transform="matrix(0.26458333,0,0,0.26458333,67.365775,9.0044123)"><flowRegion
         id="flowRegion1558"
         style="font-style:normal;font-variant:normal;font-weight:normal;font-stretch:normal;font-size:10.66666698px;font-family:'Francois One';-inkscape-font-specification:'Francois One, Normal';font-variant-ligatures:normal;font-variant-caps:normal;font-variant-numeric:normal;font-feature-settings:normal;text-align:center;writing-mode:lr-tb;text-anchor:middle;fill:#1a1a1a;fill-opacity:1"><rect
           id="rect1556"
           width="62.844833"
           height="21.499548"
           x="-266.81491"
           y="122.38205"
           style="font-style:normal;font-variant:normal;font-weight:normal;font-stretch:normal;font-size:10.66666698px;font-family:'Francois One';-inkscape-font-specification:'Francois One, Normal';font-variant-ligatures:normal;font-variant-caps:normal;font-variant-numeric:normal;font-feature-settings:normal;text-align:center;writing-mode:lr-tb;text-anchor:middle;fill:#1a1a1a;fill-opacity:1" /></flowRegion><flowPara
         id="flowPara1560">V.OUT</flowPara></flowRoot>  </g>
  <g
     inkscape:groupmode="layer"
     id="layer2"
     inkscape:label="components"
     style="display:none"
     sodipodi:insensitive="true">
    <circle
       style="display:inline;fill:#0000ff;fill-opacity:1;stroke:none;stroke-width:0.13111606"
       id="circle308"
       cx="5.0800004"
       cy="100.49899"
       r="4.178"
       inkscape:label="VOLTAGE" />
    <circle
       inkscape:label="TRIGGER"
       r="4.178"
       cy="84.192001"
       cx="5.0799999"
       id="circle1830"
       style="display:inline;fill:#00ff00;stroke:none;stroke-width:0.13111606" />
    <circle
       style="display:inline;fill:#00ff00;stroke:none;stroke-width:0.13111606"
       id="circle306"
       cx="5.0799999"
       cy="70.529999"
       r="4.178"
       inkscape:label="VOLTAGE" />
  </g>
</svg>
