<?xml version="1.0" encoding="UTF-8" standalone="no"?>
<!-- Created with Inkscape (http://www.inkscape.org/) -->

<svg
   width="10.16mm"
   height="128.5mm"
   viewBox="0 0 10.16 128.50002"
   version="1.1"
   id="svg8"
   inkscape:version="1.1.1 (c3084ef, 2021-09-22)"
   sodipodi:docname="Tie.svg"
   xmlns:inkscape="http://www.inkscape.org/namespaces/inkscape"
   xmlns:sodipodi="http://sodipodi.sourceforge.net/DTD/sodipodi-0.dtd"
   xmlns="http://www.w3.org/2000/svg"
   xmlns:svg="http://www.w3.org/2000/svg"
   xmlns:rdf="http://www.w3.org/1999/02/22-rdf-syntax-ns#"
   xmlns:cc="http://creativecommons.org/ns#"
   xmlns:dc="http://purl.org/dc/elements/1.1/">
  <defs
     id="defs2" />
  <sodipodi:namedview
     id="base"
     pagecolor="#ffffff"
     bordercolor="#666666"
     borderopacity="1.0"
     inkscape:pageopacity="0.0"
     inkscape:pageshadow="2"
     inkscape:zoom="0.97391375"
     inkscape:cx="-16.941952"
     inkscape:cy="242.83465"
     inkscape:document-units="mm"
     inkscape:current-layer="layer1"
     showgrid="false"
     units="mm"
     inkscape:window-width="1280"
     inkscape:window-height="699"
     inkscape:window-x="0"
     inkscape:window-y="25"
     inkscape:window-maximized="1"
     inkscape:pagecheckerboard="false"
     inkscape:showpageshadow="false"
     width="10.16mm" />
  <metadata
     id="metadata5">
    <rdf:RDF>
      <cc:Work
         rdf:about="">
        <dc:format>image/svg+xml</dc:format>
        <dc:type
           rdf:resource="http://purl.org/dc/dcmitype/StillImage" />
      </cc:Work>
    </rdf:RDF>
  </metadata>
  <g
     inkscape:label="panel"
     id="layer1"
     transform="translate(0,-168.49997)"
     style="display:inline"
     inkscape:groupmode="layer">
    <rect
       style="fill:#d5f6ff;fill-opacity:1;stroke:none;stroke-width:0.136056;stroke-linecap:butt;stroke-linejoin:round;stroke-miterlimit:4;stroke-dasharray:none;stroke-dashoffset:0;stroke-opacity:1"
       id="rect2012"
       width="10.16"
       height="128.5"
       x="1.4210855e-14"
       y="168.49997"
       inkscape:label="sky" />
    <path
       style="display:inline;fill:#88aa00;fill-opacity:1;stroke-width:0.184032"
       d="m -7.6293944e-8,259.24136 v 37.75861 H 10.16 V 259.24136 H 5.0799998 Z"
       id="rect10"
       inkscape:connector-curvature="0"
       inkscape:label="grass"
       sodipodi:nodetypes="cccccc" />
    <path
       style="display:inline;fill:#ffccaa;fill-opacity:1;stroke-width:0.0299493"
       d="m -7.6293944e-8,258.24136 v 1 H 10.16 v -1 H 5.0799998 Z"
       id="path1045"
       inkscape:connector-curvature="0"
       inkscape:label="horizon"
       sodipodi:nodetypes="cccccc" />
    <path
       style="display:inline;fill:#f9f9f9;fill-opacity:1;stroke-width:0.339497"
       d="m 0.07767526,243.58221 c 4.66411194,2.03486 7.94581234,6.61923 8.09976394,11.98738 0.8033072,0.80722 1.4919281,1.7067 2.0603398,2.67167 H 0.07767526 Z"
       id="path1954"
       inkscape:connector-curvature="0"
       inkscape:label="clouds"
       sodipodi:nodetypes="ccccc" />
    <g
       id="g1070"
       transform="matrix(0.05036065,0,0,0.050285,2.9216144,274.62361)"
       inkscape:label="logo">
      <path
         style="display:inline;fill:#ff7f2a;fill-opacity:1;stroke:none;stroke-width:8.83189;stroke-miterlimit:4;stroke-dasharray:none;stroke-opacity:1"
         clip-path="none"
         d="m 14.98868,184.77015 c -10.5846059,-8e-5 -19.1651649,8.58046 -19.1650779,19.16509 0.0079,3.46001 0.951431,6.85348 2.731794,9.82029 -14.9807161,9.76853 -31.9787901,24.9568 -31.9787901,45.48078 0,6.29269 0.979801,11.77111 2.754789,16.54138 19.150062,-15.47065 48.908787,-23.91629 73.527186,-23.9312 24.617726,0.0323 54.369866,8.49435 73.508769,23.97777 1.78608,-4.7812 2.77321,-10.27468 2.77321,-16.58795 0,-21.44849 -18.02156,-37.06913 -34.026343,-46.76704 1.32766,-2.6494 2.02282,-5.5706 2.03086,-8.53403 8e-5,-10.58463 -8.58047,-19.16517 -19.16508,-19.16509 -9.398011,0.0114 -17.401104,6.83599 -18.897114,16.11418 -2.106345,-0.17568 -4.186396,-0.26623 -6.224302,-0.26623 -2.904836,0 -5.894371,0.17969 -8.925621,0.53647 -1.378833,-9.40318 -9.440553,-16.37555 -18.94428,-16.38442 z"
         id="path5912"
         inkscape:connector-curvature="0"
         sodipodi:nodetypes="cccscccsccccscc"
         inkscape:label="face-fill" />
      <path
         style="display:inline;fill:#ffccaa;fill-opacity:1;stroke:none;stroke-width:8.83189;stroke-miterlimit:4;stroke-dasharray:none;stroke-opacity:1"
         clip-path="none"
         d="m 42.86291,251.84649 c -23.077107,0.0141 -55.844803,7.43621 -75.63109,21.10856 5.500568,31.33375 44.838064,33.1236 75.63109,33.1236 30.776767,0 70.08909,-1.78809 75.62244,-33.07415 C 98.709807,259.31631 65.942427,251.87678 42.86291,251.84649 Z"
         id="path5958"
         inkscape:connector-curvature="0"
         inkscape:label="chin-fill" />
      <path
         style="display:inline;fill:none;fill-opacity:1;stroke:#000000;stroke-width:8.83189;stroke-miterlimit:4;stroke-dasharray:none;stroke-opacity:1"
         d="m 14.988691,184.77015 c -10.5846169,-8e-5 -19.1651629,8.58046 -19.1650809,19.16509 0.0075,3.46001 0.951415,6.85348 2.731791,9.82029 -14.9807161,9.76853 -31.9787941,30.84472 -31.9787901,51.36871 0,38.87761 43.1020531,40.95441 76.28197,40.95441 33.179926,0 76.281979,-2.07681 76.281979,-40.95441 0,-21.44849 -18.02157,-42.95706 -34.026343,-52.65497 1.32765,-2.6494 2.02282,-5.5706 2.03087,-8.53403 8e-5,-10.58463 -8.58047,-19.16517 -19.16508,-19.16509 -9.398011,0.0114 -17.401114,6.83599 -18.897124,16.11418 -2.106335,-0.17568 -4.186407,-0.26623 -6.224302,-0.26623 -2.904826,0 -5.894358,0.17969 -8.925607,0.53647 -1.378831,-9.40318 -9.440553,-16.37555 -18.944283,-16.38442 z"
         id="circle823"
         inkscape:connector-curvature="0"
         sodipodi:nodetypes="cccsssccccscc"
         inkscape:label="face-outline"
         clip-path="none" />
      <path
         inkscape:connector-curvature="0"
         id="circle827"
         d="m 24.784385,212.00047 c -9.816719,0 -17.1671127,8.99836 -17.1671075,19.238 a 4.4174759,4.4174759 0 1 0 8.8349515,0 c 0,-6.13364 4.064092,-10.41027 8.332156,-10.41027 a 4.4163852,4.4163852 0 1 0 0,-8.82773 z m 36.140198,0 a 4.4163852,4.4163852 0 1 0 0,8.82773 c 4.268069,0 8.342411,4.27663 8.342411,10.41027 a 4.4163852,4.4163852 0 1 0 8.824696,0 c 0,-10.23964 -7.350388,-19.238 -17.167107,-19.238 z"
         style="color:#000000;font-style:normal;font-variant:normal;font-weight:normal;font-stretch:normal;font-size:medium;line-height:normal;font-family:sans-serif;font-variant-ligatures:normal;font-variant-position:normal;font-variant-caps:normal;font-variant-numeric:normal;font-variant-alternates:normal;font-feature-settings:normal;text-indent:0;text-align:start;text-decoration:none;text-decoration-line:none;text-decoration-style:solid;text-decoration-color:#000000;letter-spacing:normal;word-spacing:normal;text-transform:none;writing-mode:lr-tb;direction:ltr;text-orientation:mixed;dominant-baseline:auto;baseline-shift:baseline;text-anchor:start;white-space:normal;shape-padding:0;clip-rule:nonzero;display:inline;overflow:visible;visibility:visible;opacity:1;isolation:auto;mix-blend-mode:normal;color-interpolation:sRGB;color-interpolation-filters:linearRGB;solid-color:#000000;solid-opacity:1;vector-effect:none;fill:#000000;fill-opacity:1;fill-rule:nonzero;stroke:none;stroke-width:8.83189;stroke-linecap:round;stroke-linejoin:miter;stroke-miterlimit:4;stroke-dasharray:none;stroke-dashoffset:0;stroke-opacity:1;color-rendering:auto;image-rendering:auto;shape-rendering:auto;text-rendering:auto;enable-background:accumulate"
         inkscape:label="eyes" />
      <path
         style="display:inline;fill:#a05a2c;fill-opacity:1;stroke:#000000;stroke-width:8.83189;stroke-linecap:round;stroke-miterlimit:4;stroke-dasharray:none;stroke-opacity:1"
         d="m 30.887331,234.58286 c 3.054125,-6.45051 20.88837,-6.45051 23.942506,0 2.159598,4.5612 -6.32795,10.47298 -11.971256,10.47298 -5.643303,0 -14.130848,-5.91178 -11.97125,-10.47298 z"
         id="rect915"
         inkscape:connector-curvature="0"
         sodipodi:nodetypes="ssss"
         inkscape:label="nose" />
      <g
         id="g5916"
         transform="matrix(1.1126787,0,0,1.1126787,-73.97268,144.9571)"
         style="display:inline"
         inkscape:label="chortle">
        <path
           sodipodi:nodetypes="sssssss"
           inkscape:connector-curvature="0"
           id="path4617"
           d="m 126.18104,108.45957 c 0,5.84898 1.06881,13.12862 -4.08712,17.35851 -5.15593,4.22989 -11.24494,8.58503 -17.09392,8.58503 -5.848979,0 -11.937986,-4.35514 -17.093916,-8.58503 -5.155929,-4.22989 -4.087114,-11.50953 -4.087114,-17.35851 0,-11.697983 9.483071,1.5731 21.18103,1.5731 11.69796,0 21.18104,-13.271113 21.18104,-1.5731 z"
           style="display:inline;fill:#ffffff;fill-opacity:1;stroke:#000000;stroke-width:7.9375;stroke-linecap:round;stroke-miterlimit:4;stroke-dasharray:none;stroke-opacity:1"
           inkscape:label="mouth" />
        <path
           sodipodi:nodetypes="cc"
           inkscape:connector-curvature="0"
           id="path4609"
           d="m 105,111.77529 v 19.86999"
           style="display:inline;fill:none;stroke:#000000;stroke-width:7.9375;stroke-linecap:round;stroke-linejoin:miter;stroke-miterlimit:4;stroke-dasharray:none;stroke-opacity:1"
           inkscape:label="tooth-gap" />
      </g>
    </g>
    <path
       style="font-style:normal;font-variant:normal;font-weight:normal;font-stretch:normal;font-size:10.6667px;line-height:1.25;font-family:'Francois One';-inkscape-font-specification:'Francois One, Normal';font-variant-ligatures:normal;font-variant-caps:normal;font-variant-numeric:normal;font-feature-settings:normal;text-align:center;letter-spacing:0px;word-spacing:0px;writing-mode:lr-tb;text-anchor:middle;fill:#f9f9f9;fill-opacity:1;stroke:none;stroke-width:0.264583"
       inkscape:connector-curvature="0"
       id="path258"
       d="m 4.614705,261.5674 c -0.114836,0 -0.2134235,0.0248 -0.2961058,0.0744 -0.081763,0.0487 -0.1492864,0.1177 -0.2025716,0.20774 -0.053284,0.09 -0.092616,0.19878 -0.1183391,0.32556 -0.024805,0.12678 -0.037207,0.26458 -0.037207,0.41341 0,0.0992 0.0035,0.19706 0.010853,0.29352 0.00735,0.0965 0.020383,0.18816 0.038757,0.27544 0.018375,0.0864 0.043179,0.16691 0.074414,0.24133 0.031237,0.0735 0.071199,0.137 0.1198893,0.1912 0.04869,0.0542 0.1065681,0.0968 0.1736328,0.12712 0.067982,0.0303 0.1466456,0.0455 0.236678,0.0455 0.090032,0 0.1692129,-0.0152 0.237195,-0.0455 0.067984,-0.0303 0.1264925,-0.0729 0.175183,-0.12712 0.04869,-0.0542 0.088653,-0.11771 0.1198893,-0.1912 0.032154,-0.0744 0.057073,-0.15497 0.075448,-0.24133 0.019285,-0.0873 0.032952,-0.17898 0.040308,-0.27544 0.00736,-0.0965 0.010853,-0.1943 0.010853,-0.29352 0,-0.14883 -0.013033,-0.28663 -0.038758,-0.41341 -0.024805,-0.12678 -0.064135,-0.23553 -0.1183389,-0.32556 -0.053284,-0.09 -0.1215543,-0.15905 -0.2051555,-0.20774 -0.082682,-0.0496 -0.1817865,-0.0744 -0.2966228,-0.0744 z m -2.2722126,0.0341 -0.4893758,0.0165 0.4991943,2.10013 h 0.4532024 l 0.5100463,-2.11667 -0.3984252,0.0165 -0.2935222,1.44435 z m 3.6437052,0 -0.4134115,0.0165 v 1.40301 c 0,0.0992 0.011139,0.19367 0.034106,0.28371 0.022969,0.09 0.058682,0.1692 0.1064535,0.23719 0.04869,0.0671 0.1094386,0.12081 0.1829345,0.16123 0.074415,0.0395 0.1626095,0.0594 0.2645834,0.0594 0.1093242,0 0.2015373,-0.0138 0.2759522,-0.0413 0.075332,-0.0276 0.1367133,-0.064 0.1844849,-0.10904 0.048692,-0.045 0.085898,-0.096 0.1116211,-0.15296 0.025723,-0.0579 0.044269,-0.11576 0.055294,-0.17364 0.011941,-0.0588 0.018836,-0.11529 0.020672,-0.16949 0.00183,-0.0551 0.00259,-0.10273 0.00259,-0.14315 v -1.37149 l -0.3787883,0.0331 v 1.41542 c 0,0.0413 -0.00138,0.0834 -0.00414,0.12661 -0.00183,0.0423 -0.01,0.0808 -0.02377,0.11575 -0.013782,0.0349 -0.035197,0.0637 -0.064595,0.0858 -0.028478,0.022 -0.069188,0.0331 -0.1224733,0.0331 -0.056958,0 -0.1010549,-0.0109 -0.1322916,-0.032 -0.030323,-0.022 -0.053636,-0.0497 -0.069247,-0.0837 -0.014711,-0.034 -0.023087,-0.0725 -0.025839,-0.11472 -0.00275,-0.0423 -0.00414,-0.0844 -0.00414,-0.12661 z m 1.0800373,0 -0.033073,0.33073 h 0.4314988 v 1.80247 l 0.413411,-0.0331 v -1.7694 h 0.395325 l 0.03307,-0.33073 z m -2.4515299,0.29507 c 0.037666,0 0.069993,0.0117 0.096635,0.0346 0.027561,0.022 0.050355,0.0517 0.068729,0.0894 0.018373,0.0367 0.032784,0.0795 0.042892,0.12815 0.011025,0.0487 0.019301,0.0991 0.024805,0.15141 0.00556,0.0515 0.00894,0.10169 0.00982,0.15038 0.00183,0.0478 0.00259,0.0939 0.00259,0.13798 0,0.12678 -0.00214,0.24116 -0.00672,0.34313 -0.00459,0.10106 -0.01561,0.18724 -0.033073,0.2589 -0.016536,0.0707 -0.041341,0.12523 -0.074414,0.16381 -0.032154,0.0377 -0.076137,0.0568 -0.1312582,0.0568 -0.055121,0 -0.098587,-0.0192 -0.1307412,-0.0568 -0.032163,-0.0386 -0.056336,-0.0931 -0.072864,-0.16381 -0.016544,-0.0717 -0.027453,-0.15784 -0.032039,-0.2589 -0.00459,-0.10197 -0.00672,-0.21635 -0.00672,-0.34313 0,-0.0441 6.615e-4,-0.0902 0.00156,-0.13798 0.00185,-0.0487 0.00535,-0.0989 0.010853,-0.15038 0.0055,-0.0524 0.013147,-0.10271 0.023254,-0.15141 0.011017,-0.0487 0.025429,-0.0914 0.042892,-0.12815 0.018375,-0.0377 0.041054,-0.0674 0.067696,-0.0894 0.026642,-0.023 0.058452,-0.0346 0.096118,-0.0346 z m -1.2552203,1.42472 v 0.41341 l 0.396875,-0.0331 v -0.38034 z"
       inkscape:label="label_voltage_out" />
    <path
       style="font-style:normal;font-variant:normal;font-weight:normal;font-stretch:normal;font-size:10.6667px;line-height:1.25;font-family:'Francois One';-inkscape-font-specification:'Francois One, Normal';font-variant-ligatures:normal;font-variant-caps:normal;font-variant-numeric:normal;font-feature-settings:normal;text-align:center;letter-spacing:0px;word-spacing:0px;writing-mode:lr-tb;text-anchor:middle;fill:#1a1a1a;fill-opacity:1;stroke:none;stroke-width:0.264583"
       inkscape:connector-curvature="0"
       id="path282"
       d="m 3.2621098,184.03537 -0.488859,0.0165 0.4986777,2.10013 h 0.4532021 l 0.5100465,-2.11667 -0.3984254,0.0165 -0.2935221,1.44384 z m 2.1580078,0 -0.4134115,0.0331 v 2.10013 l 0.4134115,-0.0331 z m 0.8216553,0 -0.4314981,0.0165 v 2.10013 l 0.3694864,-0.0165 v -1.28984 l 0.6185669,1.32291 0.3389974,-0.0331 v -2.10013 l -0.3498495,0.0331 v 1.22628 z m -1.962671,1.71979 v 0.41341 l 0.396875,-0.0331 v -0.38034 z"
       inkscape:label="label_voltage_in" />
    <path
       id="path1201"
       d="m 7.3089849,232.03479 0.033073,-0.33073 h 1.2402368 l -0.03307,0.33073 h -0.395496 v 1.76941 l -0.413414,0.0331 v -1.80248 z m -1.2044098,-0.33073 h 1.0748725 l -0.033073,0.33073 h -0.628388 v 0.50437 h 0.4451085 l -0.00132,0.35553 h -0.44373 v 0.59532 h 0.6835113 l -0.033073,0.33072 H 6.1046307 Z m -0.6821302,0.54433 q -0.024818,-0.0524 -0.046855,-0.0992 -0.020664,-0.0469 -0.049609,-0.0827 -0.027562,-0.0358 -0.067524,-0.0565 -0.039963,-0.0207 -0.1019757,-0.0207 -0.048231,0 -0.085437,0.0179 -0.03583,0.0179 -0.059256,0.0482 -0.023416,0.0303 -0.03583,0.0703 -0.011033,0.04 -0.011033,0.0841 0,0.0358 0.011033,0.0675 0.011033,0.0317 0.02894,0.0579 0.019288,0.0262 0.042717,0.0482 0.023416,0.0207 0.046855,0.0344 l 0.3417543,0.19982 q 0.1212665,0.0689 0.1984375,0.14469 0.077171,0.0758 0.1198907,0.15021 0.044095,0.0744 0.060632,0.14469 0.016536,0.0689 0.019288,0.12541 0,0.15296 -0.052366,0.27974 -0.050985,0.1254 -0.1419384,0.21497 -0.09095,0.0896 -0.214974,0.13918 -0.1226449,0.0482 -0.2659618,0.0482 -0.1322916,0 -0.2425356,-0.04 -0.1102439,-0.04 -0.197059,-0.11024 -0.085439,-0.0717 -0.1488281,-0.16812 -0.062013,-0.0978 -0.1005972,-0.21084 l 0.3500221,-0.16382 q 0.030316,0.0496 0.066146,0.11024 0.035827,0.0593 0.079925,0.11163 0.044098,0.051 0.1005972,0.0854 0.056499,0.0344 0.1309132,0.0344 0.037208,0 0.070281,-0.0165 0.034451,-0.0179 0.059256,-0.0468 0.026194,-0.0303 0.041341,-0.0675 0.016536,-0.0386 0.016536,-0.0799 0,-0.0841 -0.041341,-0.14746 -0.039963,-0.0634 -0.099219,-0.10197 l -0.3706945,-0.21911 q -0.077171,-0.0441 -0.1419384,-0.1006 -0.063389,-0.0565 -0.1116197,-0.12402 -0.046855,-0.0689 -0.073038,-0.14745 -0.026194,-0.0785 -0.026194,-0.16812 0,-0.14056 0.049612,-0.25632 0.050985,-0.11713 0.1378029,-0.20119 0.088194,-0.0841 0.2080842,-0.12954 0.1212692,-0.0469 0.2618291,-0.0469 0.2149739,0 0.3679375,0.11024 0.1529609,0.10887 0.2259991,0.31971 l -0.3500226,0.15847 z M 3.238246,231.70406 h 1.0748725 l -0.033073,0.33073 H 3.6516601 v 0.50437 H 4.096766 l -0.00132,0.35553 H 3.6517157 v 0.59532 h 0.6835087 l -0.033073,0.33072 H 3.2383016 Z m -1.5930165,2.13321 v -2.11667 l 0.5016076,-0.0165 q 0.1736329,0 0.3169497,0.0344 0.1433169,0.0331 0.2452899,0.10611 0.1033542,0.0717 0.1584749,0.18328 0.056502,0.11162 0.056502,0.26596 0,0.10336 -0.02204,0.18604 -0.02204,0.0827 -0.06201,0.14745 -0.039963,0.0648 -0.096464,0.11438 -0.055121,0.0496 -0.122645,0.0882 0,0.001 0.016536,0.0413 0.016536,0.04 0.04272,0.10474 0.027562,0.0648 0.060635,0.14745 0.034449,0.0827 0.070279,0.16812 0.084061,0.20119 0.1915478,0.45613 L 2.5960907,233.8579 2.2185064,232.89327 H 2.057273 v 0.91089 z m 0.412033,-1.24988 H 2.197825 q 0.06201,0 0.1185095,-0.01 0.056502,-0.011 0.099221,-0.0413 0.044096,-0.0317 0.0689,-0.0882 0.026194,-0.0565 0.026194,-0.15021 0,-0.0744 -0.020664,-0.12402 -0.019288,-0.051 -0.055123,-0.0813 -0.034451,-0.0317 -0.082682,-0.0441 -0.046852,-0.0138 -0.1019757,-0.0138 H 2.0572783 Z"
       style="font-size:10.6667px;line-height:1.25;font-family:'Francois One';-inkscape-font-specification:'Francois One, Normal';text-align:center;letter-spacing:0px;word-spacing:0px;text-anchor:middle;display:inline;fill:#1a1a1a;stroke-width:0.264583"
       inkscape:label="label_reset" />
    <path
       id="path1152"
       d="m 8.2240037,198.6411 h 0.432705 q 0.417547,0 0.624255,0.26459 0.206706,0.2632 0.206706,0.80202 0,0.13367 -0.01791,0.26458 -0.01791,0.12954 -0.0565,0.24667 -0.03721,0.11576 -0.09647,0.21498 -0.05926,0.0992 -0.143317,0.17087 -0.08406,0.0717 -0.194302,0.113 -0.110244,0.04 -0.249425,0.04 h -0.505743 z m 0.412036,0.33073 v 1.45522 h 0.05926 q 0.07855,0 0.137803,-0.0262 0.05926,-0.0276 0.100597,-0.0744 0.04272,-0.0469 0.0689,-0.10887 0.02756,-0.0634 0.04272,-0.13367 0.01654,-0.0717 0.02204,-0.14745 0.0069,-0.0758 0.0069,-0.1502 0,-0.0675 0,-0.15435 0,-0.0868 -0.0083,-0.17639 -0.0083,-0.091 -0.03032,-0.17776 -0.02204,-0.0868 -0.06477,-0.15434 -0.04272,-0.0689 -0.113001,-0.11025 -0.0689,-0.0413 -0.173632,-0.0413 z m -2.0050522,1.80248 v -2.11667 l 0.5016076,-0.0165 q 0.1736329,0 0.3169497,0.0344 0.1433169,0.0331 0.2452899,0.10611 0.103354,0.0717 0.158475,0.18328 0.0565,0.11162 0.0565,0.26596 0,0.10336 -0.02204,0.18604 -0.02204,0.0827 -0.06201,0.14745 -0.03997,0.0648 -0.09646,0.11438 -0.05512,0.0496 -0.122645,0.0882 0,10e-4 0.01654,0.0413 0.01654,0.04 0.04272,0.10474 0.02756,0.0648 0.06063,0.14745 0.03445,0.0827 0.07028,0.16812 0.08406,0.20119 0.191548,0.45613 l -0.406522,0.11024 -0.3775839,-0.96463 H 7.043031 v 0.91089 z m 0.412033,-1.24988 H 7.183583 q 0.06201,0 0.1185095,-0.01 0.056502,-0.011 0.099221,-0.0413 0.044096,-0.0317 0.0689,-0.0882 0.02619,-0.0565 0.02619,-0.15021 0,-0.0744 -0.02066,-0.12402 -0.019288,-0.051 -0.055123,-0.0813 -0.034451,-0.0317 -0.082682,-0.0441 -0.046852,-0.0138 -0.1019757,-0.0138 H 7.0430363 Z m -1.3835539,1.27744 q -0.1350486,0 -0.2370243,-0.0455 -0.1005946,-0.0455 -0.1736328,-0.12678 -0.073036,-0.0813 -0.119888,-0.19155 -0.046855,-0.11162 -0.074414,-0.24116 -0.027562,-0.13091 -0.038587,-0.27561 -0.011033,-0.14469 -0.011033,-0.29352 0,-0.22324 0.037208,-0.41341 0.038584,-0.19017 0.1185122,-0.32522 0.079925,-0.13505 0.2025729,-0.20808 0.1240234,-0.0744 0.2962778,-0.0744 0.1722543,0 0.2962804,0.0744 0.1254019,0.073 0.2053272,0.20808 0.081304,0.13505 0.1185122,0.32522 0.038584,0.19017 0.038584,0.41341 0,0.14883 -0.011033,0.29352 -0.011033,0.1447 -0.039965,0.27561 -0.027559,0.12954 -0.075793,0.24116 -0.046852,0.11024 -0.119888,0.19155 -0.073036,0.0813 -0.1750113,0.12678 -0.1019757,0.0455 -0.2370243,0.0455 z m 0,-0.3514 q 0.082682,0 0.1309132,-0.0565 0.049609,-0.0579 0.074417,-0.16398 0.026194,-0.10749 0.033073,-0.25908 0.00688,-0.15296 0.00688,-0.34313 0,-0.0661 -0.00275,-0.1378 -0.00132,-0.073 -0.00966,-0.15021 -0.00826,-0.0785 -0.024791,-0.15159 -0.015161,-0.073 -0.04272,-0.12815 -0.027559,-0.0565 -0.0689,-0.0896 -0.039965,-0.0345 -0.096464,-0.0345 -0.056499,0 -0.096462,0.0345 -0.039965,0.0331 -0.067524,0.0896 -0.026194,0.0551 -0.04272,0.12815 -0.015161,0.073 -0.023416,0.15159 -0.00826,0.0772 -0.011033,0.15021 -0.00132,0.0717 -0.00132,0.1378 0,0.19017 0.00688,0.34313 0.00688,0.15159 0.031697,0.25908 0.024792,0.1061 0.073036,0.16398 0.048231,0.0565 0.1309132,0.0565 z m -0.8709237,-0.41341 q 0,0.14745 -0.037206,0.28663 -0.03583,0.13781 -0.1102439,0.24392 -0.074414,0.10611 -0.1874123,0.17087 -0.1130009,0.0634 -0.2659645,0.0634 -0.1322916,0 -0.2342673,-0.0469 -0.1005973,-0.0482 -0.1736328,-0.13092 -0.073036,-0.084 -0.122645,-0.1943 -0.048231,-0.11162 -0.077171,-0.2384 -0.028938,-0.12816 -0.041341,-0.26458 -0.012409,-0.13781 -0.012409,-0.27148 0,-0.11851 0.015161,-0.24253 0.015161,-0.1254 0.048231,-0.24254 0.033073,-0.11851 0.085439,-0.22186 0.053742,-0.10473 0.1281563,-0.18191 0.074417,-0.0785 0.1722569,-0.12402 0.09784,-0.0455 0.2218638,-0.0455 0.139184,0 0.2480495,0.0675 0.1102413,0.0661 0.1846553,0.17501 0.075793,0.10749 0.1157579,0.24391 0.039963,0.13643 0.039963,0.27699 l -0.3996319,0.0207 q 0,-0.011 -0.00132,-0.0482 -0.00132,-0.0386 -0.00826,-0.0882 -0.00688,-0.051 -0.020664,-0.10611 -0.012409,-0.0565 -0.035827,-0.10335 -0.023442,-0.0469 -0.059256,-0.0772 -0.03583,-0.0303 -0.086818,-0.0303 -0.049609,0 -0.086818,0.0331 -0.035827,0.0317 -0.06201,0.0868 -0.026194,0.0537 -0.04272,0.12678 -0.016536,0.073 -0.026194,0.15434 -0.00966,0.0799 -0.013785,0.16399 -0.00275,0.0841 -0.00275,0.16261 0,0.0992 0.00275,0.19706 0.00413,0.0978 0.015161,0.18603 0.011033,0.0882 0.028937,0.16399 0.019288,0.0744 0.049612,0.12953 0.031694,0.0537 0.074414,0.0854 0.044095,0.0303 0.1033515,0.0303 0.06477,0 0.1047327,-0.0427 0.041341,-0.0441 0.066146,-0.11024 0.024792,-0.0661 0.03583,-0.14332 0.011033,-0.0786 0.016536,-0.14745 l 0.3513985,0.0331 z M 2.2653493,198.6411 h 1.0748724 l -0.033073,0.33073 h -0.628388 v 0.50437 h 0.4451085 l -0.00132,0.35553 H 2.6788163 v 0.59532 H 3.362325 l -0.033073,0.33072 H 2.2654049 Z m -1.59301918,2.13321 v -2.11667 l 0.50160768,-0.0165 q 0.1736328,0 0.3169496,0.0344 0.1433169,0.0331 0.2452926,0.10611 0.1033542,0.0717 0.1584748,0.18328 0.056499,0.11162 0.056499,0.26596 0,0.10336 -0.02204,0.18604 -0.02204,0.0827 -0.062013,0.14745 -0.039963,0.0648 -0.096462,0.11438 -0.055123,0.0496 -0.1226476,0.0882 0,10e-4 0.016536,0.0413 0.016536,0.04 0.04272,0.10474 0.027562,0.0648 0.060635,0.14745 0.034451,0.0827 0.070281,0.16812 0.084061,0.20119 0.1915478,0.45613 l -0.4065244,0.11024 -0.3775815,-0.96463 H 1.0843737 v 0.91089 z m 0.41203558,-1.24988 h 0.1405599 q 0.062013,0 0.1185122,-0.01 0.056499,-0.011 0.099219,-0.0413 0.044098,-0.0317 0.068903,-0.0882 0.026194,-0.0565 0.026194,-0.15021 0,-0.0744 -0.020664,-0.12402 -0.019288,-0.051 -0.055121,-0.0813 -0.034451,-0.0317 -0.082682,-0.0441 -0.046855,-0.0138 -0.1019757,-0.0138 H 1.0843843 Z"
       style="font-size:10.6667px;line-height:1.25;font-family:'Francois One';-inkscape-font-specification:'Francois One, Normal';text-align:center;letter-spacing:0px;word-spacing:0px;text-anchor:middle;fill:#1a1a1a;stroke-width:0.264583"
       inkscape:label="label_record" />
    <path
       id="path1161"
       d="m 7.3096737,247.42807 v -2.11667 l 0.501608,-0.0165 q 0.173632,0 0.316949,0.0344 0.143317,0.0331 0.245293,0.10611 0.103351,0.0717 0.158475,0.18328 0.0565,0.11162 0.0565,0.26596 0,0.10336 -0.02204,0.18604 -0.02204,0.0827 -0.06201,0.14745 -0.03996,0.0648 -0.09646,0.11438 -0.05512,0.0496 -0.122647,0.0882 0,0.001 0.01654,0.0413 0.01654,0.04 0.04272,0.10474 0.02756,0.0648 0.06063,0.14745 0.03445,0.0827 0.07028,0.16812 0.08406,0.20119 0.191548,0.45613 l -0.406522,0.11024 -0.377584,-0.96463 h -0.161229 v 0.91089 z m 0.412036,-1.24988 h 0.14056 q 0.06201,0 0.118512,-0.01 0.0565,-0.011 0.09922,-0.0413 0.0441,-0.0317 0.0689,-0.0882 0.02619,-0.0565 0.02619,-0.15021 0,-0.0744 -0.02066,-0.12402 -0.01929,-0.051 -0.05512,-0.0813 -0.03445,-0.0317 -0.08268,-0.0441 -0.04685,-0.0138 -0.101973,-0.0138 h -0.192926 z m -1.6729449,0.77997 -0.092329,0.45337 H 5.5884983 l 0.446487,-2.09186 0.5884228,-0.0248 0.4575095,2.10013 -0.4506198,0.0165 -0.078547,-0.45338 z m 0.4285721,-0.339 -0.1943047,-1.01286 -0.1598533,1.01286 z m -2.0891129,-1.3243 h 1.0748724 l -0.033073,0.33073 h -0.628388 v 0.50437 H 5.246744 l -0.00132,0.35553 h -0.44373 v 0.59532 h 0.6835057 l -0.033073,0.33072 H 4.3882795 Z m -0.9274228,0 v 1.78595 h 0.7165816 l -0.066146,0.33072 H 3.0487656 v -2.08359 z m -0.7055591,1.39596 q 0,0.14745 -0.037206,0.28663 -0.03583,0.13781 -0.1102439,0.24392 -0.074414,0.10611 -0.187415,0.17087 -0.1129982,0.0634 -0.2659618,0.0634 -0.1322917,0 -0.2342674,-0.0469 -0.1005972,-0.0482 -0.1736328,-0.13092 -0.073036,-0.084 -0.1226449,-0.1943 -0.048231,-0.11162 -0.077171,-0.2384 -0.02894,-0.12816 -0.041341,-0.26458 -0.012409,-0.13781 -0.012409,-0.27148 0,-0.11851 0.015161,-0.24253 0.015161,-0.1254 0.048231,-0.24254 0.033073,-0.11851 0.085439,-0.22186 0.053742,-0.10473 0.1281562,-0.18191 0.074414,-0.0785 0.172257,-0.12402 0.09784,-0.0455 0.2218637,-0.0455 0.1391814,0 0.2480469,0.0675 0.1102439,0.0661 0.184658,0.17501 0.075793,0.10749 0.1157552,0.24391 0.039965,0.13643 0.039965,0.27699 l -0.3996346,0.0207 q 0,-0.011 -0.00132,-0.0482 -0.00132,-0.0386 -0.00826,-0.0882 -0.00688,-0.051 -0.020664,-0.10611 -0.012409,-0.0565 -0.03583,-0.10335 -0.023416,-0.0469 -0.059256,-0.0772 -0.035827,-0.0303 -0.086815,-0.0303 -0.049609,0 -0.086818,0.0331 -0.035827,0.0317 -0.06201,0.0868 -0.026194,0.0537 -0.04272,0.12678 -0.016536,0.073 -0.026194,0.15434 -0.00966,0.0799 -0.013785,0.16399 -0.00275,0.0841 -0.00275,0.16261 0,0.0992 0.00275,0.19706 0.00413,0.0978 0.015161,0.18603 0.011033,0.0882 0.028938,0.16399 0.019288,0.0744 0.049609,0.12953 0.031697,0.0537 0.074414,0.0854 0.044098,0.0303 0.1033541,0.0303 0.064767,0 0.1047327,-0.0427 0.041341,-0.0441 0.066146,-0.11024 0.024792,-0.0661 0.035827,-0.14332 0.011033,-0.0786 0.016536,-0.14745 l 0.3514011,0.0331 z"
       style="font-size:10.6667px;line-height:1.25;font-family:'Francois One';-inkscape-font-specification:'Francois One, Normal';text-align:center;letter-spacing:0px;word-spacing:0px;text-anchor:middle;fill:#1a1a1a;stroke-width:0.264583"
       inkscape:label="label_clear" />
    <path
       id="path6360"
       style="font-size:3.88056px;line-height:1.25;font-family:Sniglet;-inkscape-font-specification:Sniglet;fill:#ff0000;stroke-width:0.264583"
       d="m 7.3719605,175.3589 q 0.2173113,0.008 0.3764143,0.031 0.1629835,0.0233 0.2794006,0.0621 0.120297,0.0349 0.197908,0.0776 0.07761,0.0427 0.124178,0.0892 0.112536,0.10478 0.108656,0.23283 0,0.11642 -0.04269,0.20179 -0.04269,0.0815 -0.112537,0.1397 -0.06985,0.0582 -0.162983,0.0931 -0.09313,0.0349 -0.1901475,0.0543 -0.2289531,0.0427 -0.519995,0.0272 0.2211919,0.0388 0.3337281,0.10865 0.1125362,0.066 0.1552224,0.13194 0.050447,0.0776 0.042686,0.17075 0,0.12418 -0.06597,0.20179 -0.065969,0.0737 -0.1435807,0.12029 -0.093133,0.0543 -0.2095502,0.0815 0.1823863,-0.004 0.3182059,0.0155 0.1358196,0.0194 0.232833,0.0543 0.100895,0.0349 0.166864,0.0815 0.06597,0.0427 0.108656,0.0893 0.09701,0.10866 0.09701,0.25224 -0.0078,0.0931 -0.05433,0.16298 -0.04657,0.066 -0.120297,0.11642 -0.06985,0.0505 -0.162984,0.0854 -0.09313,0.031 -0.1862662,0.0543 -0.221192,0.0505 -0.5044728,0.0543 -0.2134308,0.008 -0.3764143,-0.0155 -0.1629836,-0.0233 -0.2871615,-0.0621 -0.1241779,-0.0388 -0.2134308,-0.0892 -0.089253,-0.0505 -0.1474612,-0.10477 -0.1397002,-0.12806 -0.1746252,-0.29105 -0.050447,-0.25611 -0.058208,-0.53551 -0.00388,-0.28328 0.011642,-0.52 0.015522,-0.27552 0.054328,-0.54328 0.023283,-0.13193 0.081492,-0.22895 0.062089,-0.10089 0.1435808,-0.17074 0.085372,-0.0699 0.1823863,-0.11254 0.1008945,-0.0466 0.2017891,-0.0698 0.2328336,-0.0582 0.5161145,-0.0466 z m -2.8092224,1.97133 q -0.023283,-0.15911 -0.031044,-0.34537 -0.00388,-0.19015 0,-0.35313 0.00388,-0.19015 0.015522,-0.38418 0.019403,-0.24059 0.097014,-0.43074 0.034925,-0.0815 0.085372,-0.1591 0.050447,-0.0776 0.1202974,-0.13582 0.073731,-0.0621 0.1707446,-0.1009 0.097014,-0.0388 0.2250725,-0.0388 0.1552224,0.0116 0.2832809,0.0931 0.054328,0.0349 0.1086556,0.0893 0.058208,0.0543 0.1047752,0.13582 0.050447,0.0815 0.085372,0.19015 0.038806,0.10866 0.058208,0.24836 0.031045,0.27164 0.034925,0.51611 0.00388,0.2406 -0.00388,0.42686 -0.011642,0.21343 -0.031045,0.3997 -0.027164,0.19015 -0.1008946,0.33761 -0.034925,0.0621 -0.081492,0.12418 -0.046567,0.0582 -0.1125363,0.10865 -0.065969,0.0466 -0.1513418,0.0737 -0.085372,0.0272 -0.194028,0.0272 -0.1202974,0 -0.2134308,-0.0349 -0.093133,-0.0388 -0.1668641,-0.097 -0.06985,-0.0582 -0.1202973,-0.13194 -0.046567,-0.0737 -0.081492,-0.15134 -0.077611,-0.18239 -0.1008946,-0.40746 z m -2.0812533,-0.82268 q -0.221192,0.0155 -0.3958172,-0.031 -0.073731,-0.0194 -0.1435807,-0.0543 -0.06985,-0.0388 -0.1280585,-0.0931 -0.054328,-0.0582 -0.089253,-0.1397 -0.031045,-0.0815 -0.031045,-0.19402 0,-0.19403 0.077611,-0.30657 0.081492,-0.11642 0.1785057,-0.17462 0.1125363,-0.0699 0.256117,-0.0931 0.3104448,-0.066 0.6053673,-0.0737 0.2949226,-0.0116 0.5316368,0.004 0.2716392,0.0155 0.5238755,0.0582 0.1785058,0.0388 0.2677587,0.1203 0.093133,0.0815 0.1358196,0.16686 0.046567,0.1009 0.046567,0.21343 -0.00388,0.12418 -0.038806,0.21343 -0.031045,0.0893 -0.085372,0.15523 -0.050447,0.0621 -0.1164168,0.10089 -0.065969,0.0388 -0.1319391,0.0621 -0.1552224,0.0505 -0.3531309,0.0349 0.050447,0.29493 0.054328,0.52388 0.00776,0.22507 -0.00388,0.38418 -0.015522,0.18626 -0.050447,0.3182 -0.038806,0.18627 -0.1280585,0.27552 -0.085372,0.0893 -0.1746252,0.13194 -0.1047751,0.0466 -0.2250725,0.0466 -0.1358196,0.004 -0.2522364,-0.0388 -0.1008945,-0.0388 -0.1940279,-0.13194 -0.093133,-0.0931 -0.1358196,-0.28328 -0.042686,-0.19791 -0.050447,-0.40746 -0.00388,-0.21343 0.00776,-0.38805 0.015522,-0.20567 0.042686,-0.3997 z"
       inkscape:label="TIE" />
  </g>
  <g
     inkscape:groupmode="layer"
     id="layer3"
     inkscape:label="labels_as_text"
     style="display:none"
     sodipodi:insensitive="true">
    <flowRoot
       transform="matrix(0.26458333,0,0,0.26458333,67.31341,3.7127456)"
       style="font-style:normal;font-variant:normal;font-weight:normal;font-stretch:normal;font-size:10.6667px;line-height:1.25;font-family:'Francois One';-inkscape-font-specification:'Francois One, Normal';font-variant-ligatures:normal;font-variant-caps:normal;font-variant-numeric:normal;font-feature-settings:normal;text-align:center;letter-spacing:0px;word-spacing:0px;writing-mode:lr-tb;text-anchor:middle;display:inline;fill:#1a1a1a;fill-opacity:1;stroke:none"
       id="flowRoot1479"
       xml:space="preserve"><flowRegion
         style="font-style:normal;font-variant:normal;font-weight:normal;font-stretch:normal;font-size:10.6667px;font-family:'Francois One';-inkscape-font-specification:'Francois One, Normal';font-variant-ligatures:normal;font-variant-caps:normal;font-variant-numeric:normal;font-feature-settings:normal;text-align:center;writing-mode:lr-tb;text-anchor:middle;fill:#1a1a1a;fill-opacity:1"
         id="flowRegion1475"><rect
           style="font-style:normal;font-variant:normal;font-weight:normal;font-stretch:normal;font-size:10.66666698px;font-family:'Francois One';-inkscape-font-specification:'Francois One, Normal';font-variant-ligatures:normal;font-variant-caps:normal;font-variant-numeric:normal;font-feature-settings:normal;text-align:center;writing-mode:lr-tb;text-anchor:middle;fill:#1a1a1a;fill-opacity:1"
           y="122.38205"
           x="-266.81491"
           height="21.499548"
           width="62.844833"
           id="rect1473" /></flowRegion><flowPara
         id="flowPara1477">RESET</flowPara></flowRoot>
    <flowRoot
       xml:space="preserve"
       id="flowRoot1554"
       style="font-style:normal;font-variant:normal;font-weight:normal;font-stretch:normal;font-size:10.6667px;line-height:1.25;font-family:'Francois One';-inkscape-font-specification:'Francois One, Normal';font-variant-ligatures:normal;font-variant-caps:normal;font-variant-numeric:normal;font-feature-settings:normal;text-align:center;letter-spacing:0px;word-spacing:0px;writing-mode:lr-tb;text-anchor:middle;display:inline;fill:#1a1a1a;fill-opacity:1;stroke:none"
       transform="matrix(0.26458333,0,0,0.26458333,67.320989,-1.5789211)"><flowRegion
         id="flowRegion1550"
         style="font-style:normal;font-variant:normal;font-weight:normal;font-stretch:normal;font-size:10.6667px;font-family:'Francois One';-inkscape-font-specification:'Francois One, Normal';font-variant-ligatures:normal;font-variant-caps:normal;font-variant-numeric:normal;font-feature-settings:normal;text-align:center;writing-mode:lr-tb;text-anchor:middle;fill:#1a1a1a;fill-opacity:1"><rect
           id="rect1548"
           width="62.844833"
           height="21.499548"
           x="-266.81491"
           y="122.38205"
           style="font-style:normal;font-variant:normal;font-weight:normal;font-stretch:normal;font-size:10.66666698px;font-family:'Francois One';-inkscape-font-specification:'Francois One, Normal';font-variant-ligatures:normal;font-variant-caps:normal;font-variant-numeric:normal;font-feature-settings:normal;text-align:center;writing-mode:lr-tb;text-anchor:middle;fill:#1a1a1a;fill-opacity:1" /></flowRegion><flowPara
         id="flowPara1552">V.IN</flowPara></flowRoot>
    <flowRoot
       xml:space="preserve"
       id="flowRoot1562"
       style="font-style:normal;font-variant:normal;font-weight:normal;font-stretch:normal;font-size:10.6667px;line-height:1.25;font-family:'Francois One';-inkscape-font-specification:'Francois One, Normal';font-variant-ligatures:normal;font-variant-caps:normal;font-variant-numeric:normal;font-feature-settings:normal;text-align:center;letter-spacing:0px;word-spacing:0px;writing-mode:lr-tb;text-anchor:middle;display:inline;fill:#1a1a1a;fill-opacity:1;stroke:none"
       transform="matrix(0.26458333,0,0,0.26458333,67.241063,9.0044123)"><flowRegion
         id="flowRegion1558"
         style="font-style:normal;font-variant:normal;font-weight:normal;font-stretch:normal;font-size:10.6667px;font-family:'Francois One';-inkscape-font-specification:'Francois One, Normal';font-variant-ligatures:normal;font-variant-caps:normal;font-variant-numeric:normal;font-feature-settings:normal;text-align:center;writing-mode:lr-tb;text-anchor:middle;fill:#1a1a1a;fill-opacity:1"><rect
           id="rect1556"
           width="62.844833"
           height="21.499548"
           x="-266.81491"
           y="122.38205"
           style="font-style:normal;font-variant:normal;font-weight:normal;font-stretch:normal;font-size:10.66666698px;font-family:'Francois One';-inkscape-font-specification:'Francois One, Normal';font-variant-ligatures:normal;font-variant-caps:normal;font-variant-numeric:normal;font-feature-settings:normal;text-align:center;writing-mode:lr-tb;text-anchor:middle;fill:#1a1a1a;fill-opacity:1" /></flowRegion><flowPara
         id="flowPara1560">V.OUT</flowPara></flowRoot>
    <flowRoot
       transform="matrix(0.26458333,0,0,0.26458333,67.31341,-6.8705873)"
       style="font-style:normal;font-variant:normal;font-weight:normal;font-stretch:normal;font-size:10.6667px;line-height:1.25;font-family:'Francois One';-inkscape-font-specification:'Francois One, Normal';font-variant-ligatures:normal;font-variant-caps:normal;font-variant-numeric:normal;font-feature-settings:normal;text-align:center;letter-spacing:0px;word-spacing:0px;writing-mode:lr-tb;text-anchor:middle;display:inline;fill:#1a1a1a;fill-opacity:1;stroke:none"
       id="flowRoot16023"
       xml:space="preserve"><flowRegion
         style="font-style:normal;font-variant:normal;font-weight:normal;font-stretch:normal;font-size:10.6667px;font-family:'Francois One';-inkscape-font-specification:'Francois One, Normal';font-variant-ligatures:normal;font-variant-caps:normal;font-variant-numeric:normal;font-feature-settings:normal;text-align:center;writing-mode:lr-tb;text-anchor:middle;fill:#1a1a1a;fill-opacity:1"
         id="flowRegion16019"><rect
           style="font-style:normal;font-variant:normal;font-weight:normal;font-stretch:normal;font-size:10.66666698px;font-family:'Francois One';-inkscape-font-specification:'Francois One, Normal';font-variant-ligatures:normal;font-variant-caps:normal;font-variant-numeric:normal;font-feature-settings:normal;text-align:center;writing-mode:lr-tb;text-anchor:middle;fill:#1a1a1a;fill-opacity:1"
           y="122.38205"
           x="-266.81491"
           height="21.499548"
           width="62.844833"
           id="rect16017" /></flowRegion><flowPara
         id="flowPara16021">RECORD</flowPara></flowRoot>
    <flowRoot
       transform="matrix(0.26458333,0,0,0.26458333,67.31341,14.296079)"
       style="font-style:normal;font-variant:normal;font-weight:normal;font-stretch:normal;font-size:10.6667px;line-height:1.25;font-family:'Francois One';-inkscape-font-specification:'Francois One, Normal';font-variant-ligatures:normal;font-variant-caps:normal;font-variant-numeric:normal;font-feature-settings:normal;text-align:center;letter-spacing:0px;word-spacing:0px;writing-mode:lr-tb;text-anchor:middle;display:inline;fill:#1a1a1a;fill-opacity:1;stroke:none"
       id="flowRoot280"
       xml:space="preserve"><flowRegion
         style="font-style:normal;font-variant:normal;font-weight:normal;font-stretch:normal;font-size:10.6667px;font-family:'Francois One';-inkscape-font-specification:'Francois One, Normal';font-variant-ligatures:normal;font-variant-caps:normal;font-variant-numeric:normal;font-feature-settings:normal;text-align:center;writing-mode:lr-tb;text-anchor:middle;fill:#1a1a1a;fill-opacity:1"
         id="flowRegion276"><rect
           style="font-style:normal;font-variant:normal;font-weight:normal;font-stretch:normal;font-size:10.66666698px;font-family:'Francois One';-inkscape-font-specification:'Francois One, Normal';font-variant-ligatures:normal;font-variant-caps:normal;font-variant-numeric:normal;font-feature-settings:normal;text-align:center;writing-mode:lr-tb;text-anchor:middle;fill:#1a1a1a;fill-opacity:1"
           y="122.38205"
           x="-266.81491"
           height="21.499548"
           width="62.844833"
           id="rect274" /></flowRegion><flowPara
         id="flowPara278">CLEAR</flowPara></flowRoot>
  </g>
  <g
     inkscape:groupmode="layer"
     id="layer2"
     inkscape:label="components"
     style="display:none"
     sodipodi:insensitive="true">
    <circle
       style="display:inline;fill:#0000ff;fill-opacity:1;stroke:none;stroke-width:0.131116"
       id="circle308"
       cx="5.0799999"
       cy="100.49899"
       r="4.178"
       inkscape:label="VOLTAGE" />
    <circle
       inkscape:label="RESET"
       r="4.178"
       cy="70.529999"
       cx="5.0799999"
       id="circle1830"
       style="display:inline;fill:#00ff00;stroke:none;stroke-width:0.131116" />
    <circle
       style="display:inline;fill:#00ff00;stroke:none;stroke-width:0.131116"
       id="circle306"
       cx="5.0799999"
       cy="22.904995"
       r="4.178"
       inkscape:label="VOLTAGE" />
    <circle
       inkscape:label="RECORD"
       r="4.178"
       cy="37.538246"
       cx="5.0799999"
       id="circle1286"
       style="display:inline;fill:#00ff00;stroke:none;stroke-width:0.131116" />
    <circle
       inkscape:label="RECORD"
       r="4.178"
       cy="47.063"
       cx="5.0799999"
       id="circle1290"
       style="display:inline;fill:#ff00ff;stroke:none;stroke-width:0.131116" />
    <circle
       inkscape:label="CLEAR"
       r="4.178"
       cy="84.192001"
       cx="5.0799999"
       id="circle1377"
       style="display:inline;fill:#00ff00;stroke:none;stroke-width:0.131116" />
  </g>
</svg>
