<?xml version="1.0" encoding="UTF-8" standalone="no"?>
<!-- Created with Inkscape (http://www.inkscape.org/) -->

<svg
   width="30.48mm"
   height="128.5mm"
   viewBox="0 0 30.48 128.50002"
   version="1.1"
   id="svg8"
   inkscape:version="1.1.1 (c3084ef, 2021-09-22)"
   sodipodi:docname="Tie.svg"
   xmlns:inkscape="http://www.inkscape.org/namespaces/inkscape"
   xmlns:sodipodi="http://sodipodi.sourceforge.net/DTD/sodipodi-0.dtd"
   xmlns="http://www.w3.org/2000/svg"
   xmlns:svg="http://www.w3.org/2000/svg"
   xmlns:rdf="http://www.w3.org/1999/02/22-rdf-syntax-ns#"
   xmlns:cc="http://creativecommons.org/ns#"
   xmlns:dc="http://purl.org/dc/elements/1.1/">
  <defs
     id="defs2" />
  <sodipodi:namedview
     id="base"
     pagecolor="#808080"
     bordercolor="#666666"
     borderopacity="1.0"
     inkscape:pageopacity="0"
     inkscape:pageshadow="2"
     inkscape:zoom="0.93067445"
     inkscape:cx="-34.383667"
     inkscape:cy="242.83465"
     inkscape:document-units="mm"
     inkscape:current-layer="layer2"
     showgrid="true"
     units="mm"
     inkscape:window-width="1280"
     inkscape:window-height="678"
     inkscape:window-x="0"
     inkscape:window-y="25"
     inkscape:window-maximized="1"
     inkscape:pagecheckerboard="true"
     inkscape:showpageshadow="false"
     width="25.4mm"
     inkscape:snap-global="true"
     inkscape:snap-bbox="true"
     inkscape:snap-to-guides="false"
     inkscape:snap-object-midpoints="false"
     inkscape:snap-others="false"
     inkscape:snap-nodes="false"
     inkscape:bbox-paths="false"
     inkscape:bbox-nodes="false"
     inkscape:snap-bbox-midpoints="true"
     inkscape:snap-bbox-edge-midpoints="false">
    <inkscape:grid
       type="xygrid"
       id="grid481"
       spacingx="2.5400003"
       spacingy="2.5400003"
       units="mm" />
  </sodipodi:namedview>
  <metadata
     id="metadata5">
    <rdf:RDF>
      <cc:Work
         rdf:about="">
        <dc:format>image/svg+xml</dc:format>
        <dc:type
           rdf:resource="http://purl.org/dc/dcmitype/StillImage" />
      </cc:Work>
    </rdf:RDF>
  </metadata>
  <g
     inkscape:label="panel"
     id="layer1"
     transform="translate(0,-168.49997)"
     style="display:inline"
     inkscape:groupmode="layer">
    <rect
       style="fill:#d5f6ff;fill-opacity:1;stroke:none;stroke-width:0.235655;stroke-linecap:butt;stroke-linejoin:round;stroke-miterlimit:4;stroke-dasharray:none;stroke-dashoffset:0;stroke-opacity:1"
       id="rect2012"
       width="30.48"
       height="128.5"
       x="2.0980839e-07"
       y="168.49997"
       inkscape:label="sky"
       sodipodi:insensitive="true" />
    <path
       style="display:inline;fill:#88aa00;fill-opacity:1;stroke-width:0.318753"
       d="m -1.9073486e-7,259.24136 v 37.75861 H 30.48 V 259.24136 H 15.24 Z"
       id="rect10"
       inkscape:connector-curvature="0"
       inkscape:label="grass"
       sodipodi:nodetypes="cccccc"
       sodipodi:insensitive="true" />
    <path
       style="display:inline;fill:#ffccaa;fill-opacity:1;stroke-width:0.0518737"
       d="m -1.9073488e-8,258.24136 v 1 H 30.48 v -1 H 15.24 Z"
       id="path1045"
       inkscape:connector-curvature="0"
       inkscape:label="horizon"
       sodipodi:nodetypes="cccccc"
       sodipodi:insensitive="true" />
    <path
       style="display:inline;fill:#f9f9f9;fill-opacity:1;stroke-width:0.339497"
       d="m 0.07767526,243.58221 c 4.66411194,2.03486 7.94581234,6.61923 8.09976394,11.98738 0.8033072,0.80722 1.4919281,1.7067 2.0603398,2.67167 H 0.07767526 Z"
       id="path1954"
       inkscape:connector-curvature="0"
       inkscape:label="clouds"
       sodipodi:nodetypes="ccccc"
       sodipodi:insensitive="true" />
    <g
       id="g1070"
       transform="matrix(0.05036065,0,0,0.050285,13.081614,274.62361)"
       inkscape:label="agamemnon">
      <path
         style="display:inline;fill:#ff7f2a;fill-opacity:1;stroke:none;stroke-width:8.83189;stroke-miterlimit:4;stroke-dasharray:none;stroke-opacity:1"
         clip-path="none"
         d="m 14.98868,184.77015 c -10.5846059,-8e-5 -19.1651649,8.58046 -19.1650779,19.16509 0.0079,3.46001 0.951431,6.85348 2.731794,9.82029 -14.9807161,9.76853 -31.9787901,24.9568 -31.9787901,45.48078 0,6.29269 0.979801,11.77111 2.754789,16.54138 19.150062,-15.47065 48.908787,-23.91629 73.527186,-23.9312 24.617726,0.0323 54.369866,8.49435 73.508769,23.97777 1.78608,-4.7812 2.77321,-10.27468 2.77321,-16.58795 0,-21.44849 -18.02156,-37.06913 -34.026343,-46.76704 1.32766,-2.6494 2.02282,-5.5706 2.03086,-8.53403 8e-5,-10.58463 -8.58047,-19.16517 -19.16508,-19.16509 -9.398011,0.0114 -17.401104,6.83599 -18.897114,16.11418 -2.106345,-0.17568 -4.186396,-0.26623 -6.224302,-0.26623 -2.904836,0 -5.894371,0.17969 -8.925621,0.53647 -1.378833,-9.40318 -9.440553,-16.37555 -18.94428,-16.38442 z"
         id="path5912"
         inkscape:connector-curvature="0"
         sodipodi:nodetypes="cccscccsccccscc"
         inkscape:label="face-fill" />
      <path
         style="display:inline;fill:#ffccaa;fill-opacity:1;stroke:none;stroke-width:8.83189;stroke-miterlimit:4;stroke-dasharray:none;stroke-opacity:1"
         clip-path="none"
         d="m 42.86291,251.84649 c -23.077107,0.0141 -55.844803,7.43621 -75.63109,21.10856 5.500568,31.33375 44.838064,33.1236 75.63109,33.1236 30.776767,0 70.08909,-1.78809 75.62244,-33.07415 C 98.709807,259.31631 65.942427,251.87678 42.86291,251.84649 Z"
         id="path5958"
         inkscape:connector-curvature="0"
         inkscape:label="chin-fill" />
      <path
         style="display:inline;fill:none;fill-opacity:1;stroke:#000000;stroke-width:8.83189;stroke-miterlimit:4;stroke-dasharray:none;stroke-opacity:1"
         d="m 14.988691,184.77015 c -10.5846169,-8e-5 -19.1651629,8.58046 -19.1650809,19.16509 0.0075,3.46001 0.951415,6.85348 2.731791,9.82029 -14.9807161,9.76853 -31.9787941,30.84472 -31.9787901,51.36871 0,38.87761 43.1020531,40.95441 76.28197,40.95441 33.179926,0 76.281979,-2.07681 76.281979,-40.95441 0,-21.44849 -18.02157,-42.95706 -34.026343,-52.65497 1.32765,-2.6494 2.02282,-5.5706 2.03087,-8.53403 8e-5,-10.58463 -8.58047,-19.16517 -19.16508,-19.16509 -9.398011,0.0114 -17.401114,6.83599 -18.897124,16.11418 -2.106335,-0.17568 -4.186407,-0.26623 -6.224302,-0.26623 -2.904826,0 -5.894358,0.17969 -8.925607,0.53647 -1.378831,-9.40318 -9.440553,-16.37555 -18.944283,-16.38442 z"
         id="circle823"
         inkscape:connector-curvature="0"
         sodipodi:nodetypes="cccsssccccscc"
         inkscape:label="face-outline"
         clip-path="none" />
      <path
         inkscape:connector-curvature="0"
         id="circle827"
         d="m 24.784385,212.00047 c -9.816719,0 -17.1671127,8.99836 -17.1671075,19.238 a 4.4174759,4.4174759 0 1 0 8.8349515,0 c 0,-6.13364 4.064092,-10.41027 8.332156,-10.41027 a 4.4163852,4.4163852 0 1 0 0,-8.82773 z m 36.140198,0 a 4.4163852,4.4163852 0 1 0 0,8.82773 c 4.268069,0 8.342411,4.27663 8.342411,10.41027 a 4.4163852,4.4163852 0 1 0 8.824696,0 c 0,-10.23964 -7.350388,-19.238 -17.167107,-19.238 z"
         style="color:#000000;font-style:normal;font-variant:normal;font-weight:normal;font-stretch:normal;font-size:medium;line-height:normal;font-family:sans-serif;font-variant-ligatures:normal;font-variant-position:normal;font-variant-caps:normal;font-variant-numeric:normal;font-variant-alternates:normal;font-feature-settings:normal;text-indent:0;text-align:start;text-decoration:none;text-decoration-line:none;text-decoration-style:solid;text-decoration-color:#000000;letter-spacing:normal;word-spacing:normal;text-transform:none;writing-mode:lr-tb;direction:ltr;text-orientation:mixed;dominant-baseline:auto;baseline-shift:baseline;text-anchor:start;white-space:normal;shape-padding:0;clip-rule:nonzero;display:inline;overflow:visible;visibility:visible;opacity:1;isolation:auto;mix-blend-mode:normal;color-interpolation:sRGB;color-interpolation-filters:linearRGB;solid-color:#000000;solid-opacity:1;vector-effect:none;fill:#000000;fill-opacity:1;fill-rule:nonzero;stroke:none;stroke-width:8.83189;stroke-linecap:round;stroke-linejoin:miter;stroke-miterlimit:4;stroke-dasharray:none;stroke-dashoffset:0;stroke-opacity:1;color-rendering:auto;image-rendering:auto;shape-rendering:auto;text-rendering:auto;enable-background:accumulate"
         inkscape:label="eyes" />
      <path
         style="display:inline;fill:#a05a2c;fill-opacity:1;stroke:#000000;stroke-width:8.83189;stroke-linecap:round;stroke-miterlimit:4;stroke-dasharray:none;stroke-opacity:1"
         d="m 30.887331,234.58286 c 3.054125,-6.45051 20.88837,-6.45051 23.942506,0 2.159598,4.5612 -6.32795,10.47298 -11.971256,10.47298 -5.643303,0 -14.130848,-5.91178 -11.97125,-10.47298 z"
         id="rect915"
         inkscape:connector-curvature="0"
         sodipodi:nodetypes="ssss"
         inkscape:label="nose" />
      <g
         id="g5916"
         transform="matrix(1.1126787,0,0,1.1126787,-73.97268,144.9571)"
         style="display:inline"
         inkscape:label="chortle">
        <path
           sodipodi:nodetypes="sssssss"
           inkscape:connector-curvature="0"
           id="path4617"
           d="m 126.18104,108.45957 c 0,5.84898 1.06881,13.12862 -4.08712,17.35851 -5.15593,4.22989 -11.24494,8.58503 -17.09392,8.58503 -5.848979,0 -11.937986,-4.35514 -17.093916,-8.58503 -5.155929,-4.22989 -4.087114,-11.50953 -4.087114,-17.35851 0,-11.697983 9.483071,1.5731 21.18103,1.5731 11.69796,0 21.18104,-13.271113 21.18104,-1.5731 z"
           style="display:inline;fill:#ffffff;fill-opacity:1;stroke:#000000;stroke-width:7.9375;stroke-linecap:round;stroke-miterlimit:4;stroke-dasharray:none;stroke-opacity:1"
           inkscape:label="mouth" />
        <path
           sodipodi:nodetypes="cc"
           inkscape:connector-curvature="0"
           id="path4609"
           d="m 105,111.77529 v 19.86999"
           style="display:inline;fill:none;stroke:#000000;stroke-width:7.9375;stroke-linecap:round;stroke-linejoin:miter;stroke-miterlimit:4;stroke-dasharray:none;stroke-opacity:1"
           inkscape:label="tooth-gap" />
      </g>
    </g>
    <path
       id="path6360"
       style="font-size:3.88056px;line-height:1.25;font-family:Sniglet;-inkscape-font-specification:Sniglet;fill:#ff0000;stroke-width:0.288997"
       d="m 17.743443,170.44989 q 0.237364,0.009 0.411147,0.0339 0.178022,0.0255 0.305181,0.0678 0.131397,0.0381 0.216169,0.0848 0.08477,0.0466 0.135637,0.0974 0.122919,0.11445 0.118681,0.25432 0,0.12715 -0.04663,0.22041 -0.04663,0.089 -0.122921,0.15259 -0.07629,0.0636 -0.178021,0.10168 -0.101724,0.0381 -0.207693,0.0593 -0.250078,0.0466 -0.567976,0.0297 0.241602,0.0424 0.364522,0.11868 0.12292,0.0721 0.169545,0.14411 0.0551,0.0848 0.04663,0.1865 0,0.13565 -0.07206,0.22041 -0.07206,0.0805 -0.156829,0.1314 -0.101723,0.0593 -0.228887,0.089 0.199216,-0.005 0.347568,0.0169 0.148352,0.0212 0.254317,0.0593 0.110205,0.0381 0.182261,0.089 0.07206,0.0466 0.118682,0.0975 0.105961,0.11868 0.105961,0.27551 -0.0085,0.1017 -0.05934,0.17803 -0.05087,0.0721 -0.131397,0.12715 -0.0763,0.0551 -0.178022,0.0933 -0.101724,0.0339 -0.203454,0.0593 -0.241601,0.0552 -0.551022,0.0593 -0.233124,0.009 -0.411146,-0.0169 -0.178023,-0.0255 -0.313659,-0.0678 -0.135636,-0.0424 -0.233124,-0.0974 -0.09748,-0.0552 -0.161069,-0.11444 -0.15259,-0.13988 -0.190737,-0.31791 -0.0551,-0.27974 -0.06358,-0.58492 -0.0043,-0.30941 0.01272,-0.56797 0.01695,-0.30095 0.05934,-0.59342 0.02543,-0.1441 0.08901,-0.25007 0.06782,-0.1102 0.15683,-0.1865 0.09325,-0.0764 0.199215,-0.12292 0.110205,-0.0509 0.220408,-0.0763 0.254319,-0.0636 0.563738,-0.0509 z m -3.068435,2.15323 q -0.02542,-0.17379 -0.0339,-0.37723 -0.0043,-0.2077 0,-0.38572 0.0043,-0.20769 0.01696,-0.41963 0.02119,-0.26279 0.105961,-0.47048 0.03816,-0.089 0.09325,-0.17378 0.0551,-0.0848 0.131396,-0.14836 0.08053,-0.0678 0.1865,-0.1102 0.105961,-0.0424 0.24584,-0.0424 0.169546,0.0127 0.30942,0.10169 0.05934,0.0381 0.118682,0.0975 0.06358,0.0593 0.114443,0.14835 0.0551,0.089 0.09325,0.20769 0.04239,0.11869 0.06358,0.27128 0.03392,0.2967 0.03815,0.56373 0.0043,0.2628 -0.0043,0.46625 -0.01272,0.23313 -0.03392,0.43658 -0.02966,0.2077 -0.110204,0.36876 -0.03814,0.0678 -0.08901,0.13565 -0.05087,0.0636 -0.122921,0.11867 -0.07206,0.0509 -0.165306,0.0805 -0.09325,0.0297 -0.211932,0.0297 -0.131397,0 -0.233123,-0.0381 -0.101723,-0.0424 -0.182261,-0.10595 -0.0763,-0.0636 -0.131398,-0.14412 -0.05087,-0.0805 -0.08901,-0.16531 -0.08477,-0.19921 -0.110204,-0.44505 z m -2.273293,-0.89859 q -0.241603,0.0169 -0.432341,-0.0339 -0.08053,-0.0212 -0.156829,-0.0593 -0.0763,-0.0424 -0.139875,-0.10168 -0.05934,-0.0636 -0.09749,-0.1526 -0.03391,-0.089 -0.03391,-0.21192 0,-0.21193 0.08477,-0.33486 0.08901,-0.12716 0.194977,-0.19073 0.12292,-0.0763 0.279749,-0.10169 0.339091,-0.0721 0.661226,-0.0805 0.322136,-0.0127 0.580692,0.005 0.296704,0.0169 0.572214,0.0636 0.194977,0.0424 0.292465,0.13141 0.101724,0.089 0.148352,0.18225 0.05087,0.11021 0.05087,0.23313 -0.0043,0.13563 -0.04239,0.23312 -0.0339,0.0975 -0.09325,0.16955 -0.0551,0.0678 -0.127159,0.1102 -0.07206,0.0424 -0.144113,0.0678 -0.169545,0.0551 -0.385715,0.0381 0.0551,0.32215 0.05934,0.57223 0.0085,0.24583 -0.0043,0.41962 -0.01696,0.20345 -0.0551,0.34756 -0.04239,0.20346 -0.139875,0.30094 -0.09325,0.0975 -0.190739,0.14412 -0.114443,0.0509 -0.245839,0.0509 -0.148352,0.005 -0.275511,-0.0424 -0.110204,-0.0424 -0.211931,-0.14411 -0.101723,-0.10169 -0.148352,-0.30942 -0.04663,-0.21617 -0.0551,-0.44506 -0.0043,-0.23312 0.0085,-0.42386 0.01696,-0.22464 0.04663,-0.43657 z"
       inkscape:label="TIE" />
    <path
       id="path8148"
       d="m 11.328313,225.0943 0.03308,-0.33073 h 1.240237 l -0.03307,0.33073 h -0.3955 v 1.76941 l -0.413411,0.0331 v -1.80248 z m -1.4248953,1.80248 v -2.11667 l 0.5016073,-0.0165 q 0.173633,0 0.31695,0.0344 0.143317,0.0331 0.245293,0.10611 0.103351,0.0717 0.158474,0.18328 0.0565,0.11162 0.0565,0.26596 0,0.10336 -0.02204,0.18604 -0.02204,0.0827 -0.06201,0.14745 -0.03996,0.0648 -0.09646,0.11438 -0.05512,0.0496 -0.122645,0.0882 0,0.001 0.01654,0.0413 0.01654,0.04 0.04272,0.10474 0.02756,0.0648 0.06063,0.14745 0.03445,0.0827 0.07028,0.16812 0.08406,0.20119 0.191548,0.45613 l -0.406522,0.11024 -0.377584,-0.96463 h -0.16123 v 0.91089 z m 0.4120353,-1.24988 h 0.14056 q 0.06201,0 0.118512,-0.01 0.0565,-0.011 0.09922,-0.0413 0.0441,-0.0317 0.0689,-0.0882 0.02619,-0.0565 0.02619,-0.15021 0,-0.0744 -0.02066,-0.12402 -0.01929,-0.051 -0.05512,-0.0813 -0.03445,-0.0317 -0.08268,-0.0441 -0.04685,-0.0138 -0.101973,-0.0138 h -0.192927 z m -1.6729442,0.77997 -0.092329,0.45337 H 8.1822423 l 0.446487,-2.09186 0.5884227,-0.0248 0.4575096,2.10013 -0.4506198,0.0165 -0.078547,-0.45338 z m 0.4285721,-0.339 -0.1943048,-1.01286 -0.1598533,1.01286 z m -2.1304541,-0.99357 0.033073,-0.33073 h 1.240237 l -0.033073,0.33073 H 7.7853673 v 1.76941 l -0.4134141,0.0331 v -1.80248 z m -0.5250339,0.2136 q -0.024792,-0.0524 -0.046855,-0.0992 -0.020664,-0.0469 -0.049609,-0.0827 -0.027559,-0.0358 -0.067524,-0.0565 -0.039963,-0.0207 -0.1019731,-0.0207 -0.048233,0 -0.085439,0.0179 -0.03583,0.0179 -0.059256,0.0482 -0.023416,0.0303 -0.03583,0.0703 -0.011033,0.04 -0.011033,0.0841 0,0.0358 0.011033,0.0675 0.011033,0.0317 0.02894,0.0579 0.019288,0.0262 0.04272,0.0482 0.023416,0.0207 0.046852,0.0344 l 0.3417543,0.19982 q 0.1212691,0.0689 0.1984375,0.14469 0.077171,0.0758 0.1198906,0.15021 0.044098,0.0744 0.060635,0.14469 0.016537,0.0689 0.019288,0.12541 0,0.15296 -0.052364,0.27974 -0.050988,0.1254 -0.1419383,0.21497 -0.09095,0.0896 -0.2149766,0.13918 -0.122645,0.0482 -0.2659618,0.0482 -0.1322917,0 -0.2425356,-0.04 -0.110244,-0.04 -0.1970591,-0.11024 -0.085439,-0.0717 -0.1488281,-0.16812 -0.062013,-0.0978 -0.1005972,-0.21084 l 0.3500226,-0.16399 q 0.030316,0.0496 0.066146,0.11024 0.03583,0.0593 0.079925,0.11163 0.044098,0.051 0.1005973,0.0854 0.056502,0.0344 0.1309158,0.0344 0.037206,0 0.070279,-0.0165 0.034451,-0.0179 0.059256,-0.0468 0.026194,-0.0303 0.041341,-0.0675 0.016536,-0.0386 0.016536,-0.0799 0,-0.0841 -0.041341,-0.14746 -0.039963,-0.0634 -0.099219,-0.10197 l -0.3706945,-0.21911 q -0.077168,-0.0441 -0.1419383,-0.1006 -0.063389,-0.0565 -0.1116198,-0.12402 -0.046855,-0.0689 -0.073036,-0.14745 -0.026194,-0.0785 -0.026194,-0.16812 0,-0.14056 0.049609,-0.25632 0.050988,-0.11713 0.137803,-0.20119 0.088196,-0.0841 0.2080842,-0.12954 0.1212691,-0.0469 0.261829,-0.0469 0.214974,0 0.3679375,0.11024 0.1529636,0.10887 0.2259992,0.31971 l -0.3500226,0.15847 z M 4.231394,224.76357 h 1.0748751 l -0.033073,0.33073 h -0.628388 v 0.50437 H 5.089914 l -0.00132,0.35553 H 4.644861 v 0.59532 h 0.6835087 l -0.033073,0.33072 H 4.2314469 Z m -1.5930165,2.13321 v -2.11667 l 0.5016077,-0.0165 q 0.1736328,0 0.3169496,0.0344 0.1433169,0.0331 0.2452926,0.10611 0.1033515,0.0717 0.1584748,0.18328 0.056499,0.11162 0.056499,0.26596 0,0.10336 -0.02204,0.18604 -0.02204,0.0827 -0.062013,0.14745 -0.039963,0.0648 -0.096464,0.11438 -0.055121,0.0496 -0.1226449,0.0882 0,0.001 0.016536,0.0413 0.016536,0.04 0.04272,0.10474 0.027562,0.0648 0.060635,0.14745 0.034451,0.0827 0.070279,0.16812 0.084061,0.20119 0.1915477,0.45613 l -0.4065217,0.11024 -0.3775842,-0.96463 H 3.050421 v 0.91089 z M 3.0504131,225.6469 H 3.190973 q 0.06201,0 0.1185122,-0.01 0.056499,-0.011 0.099219,-0.0413 0.044095,-0.0317 0.068903,-0.0882 0.026194,-0.0565 0.026194,-0.15021 0,-0.0744 -0.020664,-0.12402 -0.019288,-0.051 -0.055123,-0.0813 -0.034449,-0.0317 -0.082682,-0.0441 -0.046852,-0.0138 -0.1019731,-0.0138 H 3.0504316 Z"
       style="font-size:10.6667px;line-height:1.25;font-family:'Francois One';-inkscape-font-specification:'Francois One, Normal';text-align:center;letter-spacing:0px;word-spacing:0px;text-anchor:middle;fill:#1a1a1a;stroke-width:0.264583" />
    <path
       id="path8157"
       d="m 8.8443926,182.41702 v 1.28985 l -0.369316,0.0165 v -2.10013 l 0.431326,-0.0165 0.5457061,1.25953 v -1.22645 l 0.350023,-0.0331 v 2.10014 l -0.338998,0.0331 z m -1.172715,-0.77721 0.413414,-0.0331 v 2.10014 l -0.413414,0.0331 z m -0.3307297,1.68672 v 0.38034 l -0.3968776,0.0331 v -0.41341 z m -1.9030764,-1.70326 0.489204,-0.0165 0.2811198,1.46073 0.2935234,-1.44419 0.3982561,-0.0165 -0.5098758,2.11667 H 5.9367222 Z"
       style="font-size:10.6667px;line-height:1.25;font-family:'Francois One';-inkscape-font-specification:'Francois One, Normal';text-align:center;letter-spacing:0px;word-spacing:0px;text-anchor:middle;fill:#1a1a1a;stroke-width:0.264583" />
    <path
       id="path8168"
       d="m 9.5733779,262.01583 0.033073,-0.33073 h 1.2402371 l -0.03307,0.33073 h -0.395497 v 1.76941 l -0.413414,0.0331 v -1.80248 z m -1.4607249,-0.31419 0.4134114,-0.0165 v 1.45246 q 0,0.0634 0.00413,0.12678 0.00413,0.0634 0.026194,0.11438 0.023416,0.051 0.0689,0.0841 0.046855,0.0317 0.1322943,0.0317 0.079925,0 0.122645,-0.0331 0.044098,-0.0331 0.064767,-0.0854 0.020664,-0.0524 0.023416,-0.11576 0.00413,-0.0648 0.00413,-0.12677 v -1.41525 l 0.37896,-0.0331 v 1.37116 q 0,0.0606 -0.00275,0.14331 -0.00275,0.0813 -0.020664,0.1695 -0.016536,0.0868 -0.055121,0.17364 -0.038587,0.0854 -0.1116224,0.15296 -0.071657,0.0675 -0.1846579,0.10886 -0.1116198,0.0413 -0.2756086,0.0413 -0.1529609,0 -0.2645833,-0.0592 -0.110244,-0.0606 -0.1832796,-0.16123 -0.071657,-0.10198 -0.1061085,-0.23703 -0.034451,-0.13505 -0.034451,-0.28387 z m -0.9577414,2.14423 q -0.135046,0 -0.2370217,-0.0455 -0.1005972,-0.0455 -0.1736328,-0.12678 -0.073038,-0.0813 -0.1198906,-0.19155 -0.046852,-0.11162 -0.074414,-0.24116 -0.027562,-0.13091 -0.038584,-0.27561 -0.011033,-0.14469 -0.011033,-0.29352 0,-0.22324 0.037206,-0.41341 0.038587,-0.19017 0.1185122,-0.32522 0.079928,-0.13505 0.2025729,-0.20808 0.1240234,-0.0744 0.2962778,-0.0744 0.1722569,0 0.2962804,0.0744 0.1254019,0.073 0.2053272,0.20808 0.081307,0.13505 0.1185122,0.32522 0.038587,0.19017 0.038587,0.41341 0,0.14883 -0.011033,0.29352 -0.011033,0.1447 -0.039963,0.27561 -0.027562,0.12954 -0.075793,0.24116 -0.046855,0.11024 -0.1198907,0.19155 -0.073035,0.0813 -0.1750112,0.12678 -0.1019757,0.0455 -0.2370244,0.0455 z m 0,-0.3514 q 0.082685,0 0.1309158,-0.0565 0.049609,-0.0579 0.074414,-0.16398 0.026194,-0.10749 0.033073,-0.25908 0.00688,-0.15296 0.00688,-0.34313 0,-0.0661 -0.00275,-0.1378 -0.00132,-0.073 -0.00966,-0.15021 -0.00826,-0.0786 -0.024791,-0.15159 -0.015161,-0.073 -0.04272,-0.12815 -0.027562,-0.0565 -0.068903,-0.0896 -0.039963,-0.0345 -0.096464,-0.0345 -0.056499,0 -0.096462,0.0345 -0.039963,0.0331 -0.067524,0.0896 -0.026194,0.0551 -0.04272,0.12815 -0.015161,0.073 -0.023416,0.15159 -0.00825,0.0772 -0.011033,0.15021 -0.00132,0.0717 -0.00132,0.1378 0,0.19017 0.00688,0.34313 0.00688,0.15159 0.031694,0.25908 0.024792,0.1061 0.073036,0.16398 0.048231,0.0565 0.1309132,0.0565 z m -0.85852,-0.0896 v 0.38034 l -0.396875,0.0331 v -0.41341 z m -1.9030764,-1.70326 0.4892066,-0.0165 0.2811198,1.46073 0.2935234,-1.44419 0.3982535,-0.0165 -0.5098759,2.11667 H 4.8921659 Z"
       style="font-size:10.6667px;line-height:1.25;font-family:'Francois One';-inkscape-font-specification:'Francois One, Normal';text-align:center;letter-spacing:0px;word-spacing:0px;text-anchor:middle;fill:#ffffff;stroke-width:0.264583" />
    <path
       id="path8185"
       d="m 12.12893,201.89913 h 1.074872 l -0.03307,0.33073 h -0.628391 v 0.50437 h 0.445109 l -0.0013,0.35553 h -0.443753 v 0.59532 h 0.683509 l -0.03307,0.33072 h -1.06385 z m -1.502066,0.33073 0.03307,-0.33073 h 1.240237 l -0.03307,0.33073 h -0.395499 v 1.76941 l -0.413412,0.0331 v -1.80248 z m -1.0045938,1.33257 -0.092329,0.45337 H 9.1620036 l 0.4464871,-2.09186 0.5884223,-0.0248 0.45751,2.10013 -0.45062,0.0165 -0.07855,-0.45338 z m 0.4285718,-0.339 -0.1943045,-1.01286 -0.1598533,1.01286 z m -1.4648601,-0.60634 q -0.0055,-0.04 -0.011033,-0.0868 -0.00413,-0.0482 -0.013785,-0.0965 -0.00826,-0.0496 -0.02204,-0.0951 -0.013785,-0.0455 -0.037206,-0.0799 -0.023416,-0.0358 -0.057878,-0.0565 -0.034451,-0.022 -0.082682,-0.022 -0.055123,0 -0.096464,0.0372 -0.041341,0.0358 -0.071657,0.0965 -0.030316,0.0606 -0.049609,0.14194 -0.019288,0.0799 -0.030319,0.16812 -0.011033,0.0868 -0.016536,0.17777 -0.00413,0.0896 -0.00413,0.1695 0,0.0758 0.00132,0.16123 0.00132,0.0854 0.00826,0.1695 0.00826,0.0841 0.023416,0.16123 0.016536,0.0772 0.046852,0.13643 0.030319,0.0579 0.077171,0.0937 0.046855,0.0345 0.1143767,0.0345 0.055123,0 0.096465,-0.0303 0.04272,-0.0317 0.071657,-0.0868 0.02894,-0.0551 0.04272,-0.13091 0.015161,-0.0758 0.015161,-0.16399 H 8.3805779 l 0.033073,-0.35829 h 0.5746458 v 1.0418 l -0.1584748,0.0165 q -0.00132,-0.006 -0.00688,-0.0262 -0.00413,-0.0207 -0.011033,-0.0482 -0.00688,-0.0289 -0.016536,-0.0634 -0.00826,-0.0345 -0.016536,-0.0703 -0.020664,-0.0827 -0.045477,-0.18466 -0.00966,0.12265 -0.059256,0.21911 -0.020664,0.0413 -0.053742,0.0799 -0.031695,0.0386 -0.07855,0.0703 -0.046852,0.0303 -0.110244,0.0482 -0.063389,0.0193 -0.1460711,0.0193 -0.1116224,0 -0.2011945,-0.0427 -0.088196,-0.0413 -0.1557179,-0.11576 -0.066148,-0.0758 -0.1143793,-0.17914 -0.046852,-0.10473 -0.077168,-0.22738 -0.030319,-0.12402 -0.044098,-0.26183 -0.013785,-0.13918 -0.013785,-0.28387 0,-0.12265 0.015161,-0.25081 0.016536,-0.12815 0.049609,-0.24942 0.034451,-0.12265 0.088194,-0.23014 0.053745,-0.10748 0.1295373,-0.18879 0.077168,-0.0813 0.1777656,-0.12816 0.1005972,-0.0469 0.2273776,-0.0469 0.1612318,0 0.276987,0.062 0.1157552,0.0606 0.1901693,0.16261 0.074414,0.10198 0.1102439,0.23565 0.03583,0.13229 0.03583,0.2756 z M 6.74354,203.61893 v 0.38034 l -0.3968776,0.0331 v -0.41341 z m -0.6132301,-0.32384 q 0,0.14745 -0.037208,0.28663 -0.035827,0.13781 -0.1102413,0.24392 -0.074414,0.10611 -0.187415,0.17087 -0.1129982,0.0634 -0.2659618,0.0634 -0.1322916,0 -0.2342673,-0.0469 -0.1005973,-0.0482 -0.1736328,-0.13092 -0.073036,-0.084 -0.122645,-0.1943 -0.048234,-0.11162 -0.077171,-0.2384 -0.02894,-0.12816 -0.041341,-0.26458 -0.012409,-0.13781 -0.012409,-0.27148 0,-0.11851 0.015161,-0.24253 0.015161,-0.1254 0.048233,-0.24254 0.033073,-0.11851 0.085437,-0.22186 0.053745,-0.10473 0.1281589,-0.18191 0.074414,-0.0785 0.1722543,-0.12402 0.097843,-0.0455 0.2218664,-0.0455 0.1391814,0 0.2480469,0.0675 0.1102439,0.0661 0.184658,0.17501 0.075792,0.10749 0.1157552,0.24391 0.039963,0.13643 0.039963,0.27699 l -0.3996319,0.0207 q 0,-0.011 -0.00132,-0.0482 -0.00132,-0.0386 -0.00826,-0.0882 -0.00688,-0.051 -0.020664,-0.10611 -0.012409,-0.0565 -0.03583,-0.10335 -0.023416,-0.0469 -0.059256,-0.0772 -0.035827,-0.0303 -0.086815,-0.0303 -0.049609,0 -0.086818,0.0331 -0.03583,0.0317 -0.062013,0.0868 -0.026167,0.0537 -0.042717,0.12678 -0.016536,0.073 -0.026194,0.15434 -0.00966,0.0799 -0.013785,0.16399 -0.00275,0.0841 -0.00275,0.16261 0,0.0992 0.00275,0.19706 0.00413,0.0978 0.015161,0.18603 0.011033,0.0882 0.028937,0.16399 0.019288,0.0744 0.049609,0.12953 0.031694,0.0538 0.074414,0.0854 0.044098,0.0303 0.1033542,0.0303 0.064767,0 0.10473,-0.0427 0.041341,-0.0441 0.066146,-0.11024 0.024791,-0.0662 0.03583,-0.14332 0.011033,-0.0786 0.016536,-0.14745 l 0.3514011,0.0331 z m -2.5231963,-1.39596 h 1.0748725 l -0.033073,0.33073 H 4.0205278 v 0.50437 h 0.4451059 l -0.00132,0.35553 h -0.44373 v 0.59532 h 0.6835087 l -0.033073,0.33072 H 3.6071666 Z m -1.5930165,2.13321 v -2.11667 l 0.5016077,-0.0165 q 0.1736328,0 0.3169496,0.0344 0.1433169,0.0331 0.2452926,0.10611 0.1033515,0.0717 0.1584748,0.18328 0.056499,0.11162 0.056499,0.26596 0,0.10336 -0.02204,0.18604 -0.02204,0.0827 -0.06201,0.14745 -0.039963,0.0648 -0.096464,0.11438 -0.055121,0.0496 -0.1226449,0.0882 0,0.001 0.016536,0.0413 0.016536,0.04 0.04272,0.10474 0.027562,0.0648 0.060635,0.14745 0.034451,0.0827 0.070279,0.16812 0.084061,0.20119 0.1915477,0.45613 l -0.4065217,0.11024 -0.3775842,-0.96463 H 2.4261433 v 0.91089 z m 0.4120356,-1.24988 h 0.1405599 q 0.06201,0 0.1185122,-0.01 0.056499,-0.011 0.099219,-0.0413 0.044096,-0.0317 0.0689,-0.0882 0.026194,-0.0565 0.026194,-0.15021 0,-0.0744 -0.020664,-0.12402 -0.019288,-0.051 -0.055123,-0.0813 -0.034451,-0.0317 -0.082682,-0.0441 -0.046852,-0.0138 -0.1019757,-0.0138 H 2.4261485 Z"
       style="font-size:10.6667px;line-height:1.25;font-family:'Francois One';-inkscape-font-specification:'Francois One, Normal';text-align:center;letter-spacing:0px;word-spacing:0px;text-anchor:middle;fill:#1a1a1a;stroke-width:0.264583" />
    <path
       id="path8196"
       d="m 9.8496738,247.41357 v -2.11667 l 0.5016082,-0.0165 q 0.173632,0 0.316949,0.0345 0.143317,0.0331 0.245293,0.10611 0.103351,0.0717 0.158475,0.18328 0.0565,0.11162 0.0565,0.26596 0,0.10336 -0.02204,0.18604 -0.02204,0.0827 -0.06201,0.14745 -0.03996,0.0648 -0.09646,0.11438 -0.05512,0.0496 -0.122648,0.0882 0,0.001 0.01654,0.0413 0.01654,0.04 0.04272,0.10474 0.02756,0.0648 0.06063,0.14745 0.03445,0.0827 0.07028,0.16812 0.08406,0.20119 0.191548,0.45613 l -0.406523,0.11018 -0.377584,-0.96463 h -0.16123 v 0.91089 z m 0.4120352,-1.24988 h 0.14056 q 0.06201,0 0.118513,-0.01 0.0565,-0.011 0.09922,-0.0413 0.0441,-0.0317 0.0689,-0.0882 0.02619,-0.0565 0.02619,-0.15021 0,-0.0744 -0.02066,-0.12402 -0.01929,-0.051 -0.05512,-0.0813 -0.03445,-0.0317 -0.08268,-0.0441 -0.04685,-0.0138 -0.101974,-0.0138 h -0.192927 z m -1.6729441,0.77997 -0.092329,0.45337 H 8.1284984 l 0.446487,-2.09186 0.5884228,-0.0248 0.4575096,2.10013 -0.4506199,0.0165 -0.078547,-0.45338 z m 0.4285721,-0.339 -0.1943047,-1.01286 -0.1598533,1.01286 z m -2.0891129,-1.3243 h 1.0748725 l -0.033073,0.33073 h -0.628388 v 0.50437 h 0.4451086 l -0.00132,0.35553 h -0.44373 v 0.59532 h 0.6835056 l -0.033073,0.33072 H 6.9282796 Z m -0.9274227,0 v 1.78595 H 6.717383 l -0.066146,0.33072 H 5.5887658 v -2.08359 z m -0.7055591,1.39596 q 0,0.14745 -0.037206,0.28663 -0.03583,0.13781 -0.1102439,0.24392 -0.074414,0.10611 -0.187415,0.17087 -0.1129982,0.0634 -0.2659618,0.0634 -0.1322917,0 -0.2342674,-0.0469 -0.1005972,-0.0482 -0.1736328,-0.13092 -0.073036,-0.084 -0.1226449,-0.1943 -0.048231,-0.11162 -0.077171,-0.2384 -0.02894,-0.12816 -0.041341,-0.26458 -0.012409,-0.13781 -0.012409,-0.27148 0,-0.11851 0.015161,-0.24253 0.015161,-0.1254 0.048231,-0.24254 0.033073,-0.11851 0.085439,-0.22186 0.053742,-0.10473 0.1281562,-0.18191 0.074414,-0.0785 0.172257,-0.12402 0.09784,-0.0455 0.2218637,-0.0455 0.1391814,0 0.2480469,0.0675 0.1102439,0.0661 0.184658,0.17501 0.075792,0.10749 0.1157552,0.24391 0.039965,0.13643 0.039965,0.27699 l -0.3996346,0.0207 q 0,-0.011 -0.00132,-0.0482 -0.00132,-0.0386 -0.00826,-0.0882 -0.00688,-0.051 -0.020664,-0.10611 -0.012409,-0.0565 -0.03583,-0.10335 -0.023416,-0.0469 -0.059256,-0.0772 -0.035827,-0.0303 -0.086815,-0.0303 -0.049609,0 -0.086818,0.0331 -0.035827,0.0317 -0.06201,0.0868 -0.026194,0.0537 -0.04272,0.12678 -0.016536,0.073 -0.026194,0.15434 -0.00966,0.0799 -0.013785,0.16399 -0.00275,0.0841 -0.00275,0.16261 0,0.0992 0.00275,0.19706 0.00413,0.0978 0.015161,0.18603 0.011033,0.0882 0.028938,0.16399 0.019288,0.0744 0.049609,0.12953 0.031697,0.0538 0.074414,0.0854 0.044098,0.0303 0.1033541,0.0303 0.064767,0 0.1047327,-0.0427 0.041341,-0.0441 0.066146,-0.11024 0.024792,-0.0661 0.035827,-0.14332 0.011033,-0.0786 0.016536,-0.14745 l 0.3514011,0.0331 z"
       style="font-size:10.6667px;line-height:1.25;font-family:'Francois One';-inkscape-font-specification:'Francois One, Normal';text-align:center;letter-spacing:0px;word-spacing:0px;text-anchor:middle;fill:#1a1a1a;stroke-width:0.264583" />
    <path
       id="path8205"
       d="m 24.717563,237.12838 h 1.074872 l -0.03307,0.33073 h -0.628388 v 0.50437 h 0.445109 l -0.0013,0.35553 h -0.44373 v 0.59532 h 0.683508 l -0.03307,0.33072 h -1.063876 z m -0.293524,1.39596 q 0,0.14745 -0.03721,0.28663 -0.03583,0.13781 -0.110242,0.24392 -0.07442,0.10611 -0.187415,0.17087 -0.112998,0.0634 -0.265961,0.0634 -0.132292,0 -0.234268,-0.0469 -0.100597,-0.0482 -0.173633,-0.13092 -0.07304,-0.084 -0.122647,-0.1943 -0.04823,-0.11162 -0.07717,-0.2384 -0.02894,-0.12816 -0.04134,-0.26458 -0.01241,-0.13781 -0.01241,-0.27148 0,-0.11851 0.01516,-0.24253 0.01516,-0.1254 0.04823,-0.24254 0.03308,-0.11851 0.08544,-0.22186 0.05374,-0.10473 0.128159,-0.18191 0.07441,-0.0785 0.172254,-0.12402 0.09784,-0.0455 0.221867,-0.0455 0.139181,0 0.248047,0.0675 0.110244,0.0661 0.184658,0.17501 0.07579,0.10749 0.115755,0.24391 0.03996,0.13643 0.03996,0.27699 l -0.399631,0.0207 q 0,-0.011 -0.0013,-0.0482 -0.0013,-0.0386 -0.0083,-0.0882 -0.0069,-0.051 -0.02066,-0.10611 -0.01241,-0.0565 -0.03583,-0.10335 -0.02342,-0.0469 -0.05926,-0.0772 -0.03583,-0.0303 -0.08682,-0.0303 -0.04961,0 -0.08682,0.0331 -0.03583,0.0317 -0.06201,0.0868 -0.02619,0.0537 -0.04272,0.12678 -0.01654,0.073 -0.02619,0.15434 -0.0097,0.0799 -0.01378,0.16399 -0.0028,0.0841 -0.0028,0.16261 0,0.0992 0.0028,0.19706 0.0041,0.0978 0.01516,0.18603 0.01103,0.0882 0.02894,0.16399 0.01929,0.0744 0.04961,0.12953 0.03169,0.0538 0.07441,0.0854 0.0441,0.0303 0.103354,0.0303 0.06477,0 0.10473,-0.0427 0.04134,-0.0441 0.06615,-0.11024 0.02479,-0.0661 0.03583,-0.14332 0.01103,-0.0786 0.01654,-0.14745 l 0.351401,0.0331 z m -2.524575,-0.58567 v 1.28985 l -0.369316,0.0165 v -2.10013 l 0.431329,-0.0165 0.545703,1.25953 v -1.22645 l 0.350026,-0.0331 v 2.10014 l -0.339,0.0331 z m -1.339455,1.35048 q -0.135049,0 -0.237025,-0.0455 -0.100597,-0.0455 -0.173633,-0.12678 -0.07303,-0.0813 -0.11989,-0.19155 -0.04685,-0.11162 -0.07441,-0.24116 -0.02756,-0.13091 -0.03858,-0.27561 -0.01103,-0.14469 -0.01103,-0.29352 0,-0.22324 0.03721,-0.41341 0.03858,-0.19017 0.118509,-0.32522 0.07993,-0.13505 0.202573,-0.20808 0.124024,-0.0744 0.296281,-0.0744 0.172254,0 0.296277,0.0744 0.125402,0.073 0.20533,0.20808 0.0813,0.13505 0.11851,0.32522 0.03859,0.19017 0.03859,0.41341 0,0.14883 -0.01103,0.29352 -0.01103,0.1447 -0.03996,0.27561 -0.02756,0.12954 -0.07579,0.24116 -0.04685,0.11024 -0.11989,0.19155 -0.07304,0.0813 -0.175012,0.12678 -0.101975,0.0455 -0.237021,0.0455 z m 0,-0.3514 q 0.08268,0 0.130913,-0.0565 0.04961,-0.0579 0.07441,-0.16398 0.02619,-0.10749 0.03307,-0.25908 0.0069,-0.15296 0.0069,-0.34313 0,-0.0661 -0.0028,-0.1378 -0.0013,-0.073 -0.0097,-0.15021 -0.0083,-0.0786 -0.02479,-0.15159 -0.01516,-0.073 -0.04272,-0.12815 -0.02756,-0.0565 -0.0689,-0.0896 -0.03996,-0.0345 -0.09646,-0.0345 -0.0565,0 -0.09646,0.0345 -0.03996,0.0331 -0.06752,0.0896 -0.02619,0.0551 -0.04272,0.12815 -0.01516,0.073 -0.02342,0.15159 -0.0083,0.0772 -0.01103,0.15021 -0.0013,0.0717 -0.0013,0.1378 0,0.19017 0.0069,0.34313 0.0069,0.15159 0.03169,0.25908 0.02479,0.1061 0.07303,0.16398 0.04823,0.0565 0.130916,0.0565 z"
       style="font-size:10.6667px;line-height:1.25;font-family:'Francois One';-inkscape-font-specification:'Francois One, Normal';text-align:center;letter-spacing:0px;word-spacing:0px;text-anchor:middle;fill:#1a1a1a;stroke-width:0.264583" />
    <path
       id="path8229"
       d="m 26.767441,183.71241 v -2.11667 l 0.501608,-0.0165 q 0.173632,0 0.316949,0.0344 0.143317,0.0331 0.24529,0.10611 0.103354,0.0717 0.158475,0.18328 0.0565,0.11162 0.0565,0.26596 0,0.10336 -0.02204,0.18604 -0.02204,0.0827 -0.06201,0.14745 -0.03996,0.0648 -0.09647,0.11438 -0.05512,0.0496 -0.122645,0.0882 0,0.001 0.01654,0.0413 0.01654,0.04 0.04272,0.10474 0.02756,0.0648 0.06063,0.14745 0.03445,0.0827 0.07028,0.16812 0.08406,0.20119 0.191548,0.45613 l -0.406521,0.11024 -0.377585,-0.96463 h -0.161231 v 0.91089 z m 0.412033,-1.24988 h 0.140562 q 0.06201,0 0.11851,-0.01 0.0565,-0.011 0.09922,-0.0413 0.0441,-0.0317 0.0689,-0.0882 0.02619,-0.0565 0.02619,-0.15021 0,-0.0744 -0.02066,-0.12402 -0.01929,-0.051 -0.05512,-0.0813 -0.03445,-0.0317 -0.08268,-0.0441 -0.04685,-0.0138 -0.101976,-0.0138 h -0.192926 z m -1.383554,1.27744 q -0.135046,0 -0.237022,-0.0455 -0.100597,-0.0455 -0.173632,-0.12678 -0.07304,-0.0813 -0.119891,-0.19155 -0.04686,-0.11162 -0.07441,-0.24116 -0.02756,-0.13091 -0.03859,-0.27561 -0.01103,-0.14469 -0.01103,-0.29352 0,-0.22324 0.03721,-0.41341 0.03859,-0.19017 0.118512,-0.32522 0.07993,-0.13505 0.202573,-0.20808 0.124023,-0.0744 0.296277,-0.0744 0.172257,0 0.296281,0.0744 0.125402,0.073 0.205327,0.20808 0.08131,0.13505 0.118512,0.32522 0.03859,0.19017 0.03859,0.41341 0,0.14883 -0.01103,0.29352 -0.01103,0.1447 -0.03996,0.27561 -0.02756,0.12954 -0.07579,0.24116 -0.04686,0.11024 -0.11989,0.19155 -0.07304,0.0813 -0.175012,0.12678 -0.101975,0.0455 -0.237025,0.0455 z m 0,-0.3514 q 0.08268,0 0.130916,-0.0565 0.04961,-0.0579 0.07441,-0.16398 0.02619,-0.10749 0.03307,-0.25908 0.0069,-0.15296 0.0069,-0.34313 0,-0.0661 -0.0028,-0.1378 -0.0013,-0.073 -0.0097,-0.15021 -0.0083,-0.0786 -0.02479,-0.15159 -0.01516,-0.073 -0.04272,-0.12815 -0.02756,-0.0565 -0.0689,-0.0896 -0.03996,-0.0345 -0.09647,-0.0345 -0.0565,0 -0.09646,0.0345 -0.03996,0.0331 -0.06753,0.0896 -0.02619,0.0551 -0.04272,0.12815 -0.01516,0.073 -0.02342,0.15159 -0.0083,0.0772 -0.01103,0.15021 -0.0013,0.0717 -0.0013,0.1378 0,0.19017 0.0069,0.34313 0.0069,0.15159 0.03169,0.25908 0.02479,0.1061 0.07303,0.16398 0.04823,0.0565 0.130913,0.0565 z m -2.057416,-1.47864 0.03307,-0.33073 h 1.240237 l -0.03307,0.33073 h -0.395499 v 1.76941 l -0.413411,0.0331 v -1.80248 z m -0.647681,-0.29765 0.413414,-0.0331 v 2.10014 l -0.413414,0.0331 z m -1.346348,0.77721 v 1.28985 l -0.369314,0.0165 v -2.10013 l 0.431327,-0.0165 0.545705,1.25953 v -1.22645 l 0.350023,-0.0331 v 2.10014 l -0.339,0.0331 z m -1.339456,1.35048 q -0.135049,0 -0.237024,-0.0455 -0.100598,-0.0455 -0.173633,-0.12678 -0.07304,-0.0813 -0.119891,-0.19155 -0.04685,-0.11162 -0.07441,-0.24116 -0.02756,-0.13091 -0.03858,-0.27561 -0.01103,-0.14469 -0.01103,-0.29352 0,-0.22324 0.03721,-0.41341 0.03858,-0.19017 0.118512,-0.32522 0.07993,-0.13505 0.202571,-0.20808 0.124023,-0.0744 0.29628,-0.0744 0.172254,0 0.296278,0.0744 0.125402,0.073 0.20533,0.20808 0.0813,0.13505 0.118512,0.32522 0.03858,0.19017 0.03858,0.41341 0,0.14883 -0.01103,0.29352 -0.01103,0.1447 -0.03996,0.27561 -0.02756,0.12954 -0.07579,0.24116 -0.04685,0.11024 -0.119888,0.19155 -0.07304,0.0813 -0.175014,0.12678 -0.101973,0.0455 -0.237023,0.0455 z m 0,-0.3514 q 0.08268,0 0.130913,-0.0565 0.04961,-0.0579 0.07441,-0.16398 0.02619,-0.10749 0.03307,-0.25908 0.0069,-0.15296 0.0069,-0.34313 0,-0.0661 -0.0028,-0.1378 -0.0013,-0.073 -0.0097,-0.15021 -0.0083,-0.0786 -0.02479,-0.15159 -0.01516,-0.073 -0.04272,-0.12815 -0.02756,-0.0565 -0.0689,-0.0896 -0.03996,-0.0345 -0.09646,-0.0345 -0.0565,0 -0.09646,0.0345 -0.03996,0.0331 -0.06752,0.0896 -0.02619,0.0551 -0.04272,0.12815 -0.01516,0.073 -0.02342,0.15159 -0.0083,0.0772 -0.01103,0.15021 -0.0013,0.0717 -0.0013,0.1378 0,0.19017 0.0069,0.34313 0.0069,0.15159 0.03169,0.25908 0.02479,0.1061 0.07304,0.16398 0.04823,0.0565 0.130913,0.0565 z m -2.468076,-1.26918 v 1.55995 l -0.341754,0.0165 v -2.09737 l 0.604962,-0.0165 0.350022,1.30914 0.336243,-1.26229 0.552596,-0.0331 v 2.0836 l -0.427194,0.0331 v -1.5875 l -0.395499,1.57096 h -0.254936 z"
       style="font-size:10.6667px;line-height:1.25;font-family:'Francois One';-inkscape-font-specification:'Francois One, Normal';text-align:center;letter-spacing:0px;word-spacing:0px;text-anchor:middle;fill:#1a1a1a;stroke-width:0.264583" />
    <path
       id="path8238"
       d="m 24.536376,201.89913 h 1.074872 l -0.03307,0.33073 H 24.94979 v 0.50437 h 0.445109 l -0.0013,0.35553 h -0.44373 v 0.59532 h 0.683508 l -0.03307,0.33072 H 24.53646 Z m -1.502066,0.33073 0.03307,-0.33073 h 1.240239 l -0.03307,0.33073 h -0.395497 v 1.76941 l -0.413414,0.0331 v -1.80248 z m -1.004594,1.33257 -0.09233,0.45337 h -0.367937 l 0.446487,-2.09186 0.588423,-0.0248 0.45751,2.10013 -0.45062,0.0165 -0.07855,-0.45338 z m 0.428572,-0.339 -0.194305,-1.01286 -0.159853,1.01286 z m -1.464861,-0.60634 q -0.0055,-0.04 -0.01103,-0.0868 -0.0041,-0.0482 -0.01378,-0.0965 -0.0083,-0.0496 -0.02204,-0.0951 -0.01379,-0.0455 -0.03721,-0.0799 -0.02341,-0.0358 -0.05788,-0.0565 -0.03445,-0.022 -0.08268,-0.022 -0.05512,0 -0.09646,0.0372 -0.04134,0.0358 -0.07166,0.0965 -0.03032,0.0606 -0.04961,0.14194 -0.01929,0.0799 -0.03032,0.16812 -0.01103,0.0868 -0.01654,0.17777 -0.0041,0.0896 -0.0041,0.1695 0,0.0758 0.0013,0.16123 0.0013,0.0854 0.0083,0.1695 0.0083,0.0841 0.02341,0.16123 0.01654,0.0772 0.04686,0.13643 0.03032,0.0579 0.07717,0.0937 0.04686,0.0345 0.114379,0.0345 0.05512,0 0.09646,-0.0303 0.04272,-0.0317 0.07166,-0.0868 0.02894,-0.0551 0.04272,-0.13091 0.01516,-0.0758 0.01516,-0.16399 h -0.209463 l 0.03307,-0.35829 h 0.574644 v 1.0418 l -0.158475,0.0165 q -0.0013,-0.006 -0.0069,-0.0262 -0.0041,-0.0207 -0.01103,-0.0482 -0.0069,-0.0289 -0.01654,-0.0634 -0.0083,-0.0345 -0.01654,-0.0703 -0.02066,-0.0827 -0.04548,-0.18466 -0.0097,0.12265 -0.05925,0.21911 -0.02066,0.0413 -0.05374,0.0799 -0.03169,0.0386 -0.07855,0.0703 -0.04685,0.0303 -0.110241,0.0482 -0.06339,0.0193 -0.146074,0.0193 -0.111622,0 -0.201194,-0.0427 -0.08819,-0.0413 -0.155718,-0.11576 -0.06615,-0.0758 -0.114377,-0.17914 -0.04686,-0.10473 -0.07717,-0.22738 -0.03032,-0.12402 -0.0441,-0.26183 -0.01378,-0.13918 -0.01378,-0.28387 0,-0.12265 0.01516,-0.25081 0.01654,-0.12815 0.04961,-0.24942 0.03445,-0.12265 0.08819,-0.23014 0.05374,-0.10748 0.129537,-0.18879 0.07717,-0.0813 0.177768,-0.12816 0.100598,-0.0469 0.227375,-0.0469 0.161232,0 0.276987,0.062 0.115756,0.0606 0.19017,0.16261 0.07442,0.10198 0.110244,0.23565 0.03583,0.13229 0.03583,0.2756 z"
       style="font-size:10.6667px;line-height:1.25;font-family:'Francois One';-inkscape-font-specification:'Francois One, Normal';text-align:center;letter-spacing:0px;word-spacing:0px;text-anchor:middle;fill:#1a1a1a;stroke-width:0.264583" />
    <path
       id="path8249"
       d="m 25.850356,215.50024 h -0.396875 v 0.86403 l -0.413414,0.0331 v -2.10013 l 0.413414,-0.0331 v 0.85852 h 0.396875 v -0.82544 l 0.413414,-0.0331 v 2.10014 l -0.413414,0.0331 z m -1.103813,0.15985 q 0,0.14745 -0.03721,0.28663 -0.03583,0.13781 -0.110244,0.24392 -0.07441,0.10611 -0.187415,0.17087 -0.112999,0.0634 -0.265962,0.0634 -0.132292,0 -0.234267,-0.0469 -0.100598,-0.0482 -0.173633,-0.13092 -0.07304,-0.084 -0.122645,-0.1943 -0.04823,-0.11162 -0.07717,-0.2384 -0.02894,-0.12816 -0.04134,-0.26458 -0.01241,-0.13781 -0.01241,-0.27148 0,-0.11851 0.01516,-0.24253 0.01516,-0.1254 0.04823,-0.24254 0.03307,-0.11851 0.08544,-0.22186 0.05374,-0.10473 0.128157,-0.18191 0.07441,-0.0785 0.172257,-0.12402 0.09784,-0.0455 0.221863,-0.0455 0.139182,0 0.248047,0.0675 0.110244,0.0661 0.184658,0.17501 0.07579,0.10749 0.115755,0.24391 0.03997,0.13643 0.03997,0.27699 l -0.399635,0.0207 q 0,-0.011 -0.0013,-0.0482 -0.0013,-0.0386 -0.0083,-0.0882 -0.0069,-0.051 -0.02066,-0.10611 -0.01241,-0.0565 -0.03583,-0.10335 -0.02341,-0.0469 -0.05926,-0.0772 -0.03583,-0.0303 -0.08682,-0.0303 -0.04961,0 -0.08682,0.0331 -0.03583,0.0317 -0.06201,0.0868 -0.02619,0.0537 -0.04272,0.12678 -0.01654,0.073 -0.02619,0.15434 -0.0097,0.0799 -0.01378,0.16399 -0.0028,0.0841 -0.0028,0.16261 0,0.0992 0.0028,0.19706 0.0041,0.0978 0.01516,0.18603 0.01103,0.0882 0.02894,0.16399 0.01929,0.0744 0.04961,0.12953 0.0317,0.0537 0.07441,0.0854 0.0441,0.0303 0.103355,0.0303 0.06477,0 0.104732,-0.0427 0.04134,-0.0441 0.06615,-0.11024 0.02479,-0.0661 0.03583,-0.14332 0.01103,-0.0786 0.01654,-0.14745 l 0.351401,0.0331 z m -2.647219,-1.06523 0.03307,-0.33073 h 1.240239 l -0.03307,0.33073 h -0.395499 v 1.76941 l -0.413411,0.0331 v -1.80248 z m -1.004592,1.33257 -0.09233,0.45337 h -0.367936 l 0.446484,-2.09186 0.588426,-0.0248 0.457509,2.10013 -0.45062,0.0165 -0.07855,-0.45338 z m 0.42857,-0.339 -0.194302,-1.01286 -0.159853,1.01286 z m -1.65503,-1.3243 v 1.78595 h 0.716585 l -0.06615,0.33072 h -1.062472 v -2.08359 z"
       style="font-size:10.6667px;line-height:1.25;font-family:'Francois One';-inkscape-font-specification:'Francois One, Normal';text-align:center;letter-spacing:0px;word-spacing:0px;text-anchor:middle;fill:#1a1a1a;stroke-width:0.264583" />
    <path
       id="path8262"
       d="m 25.809012,263.40493 v 0.38034 l -0.396875,0.0331 v -0.41341 z m -0.613228,-0.32384 q 0,0.14745 -0.03721,0.28663 -0.03583,0.13781 -0.110241,0.24392 -0.07442,0.10611 -0.187415,0.17087 -0.112999,0.0634 -0.265962,0.0634 -0.132292,0 -0.234268,-0.0469 -0.100597,-0.0482 -0.173632,-0.13092 -0.07304,-0.084 -0.122648,-0.1943 -0.04823,-0.11162 -0.07717,-0.2384 -0.02894,-0.12816 -0.04134,-0.26458 -0.01241,-0.13781 -0.01241,-0.27148 0,-0.11851 0.01516,-0.24253 0.01516,-0.1254 0.04823,-0.24254 0.03307,-0.11851 0.08544,-0.22186 0.05374,-0.10473 0.128159,-0.18191 0.07441,-0.0785 0.172255,-0.12402 0.09784,-0.0455 0.221866,-0.0455 0.139181,0 0.248047,0.0675 0.110244,0.0661 0.184658,0.17501 0.07579,0.10749 0.115755,0.24391 0.03996,0.13643 0.03996,0.27699 l -0.399632,0.0207 q 0,-0.011 -0.0013,-0.0482 -0.0013,-0.0386 -0.0083,-0.0882 -0.0069,-0.051 -0.02066,-0.10611 -0.01241,-0.0565 -0.03583,-0.10335 -0.02342,-0.0469 -0.05926,-0.0772 -0.03583,-0.0303 -0.08682,-0.0303 -0.04961,0 -0.08682,0.0331 -0.03583,0.0317 -0.06201,0.0868 -0.02619,0.0537 -0.04272,0.12678 -0.01654,0.073 -0.02617,0.15434 -0.0097,0.0799 -0.01379,0.16399 -0.0028,0.0841 -0.0028,0.16261 0,0.0992 0.0028,0.19706 0.0041,0.0978 0.01516,0.18603 0.01103,0.0882 0.02894,0.16399 0.01929,0.0744 0.04961,0.12953 0.03169,0.0537 0.07441,0.0854 0.0441,0.0303 0.103355,0.0303 0.06477,0 0.10473,-0.0427 0.04134,-0.0441 0.06615,-0.11024 0.02479,-0.0661 0.03583,-0.14332 0.01103,-0.0786 0.01654,-0.14745 l 0.351401,0.0331 z m -1.459346,0.32384 v 0.38034 l -0.396878,0.0331 v -0.41341 z m -1.263666,0.44097 q -0.135049,0 -0.237024,-0.0455 -0.100598,-0.0455 -0.173633,-0.12678 -0.07304,-0.0813 -0.119891,-0.19155 -0.04685,-0.11162 -0.07441,-0.24116 -0.02756,-0.13091 -0.03858,-0.27561 -0.01103,-0.14469 -0.01103,-0.29352 0,-0.22324 0.03721,-0.41341 0.03858,-0.19017 0.118512,-0.32522 0.07993,-0.13505 0.202571,-0.20808 0.124026,-0.0744 0.29628,-0.0744 0.172254,0 0.296278,0.0744 0.125402,0.073 0.20533,0.20808 0.0813,0.13505 0.118512,0.32522 0.03858,0.19017 0.03858,0.41341 0,0.14883 -0.01103,0.29352 -0.01103,0.1447 -0.03996,0.27561 -0.02756,0.12954 -0.07579,0.24116 -0.04685,0.11024 -0.119888,0.19155 -0.07304,0.0813 -0.175012,0.12678 -0.101975,0.0455 -0.237025,0.0455 z m 0,-0.3514 q 0.08268,0 0.130913,-0.0565 0.04961,-0.0579 0.07441,-0.16398 0.02619,-0.10749 0.03307,-0.25908 0.0069,-0.15296 0.0069,-0.34313 0,-0.0661 -0.0028,-0.1378 -0.0013,-0.073 -0.0097,-0.15021 -0.0083,-0.0786 -0.02479,-0.15159 -0.01516,-0.073 -0.04272,-0.12815 -0.02756,-0.0565 -0.0689,-0.0896 -0.03996,-0.0345 -0.09646,-0.0345 -0.0565,0 -0.09647,0.0345 -0.03996,0.0331 -0.06752,0.0896 -0.02619,0.0551 -0.04272,0.12815 -0.01516,0.073 -0.02342,0.15159 -0.0083,0.0772 -0.01103,0.15021 -0.0013,0.0717 -0.0013,0.1378 0,0.19017 0.0069,0.34313 0.0069,0.15159 0.03169,0.25908 0.02479,0.1061 0.07304,0.16398 0.04823,0.0565 0.130913,0.0565 z m -0.85852,-0.0896 v 0.38034 l -0.396878,0.0331 v -0.41341 z m -1.70326,-1.7198 h 1.074872 l -0.03307,0.33073 h -0.628388 v 0.50437 h 0.445109 l -0.0013,0.35553 h -0.44373 v 0.59532 h 0.683508 l -0.03307,0.33072 h -1.063876 z"
       style="font-size:10.6667px;line-height:1.25;font-family:'Francois One';-inkscape-font-specification:'Francois One, Normal';text-align:center;letter-spacing:0px;word-spacing:0px;text-anchor:middle;fill:#ffffff;stroke-width:0.264583" />
    <path
       id="path8281"
       d="m 28.323219,245.28036 h 1.074872 l -0.03307,0.33073 H 28.73663 v 0.50437 h 0.445109 l -0.0013,0.35553 h -0.44373 v 0.59532 h 0.683508 l -0.03307,0.33072 H 28.3233 Z m -1.559947,0 h 0.432705 q 0.417547,0 0.624256,0.26459 0.206705,0.2632 0.206705,0.80202 0,0.13367 -0.01791,0.26458 -0.01791,0.12954 -0.0565,0.24667 -0.03721,0.11576 -0.09646,0.21498 -0.05926,0.0992 -0.143316,0.17087 -0.08406,0.0717 -0.194303,0.113 -0.110243,0.04 -0.249425,0.04 h -0.505743 z m 0.412036,0.33073 v 1.45522 h 0.05926 q 0.07855,0 0.137803,-0.0262 0.05926,-0.0276 0.100597,-0.0744 0.04272,-0.0468 0.0689,-0.10887 0.02756,-0.0634 0.04272,-0.13367 0.01654,-0.0717 0.02204,-0.14745 0.0069,-0.0758 0.0069,-0.1502 0,-0.0675 0,-0.15435 0,-0.0868 -0.0083,-0.17639 -0.0083,-0.0909 -0.03032,-0.17776 -0.02204,-0.0868 -0.06477,-0.15434 -0.04272,-0.0689 -0.113001,-0.11025 -0.0689,-0.0413 -0.173632,-0.0413 z m -1.672944,1.33257 -0.09233,0.45337 h -0.367938 l 0.446487,-2.09186 0.588423,-0.0248 0.457512,2.10013 -0.45062,0.0165 -0.07855,-0.45338 z m 0.428572,-0.339 -0.194305,-1.01286 -0.159853,1.01286 z m -1.925127,-1.3243 h 1.074875 l -0.03307,0.33211 h -0.628388 v 0.55397 h 0.44373 v 0.35141 h -0.44373 v 0.86265 l -0.413414,0.0331 z m -0.680752,0.54433 q -0.02479,-0.0524 -0.04686,-0.0992 -0.02066,-0.0469 -0.04961,-0.0827 -0.02756,-0.0358 -0.06752,-0.0565 -0.03997,-0.0207 -0.101976,-0.0207 -0.04823,0 -0.08544,0.0179 -0.03583,0.0179 -0.05926,0.0482 -0.02342,0.0303 -0.03583,0.0703 -0.01103,0.04 -0.01103,0.0841 0,0.0358 0.01103,0.0675 0.01103,0.0317 0.02894,0.0579 0.01929,0.0262 0.04272,0.0482 0.02341,0.0207 0.04685,0.0344 l 0.341755,0.19982 q 0.121269,0.0689 0.198437,0.14469 0.07717,0.0758 0.119891,0.15021 0.0441,0.0744 0.06063,0.14469 0.01654,0.0689 0.01929,0.12541 0,0.15296 -0.05237,0.27974 -0.05099,0.1254 -0.141938,0.21497 -0.09095,0.0896 -0.214974,0.13918 -0.122648,0.0482 -0.265965,0.0482 -0.132291,0 -0.242535,-0.04 -0.110242,-0.04 -0.197059,-0.11024 -0.08544,-0.0717 -0.148829,-0.16812 -0.06201,-0.0978 -0.100597,-0.21084 l 0.350023,-0.16399 q 0.03032,0.0496 0.06615,0.11024 0.03583,0.0593 0.07993,0.11163 0.0441,0.051 0.100597,0.0854 0.0565,0.0344 0.130916,0.0344 0.03721,0 0.07028,-0.0165 0.03445,-0.0179 0.05926,-0.0469 0.02619,-0.0303 0.04134,-0.0675 0.01654,-0.0386 0.01654,-0.0799 0,-0.0841 -0.04134,-0.14746 -0.03996,-0.0634 -0.09922,-0.10197 l -0.370691,-0.21911 q -0.07717,-0.0441 -0.141939,-0.1006 -0.06339,-0.0565 -0.111622,-0.12402 -0.04685,-0.0689 -0.07304,-0.14745 -0.02619,-0.0786 -0.02619,-0.16812 0,-0.14056 0.04961,-0.25632 0.05099,-0.11713 0.137803,-0.20119 0.0882,-0.0841 0.208084,-0.12954 0.121269,-0.0468 0.261829,-0.0468 0.214974,0 0.367938,0.11024 0.152963,0.10887 0.225999,0.31971 l -0.350023,0.15847 z m -1.504823,0 q -0.02479,-0.0524 -0.04685,-0.0992 -0.02066,-0.0469 -0.04961,-0.0827 -0.02756,-0.0358 -0.06752,-0.0565 -0.03996,-0.0207 -0.101976,-0.0207 -0.04823,0 -0.08544,0.0179 -0.03583,0.0179 -0.05926,0.0482 -0.02342,0.0303 -0.03583,0.0703 -0.01103,0.04 -0.01103,0.0841 0,0.0358 0.01103,0.0675 0.01103,0.0317 0.02894,0.0579 0.01929,0.0262 0.04272,0.0482 0.02341,0.0207 0.04685,0.0344 l 0.341757,0.19982 q 0.121267,0.0689 0.198438,0.14469 0.07717,0.0758 0.119888,0.15021 0.0441,0.0744 0.06063,0.14469 0.01654,0.0689 0.01929,0.12541 0,0.15296 -0.05237,0.27974 -0.05099,0.1254 -0.141938,0.21497 -0.09095,0.0896 -0.214974,0.13918 -0.122645,0.0482 -0.265962,0.0482 -0.132292,0 -0.242536,-0.04 -0.110244,-0.04 -0.197061,-0.11024 -0.08544,-0.0717 -0.148829,-0.16812 -0.06201,-0.0978 -0.100597,-0.21084 l 0.350023,-0.16399 q 0.03032,0.0496 0.06615,0.11024 0.03583,0.0593 0.07993,0.11163 0.0441,0.051 0.100597,0.0854 0.0565,0.0344 0.130913,0.0344 0.03721,0 0.07028,-0.0165 0.03445,-0.0179 0.05926,-0.0469 0.02619,-0.0303 0.04134,-0.0675 0.01654,-0.0386 0.01654,-0.0799 0,-0.0841 -0.04134,-0.14746 -0.03997,-0.0634 -0.09922,-0.10197 l -0.370691,-0.21911 q -0.07717,-0.0441 -0.141939,-0.1006 -0.06339,-0.0565 -0.111622,-0.12402 -0.04685,-0.0689 -0.07304,-0.14745 -0.02619,-0.0786 -0.02619,-0.16812 0,-0.14056 0.04961,-0.25632 0.05099,-0.11713 0.137805,-0.20119 0.08819,-0.0841 0.208085,-0.12954 0.121266,-0.0468 0.261826,-0.0468 0.214977,0 0.367938,0.11024 0.152963,0.10887 0.225999,0.31971 l -0.350023,0.15847 z m -1.794211,1.61644 q -0.135049,0 -0.237024,-0.0455 -0.100598,-0.0455 -0.173633,-0.12678 -0.07304,-0.0813 -0.119888,-0.19155 -0.04686,-0.11162 -0.07442,-0.24116 -0.02756,-0.13091 -0.03858,-0.27561 -0.01103,-0.14469 -0.01103,-0.29352 0,-0.22324 0.03721,-0.41341 0.03858,-0.19017 0.118512,-0.32522 0.07993,-0.13505 0.202573,-0.20808 0.124024,-0.0744 0.296278,-0.0744 0.172254,0 0.296281,0.0744 0.125401,0.073 0.205327,0.20808 0.0813,0.13505 0.118512,0.32522 0.03858,0.19017 0.03858,0.41341 0,0.14883 -0.01103,0.29352 -0.01103,0.1447 -0.03996,0.27561 -0.02756,0.12954 -0.07579,0.24116 -0.04685,0.11024 -0.119888,0.19155 -0.07304,0.0813 -0.175012,0.12678 -0.101975,0.0455 -0.237024,0.0455 z m 0,-0.3514 q 0.08268,0 0.130913,-0.0565 0.04961,-0.0579 0.07441,-0.16398 0.02619,-0.10749 0.03307,-0.25908 0.0069,-0.15296 0.0069,-0.34313 0,-0.0661 -0.0028,-0.1378 -0.0013,-0.073 -0.0097,-0.15021 -0.0083,-0.0786 -0.02479,-0.15159 -0.01516,-0.073 -0.04272,-0.12815 -0.02756,-0.0565 -0.0689,-0.0896 -0.03996,-0.0345 -0.09646,-0.0345 -0.0565,0 -0.09646,0.0345 -0.03997,0.0331 -0.06752,0.0896 -0.02619,0.0551 -0.04272,0.12815 -0.01516,0.073 -0.02342,0.15159 -0.0083,0.0772 -0.01103,0.15021 -0.0013,0.0717 -0.0013,0.1378 0,0.19017 0.0069,0.34313 0.0069,0.15159 0.03169,0.25908 0.02479,0.1061 0.07304,0.16398 0.04823,0.0565 0.130913,0.0565 z m -2.170417,0.32384 v -2.11667 l 0.501608,-0.0165 q 0.173633,0 0.31695,0.0345 0.143316,0.0331 0.245292,0.10611 0.103352,0.0717 0.158475,0.18328 0.0565,0.11162 0.0565,0.26596 0,0.10336 -0.02204,0.18604 -0.02204,0.0827 -0.06201,0.14745 -0.03996,0.0648 -0.09646,0.11438 -0.05512,0.0496 -0.122645,0.0882 0,0.001 0.01654,0.0413 0.01654,0.04 0.04272,0.10474 0.02756,0.0648 0.06063,0.14745 0.03445,0.0827 0.07028,0.16812 0.08406,0.20119 0.191548,0.45613 l -0.406522,0.11024 -0.377584,-0.96463 h -0.16123 v 0.91089 z m 0.412036,-1.24988 h 0.14056 q 0.06201,0 0.118512,-0.01 0.0565,-0.011 0.09922,-0.0413 0.04409,-0.0317 0.0689,-0.0882 0.02619,-0.0565 0.02619,-0.15021 0,-0.0744 -0.02066,-0.12402 -0.01929,-0.051 -0.05512,-0.0813 -0.03445,-0.0317 -0.08268,-0.0441 -0.04685,-0.0138 -0.101976,-0.0138 h -0.192923 z m -0.705559,0.51263 q 0,0.14745 -0.03721,0.28663 -0.03583,0.13781 -0.110244,0.24392 -0.07441,0.10611 -0.187415,0.17087 -0.112998,0.0634 -0.265962,0.0634 -0.132291,0 -0.234267,-0.0469 -0.100597,-0.0482 -0.173633,-0.13092 -0.07304,-0.084 -0.122645,-0.1943 -0.04823,-0.11162 -0.07717,-0.2384 -0.02894,-0.12816 -0.04134,-0.26458 -0.01241,-0.13781 -0.01241,-0.27148 0,-0.11851 0.01516,-0.24253 0.01516,-0.1254 0.04823,-0.24254 0.03307,-0.11851 0.08544,-0.22186 0.05374,-0.10473 0.128159,-0.18191 0.07441,-0.0785 0.172254,-0.12402 0.09784,-0.0455 0.221866,-0.0455 0.139182,0 0.248047,0.0675 0.110244,0.0661 0.184658,0.17501 0.07579,0.10749 0.115756,0.24391 0.03996,0.13643 0.03996,0.27699 l -0.399632,0.0207 q 0,-0.011 -0.0013,-0.0482 -0.0013,-0.0386 -0.0083,-0.0882 -0.0069,-0.051 -0.02066,-0.10611 -0.01241,-0.0565 -0.03583,-0.10335 -0.02342,-0.0469 -0.05926,-0.0772 -0.03583,-0.0303 -0.08682,-0.0303 -0.04961,0 -0.08682,0.0331 -0.03583,0.0317 -0.06201,0.0868 -0.02619,0.0537 -0.04272,0.12678 -0.01654,0.073 -0.02619,0.15434 -0.0097,0.0799 -0.01379,0.16399 -0.0028,0.0841 -0.0028,0.16261 0,0.0992 0.0028,0.19706 0.0041,0.0978 0.01516,0.18603 0.01103,0.0882 0.02894,0.16399 0.01929,0.0744 0.04961,0.12953 0.03169,0.0538 0.07441,0.0854 0.0441,0.0303 0.103354,0.0303 0.06477,0 0.10473,-0.0427 0.04134,-0.0441 0.06615,-0.11024 0.02479,-0.0661 0.03583,-0.14332 0.01103,-0.0786 0.01654,-0.14745 l 0.351401,0.0331 z"
       style="font-size:10.6667px;line-height:1.25;font-family:'Francois One';-inkscape-font-specification:'Francois One, Normal';text-align:center;letter-spacing:0px;word-spacing:0px;text-anchor:middle;fill:#1a1a1a;stroke-width:0.264583" />
    <path
       id="path413"
       d="m 24.444064,224.76344 h 0.264583 q 0.107487,0 0.221867,0.001 0.114376,0.001 0.223242,0.0179 0.110244,0.0152 0.208084,0.0524 0.09922,0.0358 0.172254,0.10749 0.07441,0.0703 0.117134,0.1819 0.0441,0.11025 0.0441,0.27423 0,0.14883 -0.03583,0.25494 -0.03583,0.10473 -0.09784,0.17777 -0.06201,0.0717 -0.144695,0.11437 -0.0813,0.0427 -0.175012,0.0661 -0.0937,0.022 -0.192926,0.0289 -0.09784,0.007 -0.191548,0.007 v 0.8158 l -0.413411,0.0331 z m 0.48645,0.94947 q 0.07166,0 0.135048,-0.0124 0.06477,-0.0138 0.112998,-0.0482 0.04823,-0.0358 0.07579,-0.0978 0.02894,-0.062 0.02894,-0.15847 0,-0.0951 -0.02479,-0.15434 -0.02342,-0.0593 -0.07028,-0.091 -0.04685,-0.0331 -0.114376,-0.0441 -0.06752,-0.0124 -0.154342,-0.0124 h -0.05926 v 0.61874 z m -1.456592,1.2113 q -0.135049,0 -0.237025,-0.0455 -0.100594,-0.0455 -0.173633,-0.12678 -0.07303,-0.0813 -0.119888,-0.19155 -0.04685,-0.11162 -0.07441,-0.24116 -0.02756,-0.13091 -0.03859,-0.27561 -0.01103,-0.14469 -0.01103,-0.29352 0,-0.22324 0.03721,-0.41341 0.03858,-0.19017 0.118512,-0.32522 0.07992,-0.13505 0.202573,-0.20808 0.124023,-0.0744 0.296278,-0.0744 0.172254,0 0.29628,0.0744 0.125402,0.073 0.205327,0.20808 0.0813,0.13505 0.118512,0.32522 0.03858,0.19017 0.03858,0.41341 0,0.14883 -0.01103,0.29352 -0.01103,0.1447 -0.03997,0.27561 -0.02756,0.12954 -0.07579,0.24116 -0.04685,0.11024 -0.119888,0.19155 -0.07304,0.0813 -0.175012,0.12678 -0.101975,0.0455 -0.237024,0.0455 z m 0,-0.3514 q 0.08268,0 0.130913,-0.0565 0.04961,-0.0579 0.07442,-0.16398 0.02619,-0.10749 0.03307,-0.25908 0.0069,-0.15296 0.0069,-0.34313 0,-0.0661 -0.0028,-0.1378 -0.0013,-0.073 -0.0097,-0.15021 -0.0083,-0.0785 -0.02479,-0.15159 -0.01516,-0.073 -0.04272,-0.12815 -0.02756,-0.0565 -0.0689,-0.0896 -0.03997,-0.0345 -0.09646,-0.0345 -0.0565,0 -0.09646,0.0345 -0.03997,0.0331 -0.06752,0.0896 -0.02619,0.0551 -0.04272,0.12815 -0.01516,0.073 -0.02341,0.15159 -0.0083,0.0772 -0.01103,0.15021 -0.0013,0.0717 -0.0013,0.1378 0,0.19017 0.0069,0.34313 0.0069,0.15159 0.0317,0.25908 0.02479,0.1061 0.07303,0.16398 0.04823,0.0565 0.130913,0.0565 z m -1.548919,0.3514 q -0.135049,0 -0.237024,-0.0455 -0.100597,-0.0455 -0.173633,-0.12678 -0.07304,-0.0813 -0.119891,-0.19155 -0.04685,-0.11162 -0.07441,-0.24116 -0.02756,-0.13091 -0.03858,-0.27561 -0.01103,-0.14469 -0.01103,-0.29352 0,-0.22324 0.03721,-0.41341 0.03858,-0.19017 0.11851,-0.32522 0.07993,-0.13505 0.202573,-0.20808 0.124023,-0.0744 0.29628,-0.0744 0.172254,0 0.296278,0.0744 0.125402,0.073 0.20533,0.20808 0.0813,0.13505 0.118509,0.32522 0.03859,0.19017 0.03859,0.41341 0,0.14883 -0.01103,0.29352 -0.01103,0.1447 -0.03996,0.27561 -0.02756,0.12954 -0.07579,0.24116 -0.04685,0.11024 -0.119891,0.19155 -0.07303,0.0813 -0.175011,0.12678 -0.101976,0.0455 -0.237022,0.0455 z m 0,-0.3514 q 0.08268,0 0.130913,-0.0565 0.04961,-0.0579 0.07441,-0.16398 0.02619,-0.10749 0.03307,-0.25908 0.0069,-0.15296 0.0069,-0.34313 0,-0.0661 -0.0028,-0.1378 -0.0013,-0.073 -0.0097,-0.15021 -0.0083,-0.0785 -0.02479,-0.15159 -0.01516,-0.073 -0.04272,-0.12815 -0.02756,-0.0565 -0.0689,-0.0896 -0.03996,-0.0345 -0.09646,-0.0345 -0.0565,0 -0.09646,0.0345 -0.03996,0.0331 -0.06752,0.0896 -0.02619,0.0551 -0.04272,0.12815 -0.01516,0.073 -0.02341,0.15159 -0.0083,0.0772 -0.01103,0.15021 -0.0013,0.0717 -0.0013,0.1378 0,0.19017 0.0069,0.34313 0.0069,0.15159 0.03169,0.25908 0.02479,0.1061 0.07304,0.16398 0.04823,0.0565 0.130916,0.0565 z m -1.488286,-1.80937 v 1.78595 h 0.716581 l -0.06615,0.33072 h -1.062471 v -2.08359 z"
       style="font-size:10.6667px;line-height:1.25;font-family:'Francois One';-inkscape-font-specification:'Francois One, Normal';text-align:center;letter-spacing:0px;word-spacing:0px;text-anchor:middle;fill:#1a1a1a;stroke-width:0.264583" />
  </g>
  <g
     inkscape:groupmode="layer"
     id="layer3"
     inkscape:label="labels_as_text"
     style="display:none"
     sodipodi:insensitive="true">
    <flowRoot
       transform="matrix(0.26458333,0,0,0.26458333,67.127233,20.651272)"
       style="font-style:normal;font-variant:normal;font-weight:normal;font-stretch:normal;font-size:10.6667px;line-height:1.25;font-family:'Francois One';-inkscape-font-specification:'Francois One, Normal';font-variant-ligatures:normal;font-variant-caps:normal;font-variant-numeric:normal;font-feature-settings:normal;text-align:center;letter-spacing:0px;word-spacing:0px;writing-mode:lr-tb;text-anchor:middle;display:inline;fill:#1a1a1a;fill-opacity:1;stroke:none"
       id="flowRoot1479"
       xml:space="preserve"><flowRegion
         style="font-style:normal;font-variant:normal;font-weight:normal;font-stretch:normal;font-size:10.6667px;font-family:'Francois One';-inkscape-font-specification:'Francois One, Normal';font-variant-ligatures:normal;font-variant-caps:normal;font-variant-numeric:normal;font-feature-settings:normal;text-align:center;writing-mode:lr-tb;text-anchor:middle;fill:#1a1a1a;fill-opacity:1"
         id="flowRegion1475"><rect
           style="font-style:normal;font-variant:normal;font-weight:normal;font-stretch:normal;font-size:10.66666698px;font-family:'Francois One';-inkscape-font-specification:'Francois One, Normal';font-variant-ligatures:normal;font-variant-caps:normal;font-variant-numeric:normal;font-feature-settings:normal;text-align:center;writing-mode:lr-tb;text-anchor:middle;fill:#1a1a1a;fill-opacity:1"
           y="122.38205"
           x="-266.81491"
           height="21.499548"
           width="62.844833"
           id="rect1473" /></flowRegion><flowPara
         id="flowPara1477">RESTART</flowPara></flowRoot>
    <flowRoot
       xml:space="preserve"
       id="flowRoot1554"
       style="font-style:normal;font-variant:normal;font-weight:normal;font-stretch:normal;font-size:10.6667px;line-height:1.25;font-family:'Francois One';-inkscape-font-specification:'Francois One, Normal';font-variant-ligatures:normal;font-variant-caps:normal;font-variant-numeric:normal;font-feature-settings:normal;text-align:center;letter-spacing:0px;word-spacing:0px;writing-mode:lr-tb;text-anchor:middle;display:inline;fill:#1a1a1a;fill-opacity:1;stroke:none"
       transform="matrix(0.26458333,0,0,0.26458333,67.540577,-18.613873)"><flowRegion
         id="flowRegion1550"
         style="font-style:normal;font-variant:normal;font-weight:normal;font-stretch:normal;font-size:10.6667px;font-family:'Francois One';-inkscape-font-specification:'Francois One, Normal';font-variant-ligatures:normal;font-variant-caps:normal;font-variant-numeric:normal;font-feature-settings:normal;text-align:center;writing-mode:lr-tb;text-anchor:middle;fill:#1a1a1a;fill-opacity:1"><rect
           id="rect1548"
           width="62.844833"
           height="21.499548"
           x="-266.81491"
           y="122.38205"
           style="font-style:normal;font-variant:normal;font-weight:normal;font-stretch:normal;font-size:10.66666698px;font-family:'Francois One';-inkscape-font-specification:'Francois One, Normal';font-variant-ligatures:normal;font-variant-caps:normal;font-variant-numeric:normal;font-feature-settings:normal;text-align:center;writing-mode:lr-tb;text-anchor:middle;fill:#1a1a1a;fill-opacity:1" /></flowRegion><flowPara
         id="flowPara1552">V.IN</flowPara></flowRoot>
    <flowRoot
       xml:space="preserve"
       id="flowRoot1562"
       style="font-style:normal;font-variant:normal;font-weight:normal;font-stretch:normal;font-size:10.6667px;line-height:1.25;font-family:'Francois One';-inkscape-font-specification:'Francois One, Normal';font-variant-ligatures:normal;font-variant-caps:normal;font-variant-numeric:normal;font-feature-settings:normal;text-align:center;letter-spacing:0px;word-spacing:0px;writing-mode:lr-tb;text-anchor:middle;display:inline;fill:#1a1a1a;fill-opacity:1;stroke:none"
       transform="matrix(0.26458333,0,0,0.26458333,67.21336,58.793586)"><flowRegion
         id="flowRegion1558"
         style="font-style:normal;font-variant:normal;font-weight:normal;font-stretch:normal;font-size:10.6667px;font-family:'Francois One';-inkscape-font-specification:'Francois One, Normal';font-variant-ligatures:normal;font-variant-caps:normal;font-variant-numeric:normal;font-feature-settings:normal;text-align:center;writing-mode:lr-tb;text-anchor:middle;fill:#1a1a1a;fill-opacity:1"><rect
           id="rect1556"
           width="62.844833"
           height="21.499548"
           x="-266.81491"
           y="122.38205"
           style="font-style:normal;font-variant:normal;font-weight:normal;font-stretch:normal;font-size:10.66666698px;font-family:'Francois One';-inkscape-font-specification:'Francois One, Normal';font-variant-ligatures:normal;font-variant-caps:normal;font-variant-numeric:normal;font-feature-settings:normal;text-align:center;writing-mode:lr-tb;text-anchor:middle;fill:#1a1a1a;fill-opacity:1" /></flowRegion><flowPara
         id="flowPara1560">V.OUT</flowPara></flowRoot>
    <flowRoot
       transform="matrix(0.26458333,0,0,0.26458333,67.145148,1.5777039)"
       style="font-style:normal;font-variant:normal;font-weight:normal;font-stretch:normal;font-size:10.6667px;line-height:1.25;font-family:'Francois One';-inkscape-font-specification:'Francois One, Normal';font-variant-ligatures:normal;font-variant-caps:normal;font-variant-numeric:normal;font-feature-settings:normal;text-align:center;letter-spacing:0px;word-spacing:0px;writing-mode:lr-tb;text-anchor:middle;display:inline;fill:#1a1a1a;fill-opacity:1;stroke:none"
       id="flowRoot16023"
       xml:space="preserve"><flowRegion
         style="font-style:normal;font-variant:normal;font-weight:normal;font-stretch:normal;font-size:10.6667px;font-family:'Francois One';-inkscape-font-specification:'Francois One, Normal';font-variant-ligatures:normal;font-variant-caps:normal;font-variant-numeric:normal;font-feature-settings:normal;text-align:center;writing-mode:lr-tb;text-anchor:middle;fill:#1a1a1a;fill-opacity:1"
         id="flowRegion16019"><rect
           style="font-style:normal;font-variant:normal;font-weight:normal;font-stretch:normal;font-size:10.66666698px;font-family:'Francois One';-inkscape-font-specification:'Francois One, Normal';font-variant-ligatures:normal;font-variant-caps:normal;font-variant-numeric:normal;font-feature-settings:normal;text-align:center;writing-mode:lr-tb;text-anchor:middle;fill:#1a1a1a;fill-opacity:1"
           y="122.38205"
           x="-266.81491"
           height="21.499548"
           width="62.844833"
           id="rect16017" /></flowRegion><flowPara
         id="flowPara16021">REC. GATE</flowPara></flowRoot>
    <flowRoot
       transform="matrix(0.26458333,0,0,0.26458333,67.172708,39.724843)"
       style="font-style:normal;font-variant:normal;font-weight:normal;font-stretch:normal;font-size:10.6667px;line-height:1.25;font-family:'Francois One';-inkscape-font-specification:'Francois One, Normal';font-variant-ligatures:normal;font-variant-caps:normal;font-variant-numeric:normal;font-feature-settings:normal;text-align:center;letter-spacing:0px;word-spacing:0px;writing-mode:lr-tb;text-anchor:middle;display:inline;fill:#1a1a1a;fill-opacity:1;stroke:none"
       id="flowRoot280"
       xml:space="preserve"><flowRegion
         style="font-style:normal;font-variant:normal;font-weight:normal;font-stretch:normal;font-size:10.6667px;font-family:'Francois One';-inkscape-font-specification:'Francois One, Normal';font-variant-ligatures:normal;font-variant-caps:normal;font-variant-numeric:normal;font-feature-settings:normal;text-align:center;writing-mode:lr-tb;text-anchor:middle;fill:#1a1a1a;fill-opacity:1"
         id="flowRegion276"><rect
           style="font-style:normal;font-variant:normal;font-weight:normal;font-stretch:normal;font-size:10.66666698px;font-family:'Francois One';-inkscape-font-specification:'Francois One, Normal';font-variant-ligatures:normal;font-variant-caps:normal;font-variant-numeric:normal;font-feature-settings:normal;text-align:center;writing-mode:lr-tb;text-anchor:middle;fill:#1a1a1a;fill-opacity:1"
           y="122.38205"
           x="-266.81491"
           height="21.499548"
           width="62.844833"
           id="rect274" /></flowRegion><flowPara
         id="flowPara278">CLEAR</flowPara></flowRoot>
    <flowRoot
       transform="matrix(0.26458333,0,0,0.26458333,109.5026,25.940527)"
       style="font-style:normal;font-variant:normal;font-weight:normal;font-stretch:normal;font-size:10.6667px;line-height:1.25;font-family:'Francois One';-inkscape-font-specification:'Francois One, Normal';font-variant-ligatures:normal;font-variant-caps:normal;font-variant-numeric:normal;font-feature-settings:normal;text-align:center;letter-spacing:0px;word-spacing:0px;writing-mode:lr-tb;text-anchor:middle;display:inline;fill:#1a1a1a;fill-opacity:1;stroke:none"
       id="flowRoot2819"
       xml:space="preserve"><flowRegion
         style="font-style:normal;font-variant:normal;font-weight:normal;font-stretch:normal;font-size:10.6667px;font-family:'Francois One';-inkscape-font-specification:'Francois One, Normal';font-variant-ligatures:normal;font-variant-caps:normal;font-variant-numeric:normal;font-feature-settings:normal;text-align:center;writing-mode:lr-tb;text-anchor:middle;fill:#1a1a1a;fill-opacity:1"
         id="flowRegion2815"><rect
           style="font-style:normal;font-variant:normal;font-weight:normal;font-stretch:normal;font-size:10.66666698px;font-family:'Francois One';-inkscape-font-specification:'Francois One, Normal';font-variant-ligatures:normal;font-variant-caps:normal;font-variant-numeric:normal;font-feature-settings:normal;text-align:center;writing-mode:lr-tb;text-anchor:middle;fill:#1a1a1a;fill-opacity:1"
           y="122.38205"
           x="-266.81491"
           height="21.499548"
           width="62.844833"
           id="rect2813" /></flowRegion><flowPara
         id="flowPara2817">ONCE</flowPara></flowRoot>
    <flowRoot
       xml:space="preserve"
       id="flowRoot2827"
       style="font-style:normal;font-variant:normal;font-weight:normal;font-stretch:normal;font-size:10.6667px;line-height:1.25;font-family:'Francois One';-inkscape-font-specification:'Francois One, Normal';font-variant-ligatures:normal;font-variant-caps:normal;font-variant-numeric:normal;font-feature-settings:normal;text-align:center;letter-spacing:0px;word-spacing:0px;writing-mode:lr-tb;text-anchor:middle;display:inline;fill:#1a1a1a;fill-opacity:1;stroke:none"
       transform="matrix(0.26458333,0,0,0.26458333,109.45644,15.35237)"><flowRegion
         id="flowRegion2823"
         style="font-style:normal;font-variant:normal;font-weight:normal;font-stretch:normal;font-size:10.6667px;font-family:'Francois One';-inkscape-font-specification:'Francois One, Normal';font-variant-ligatures:normal;font-variant-caps:normal;font-variant-numeric:normal;font-feature-settings:normal;text-align:center;writing-mode:lr-tb;text-anchor:middle;fill:#1a1a1a;fill-opacity:1"><rect
           id="rect2821"
           width="62.844833"
           height="21.499548"
           x="-266.81491"
           y="122.38205"
           style="font-style:normal;font-variant:normal;font-weight:normal;font-stretch:normal;font-size:10.66666698px;font-family:'Francois One';-inkscape-font-specification:'Francois One, Normal';font-variant-ligatures:normal;font-variant-caps:normal;font-variant-numeric:normal;font-feature-settings:normal;text-align:center;writing-mode:lr-tb;text-anchor:middle;fill:#1a1a1a;fill-opacity:1" /></flowRegion><flowPara
         id="flowPara2825">LOOP</flowPara></flowRoot>
    <flowRoot
       transform="matrix(0.26458333,0,0,0.26458333,109.44955,-17.50069)"
       style="font-style:normal;font-variant:normal;font-weight:normal;font-stretch:normal;font-size:10.6667px;line-height:1.25;font-family:'Francois One';-inkscape-font-specification:'Francois One, Normal';font-variant-ligatures:normal;font-variant-caps:normal;font-variant-numeric:normal;font-feature-settings:normal;text-align:center;letter-spacing:0px;word-spacing:0px;writing-mode:lr-tb;text-anchor:middle;display:inline;fill:#1a1a1a;fill-opacity:1;stroke:none"
       id="flowRoot2843"
       xml:space="preserve"><flowRegion
         style="font-style:normal;font-variant:normal;font-weight:normal;font-stretch:normal;font-size:10.6667px;font-family:'Francois One';-inkscape-font-specification:'Francois One, Normal';font-variant-ligatures:normal;font-variant-caps:normal;font-variant-numeric:normal;font-feature-settings:normal;text-align:center;writing-mode:lr-tb;text-anchor:middle;fill:#1a1a1a;fill-opacity:1"
         id="flowRegion2839"><rect
           style="font-style:normal;font-variant:normal;font-weight:normal;font-stretch:normal;font-size:10.66666698px;font-family:'Francois One';-inkscape-font-specification:'Francois One, Normal';font-variant-ligatures:normal;font-variant-caps:normal;font-variant-numeric:normal;font-feature-settings:normal;text-align:center;writing-mode:lr-tb;text-anchor:middle;fill:#1a1a1a;fill-opacity:1"
           y="122.38205"
           x="-266.81491"
           height="21.499548"
           width="62.844833"
           id="rect2837" /></flowRegion><flowPara
         id="flowPara2841">MONITOR</flowPara></flowRoot>
    <flowRoot
       xml:space="preserve"
       id="flowRoot2835"
       style="font-style:normal;font-variant:normal;font-weight:normal;font-stretch:normal;font-size:10.6667px;line-height:1.25;font-family:'Francois One';-inkscape-font-specification:'Francois One, Normal';font-variant-ligatures:normal;font-variant-caps:normal;font-variant-numeric:normal;font-feature-settings:normal;text-align:center;letter-spacing:0px;word-spacing:0px;writing-mode:lr-tb;text-anchor:middle;display:inline;fill:#1a1a1a;fill-opacity:1;stroke:none"
       transform="matrix(0.26458333,0,0,0.26458333,109.45506,-3.7139628)"><flowRegion
         id="flowRegion2831"
         style="font-style:normal;font-variant:normal;font-weight:normal;font-stretch:normal;font-size:10.6667px;font-family:'Francois One';-inkscape-font-specification:'Francois One, Normal';font-variant-ligatures:normal;font-variant-caps:normal;font-variant-numeric:normal;font-feature-settings:normal;text-align:center;writing-mode:lr-tb;text-anchor:middle;fill:#1a1a1a;fill-opacity:1"><rect
           id="rect2829"
           width="62.844833"
           height="21.499548"
           x="-266.81491"
           y="122.38205"
           style="font-style:normal;font-variant:normal;font-weight:normal;font-stretch:normal;font-size:10.66666698px;font-family:'Francois One';-inkscape-font-specification:'Francois One, Normal';font-variant-ligatures:normal;font-variant-caps:normal;font-variant-numeric:normal;font-feature-settings:normal;text-align:center;writing-mode:lr-tb;text-anchor:middle;fill:#1a1a1a;fill-opacity:1" /></flowRegion><flowPara
         id="flowPara2833">GATE</flowPara></flowRoot>
    <flowRoot
       transform="matrix(0.26458333,0,0,0.26458333,109.5274,6.8693706)"
       style="font-style:normal;font-variant:normal;font-weight:normal;font-stretch:normal;font-size:10.6667px;line-height:1.25;font-family:'Francois One';-inkscape-font-specification:'Francois One, Normal';font-variant-ligatures:normal;font-variant-caps:normal;font-variant-numeric:normal;font-feature-settings:normal;text-align:center;letter-spacing:0px;word-spacing:0px;writing-mode:lr-tb;text-anchor:middle;display:inline;fill:#1a1a1a;fill-opacity:1;stroke:none"
       id="flowRoot2851"
       xml:space="preserve"><flowRegion
         style="font-style:normal;font-variant:normal;font-weight:normal;font-stretch:normal;font-size:10.6667px;font-family:'Francois One';-inkscape-font-specification:'Francois One, Normal';font-variant-ligatures:normal;font-variant-caps:normal;font-variant-numeric:normal;font-feature-settings:normal;text-align:center;writing-mode:lr-tb;text-anchor:middle;fill:#1a1a1a;fill-opacity:1"
         id="flowRegion2847"><rect
           style="font-style:normal;font-variant:normal;font-weight:normal;font-stretch:normal;font-size:10.66666698px;font-family:'Francois One';-inkscape-font-specification:'Francois One, Normal';font-variant-ligatures:normal;font-variant-caps:normal;font-variant-numeric:normal;font-feature-settings:normal;text-align:center;writing-mode:lr-tb;text-anchor:middle;fill:#1a1a1a;fill-opacity:1"
           y="122.38205"
           x="-266.81491"
           height="21.499548"
           width="62.844833"
           id="rect2845" /></flowRegion><flowPara
         id="flowPara2849">LATCH</flowPara></flowRoot>
    <flowRoot
       xml:space="preserve"
       id="flowRoot5793"
       style="font-style:normal;font-variant:normal;font-weight:normal;font-stretch:normal;font-size:10.6667px;line-height:1.25;font-family:'Francois One';-inkscape-font-specification:'Francois One, Normal';font-variant-ligatures:normal;font-variant-caps:normal;font-variant-numeric:normal;font-feature-settings:normal;text-align:center;letter-spacing:0px;word-spacing:0px;writing-mode:lr-tb;text-anchor:middle;display:inline;fill:#1a1a1a;fill-opacity:1;stroke:none"
       transform="matrix(0.26458333,0,0,0.26458333,109.49709,58.798409)"><flowRegion
         id="flowRegion5789"
         style="font-style:normal;font-variant:normal;font-weight:normal;font-stretch:normal;font-size:10.6667px;font-family:'Francois One';-inkscape-font-specification:'Francois One, Normal';font-variant-ligatures:normal;font-variant-caps:normal;font-variant-numeric:normal;font-feature-settings:normal;text-align:center;writing-mode:lr-tb;text-anchor:middle;fill:#1a1a1a;fill-opacity:1"><rect
           id="rect5787"
           width="62.844833"
           height="21.499548"
           x="-266.81491"
           y="122.38205"
           style="font-style:normal;font-variant:normal;font-weight:normal;font-stretch:normal;font-size:10.66666698px;font-family:'Francois One';-inkscape-font-specification:'Francois One, Normal';font-variant-ligatures:normal;font-variant-caps:normal;font-variant-numeric:normal;font-feature-settings:normal;text-align:center;writing-mode:lr-tb;text-anchor:middle;fill:#1a1a1a;fill-opacity:1" /></flowRegion><flowPara
         id="flowPara5791">E.O.C.</flowPara></flowRoot>
    <flowRoot
       transform="matrix(0.26458333,0,0,0.26458333,109.50605,39.724843)"
       style="font-style:normal;font-variant:normal;font-weight:normal;font-stretch:normal;font-size:10.6667px;line-height:1.25;font-family:'Francois One';-inkscape-font-specification:'Francois One, Normal';font-variant-ligatures:normal;font-variant-caps:normal;font-variant-numeric:normal;font-feature-settings:normal;text-align:center;letter-spacing:0px;word-spacing:0px;writing-mode:lr-tb;text-anchor:middle;display:inline;fill:#1a1a1a;fill-opacity:1;stroke:none"
       id="flowRoot7041"
       xml:space="preserve"><flowRegion
         style="font-style:normal;font-variant:normal;font-weight:normal;font-stretch:normal;font-size:10.6667px;font-family:'Francois One';-inkscape-font-specification:'Francois One, Normal';font-variant-ligatures:normal;font-variant-caps:normal;font-variant-numeric:normal;font-feature-settings:normal;text-align:center;writing-mode:lr-tb;text-anchor:middle;fill:#1a1a1a;fill-opacity:1"
         id="flowRegion7037"><rect
           style="font-style:normal;font-variant:normal;font-weight:normal;font-stretch:normal;font-size:10.66666698px;font-family:'Francois One';-inkscape-font-specification:'Francois One, Normal';font-variant-ligatures:normal;font-variant-caps:normal;font-variant-numeric:normal;font-feature-settings:normal;text-align:center;writing-mode:lr-tb;text-anchor:middle;fill:#1a1a1a;fill-opacity:1"
           y="122.38205"
           x="-266.81491"
           height="21.499548"
           width="62.844833"
           id="rect7035" /></flowRegion><flowPara
         id="flowPara7039">CROSSFADE</flowPara></flowRoot>
  </g>
  <g
     inkscape:groupmode="layer"
     id="layer2"
     inkscape:label="components"
     style="display:none"
     sodipodi:insensitive="true">
    <circle
       style="display:inline;fill:#ff00ff;stroke:none;stroke-width:0.0498354"
       id="circle1545"
       cx="22.860003"
       cy="107.425"
       r="1.5880001"
       inkscape:label="end of cycle indicator" />
    <circle
       style="display:inline;fill:#0000ff;stroke:none;stroke-width:0.131116"
       id="circle1294"
       cx="22.860003"
       cy="100.499"
       r="4.178"
       inkscape:label="end of cycle pulse" />
    <circle
       style="display:inline;fill:#0000ff;stroke:none;stroke-width:0.131116"
       id="circle1292"
       cx="7.6200008"
       cy="100.499"
       r="4.178"
       inkscape:label="voltage out" />
    <circle
       style="display:inline;fill:#ff0000;stroke:none;stroke-width:0.131116"
       id="circle1290"
       cx="22.860003"
       cy="84.192001"
       r="4.178"
       inkscape:label="crossfade" />
    <circle
       style="display:inline;fill:#00ff00;stroke:none;stroke-width:0.131116"
       id="circle1288"
       cx="7.6200008"
       cy="84.192001"
       r="4.178"
       inkscape:label="clear trigger" />
    <circle
       style="display:inline;fill:#ffff00;stroke:none;stroke-width:0.131116"
       id="circle1286"
       cx="22.860003"
       cy="63.504189"
       r="4.178"
       inkscape:label="loop or once switch" />
    <circle
       style="display:inline;fill:#00ff00;stroke:none;stroke-width:0.131116"
       id="circle1284"
       cx="7.6200008"
       cy="63.504189"
       r="4.178"
       inkscape:label="restart trigger" />
    <circle
       style="display:inline;fill:#ff00ff;stroke:none;stroke-width:0.0498354"
       id="circle1472"
       cx="7.6200008"
       cy="47.566002"
       r="1.5880001"
       inkscape:label="recording indicator" />
    <circle
       style="display:inline;fill:#ffff00;stroke:none;stroke-width:0.131116"
       id="circle1282"
       cx="22.860003"
       cy="40.640003"
       r="4.178"
       inkscape:label="gate or latch switch" />
    <circle
       style="display:inline;fill:#00ff00;stroke:none;stroke-width:0.131116"
       id="circle1280"
       cx="7.6200008"
       cy="40.640003"
       r="4.178"
       inkscape:label="recording gate" />
    <circle
       style="display:inline;fill:#ffff00;stroke:none;stroke-width:0.131116"
       id="circle1278"
       cx="22.860003"
       cy="20.320002"
       r="4.178"
       inkscape:label="monitor toggle button" />
    <circle
       style="display:inline;fill:#00ff00;stroke:none;stroke-width:0.131116"
       id="circle306"
       cx="7.6200008"
       cy="20.320002"
       r="4.178"
       inkscape:label="voltage in" />
  </g>
</svg>
