<?xml version="1.0" encoding="UTF-8" standalone="no"?>
<!-- Created with Inkscape (http://www.inkscape.org/) -->

<svg
   width="25.4mm"
   height="128.5mm"
   viewBox="0 0 25.4 128.50002"
   version="1.1"
   id="svg8"
   inkscape:version="1.1.1 (c3084ef, 2021-09-22)"
   sodipodi:docname="Tie.svg"
   xmlns:inkscape="http://www.inkscape.org/namespaces/inkscape"
   xmlns:sodipodi="http://sodipodi.sourceforge.net/DTD/sodipodi-0.dtd"
   xmlns="http://www.w3.org/2000/svg"
   xmlns:svg="http://www.w3.org/2000/svg"
   xmlns:rdf="http://www.w3.org/1999/02/22-rdf-syntax-ns#"
   xmlns:cc="http://creativecommons.org/ns#"
   xmlns:dc="http://purl.org/dc/elements/1.1/">
  <defs
     id="defs2" />
  <sodipodi:namedview
     id="base"
     pagecolor="#ffffff"
     bordercolor="#666666"
     borderopacity="1.0"
     inkscape:pageopacity="0.0"
     inkscape:pageshadow="2"
     inkscape:zoom="1.445428"
     inkscape:cx="-57.768357"
     inkscape:cy="243.52648"
     inkscape:document-units="mm"
     inkscape:current-layer="layer1"
     showgrid="false"
     units="mm"
     inkscape:window-width="1920"
     inkscape:window-height="1078"
     inkscape:window-x="0"
     inkscape:window-y="25"
     inkscape:window-maximized="1"
     inkscape:pagecheckerboard="false"
     inkscape:showpageshadow="false"
     width="25.5mm" />
  <metadata
     id="metadata5">
    <rdf:RDF>
      <cc:Work
         rdf:about="">
        <dc:format>image/svg+xml</dc:format>
        <dc:type
           rdf:resource="http://purl.org/dc/dcmitype/StillImage" />
      </cc:Work>
    </rdf:RDF>
  </metadata>
  <g
     inkscape:label="panel"
     id="layer1"
     transform="translate(0,-168.49997)"
     style="display:inline"
     inkscape:groupmode="layer">
    <rect
       style="fill:#d5f6ff;fill-opacity:1;stroke:none;stroke-width:0.215123;stroke-linecap:butt;stroke-linejoin:round;stroke-miterlimit:4;stroke-dasharray:none;stroke-dashoffset:0;stroke-opacity:1"
       id="rect2012"
       width="25.4"
       height="128.5"
       x="1.1444095e-07"
       y="168.49997"
       inkscape:label="sky"
       sodipodi:insensitive="true" />
    <path
       style="display:inline;fill:#88aa00;fill-opacity:1;stroke-width:0.29098"
       d="m -7.6293944e-8,259.24136 v 37.75861 H 25.4 V 259.24136 H 12.7 Z"
       id="rect10"
       inkscape:connector-curvature="0"
       inkscape:label="grass"
       sodipodi:nodetypes="cccccc"
       sodipodi:insensitive="true" />
    <path
       style="display:inline;fill:#ffccaa;fill-opacity:1;stroke-width:0.047354"
       d="m -7.6293944e-8,258.24136 v 1 H 25.4 v -1 H 12.7 Z"
       id="path1045"
       inkscape:connector-curvature="0"
       inkscape:label="horizon"
       sodipodi:nodetypes="cccccc"
       sodipodi:insensitive="true" />
    <path
       style="display:inline;fill:#f9f9f9;fill-opacity:1;stroke-width:0.339497"
       d="m 0.07767526,243.58221 c 4.66411194,2.03486 7.94581234,6.61923 8.09976394,11.98738 0.8033072,0.80722 1.4919281,1.7067 2.0603398,2.67167 H 0.07767526 Z"
       id="path1954"
       inkscape:connector-curvature="0"
       inkscape:label="clouds"
       sodipodi:nodetypes="ccccc"
       sodipodi:insensitive="true" />
    <g
       id="g1070"
       transform="matrix(0.05036065,0,0,0.050285,10.541614,274.62361)"
       inkscape:label="agamemnon"
       sodipodi:insensitive="true">
      <path
         style="display:inline;fill:#ff7f2a;fill-opacity:1;stroke:none;stroke-width:8.83189;stroke-miterlimit:4;stroke-dasharray:none;stroke-opacity:1"
         clip-path="none"
         d="m 14.98868,184.77015 c -10.5846059,-8e-5 -19.1651649,8.58046 -19.1650779,19.16509 0.0079,3.46001 0.951431,6.85348 2.731794,9.82029 -14.9807161,9.76853 -31.9787901,24.9568 -31.9787901,45.48078 0,6.29269 0.979801,11.77111 2.754789,16.54138 19.150062,-15.47065 48.908787,-23.91629 73.527186,-23.9312 24.617726,0.0323 54.369866,8.49435 73.508769,23.97777 1.78608,-4.7812 2.77321,-10.27468 2.77321,-16.58795 0,-21.44849 -18.02156,-37.06913 -34.026343,-46.76704 1.32766,-2.6494 2.02282,-5.5706 2.03086,-8.53403 8e-5,-10.58463 -8.58047,-19.16517 -19.16508,-19.16509 -9.398011,0.0114 -17.401104,6.83599 -18.897114,16.11418 -2.106345,-0.17568 -4.186396,-0.26623 -6.224302,-0.26623 -2.904836,0 -5.894371,0.17969 -8.925621,0.53647 -1.378833,-9.40318 -9.440553,-16.37555 -18.94428,-16.38442 z"
         id="path5912"
         inkscape:connector-curvature="0"
         sodipodi:nodetypes="cccscccsccccscc"
         inkscape:label="face-fill" />
      <path
         style="display:inline;fill:#ffccaa;fill-opacity:1;stroke:none;stroke-width:8.83189;stroke-miterlimit:4;stroke-dasharray:none;stroke-opacity:1"
         clip-path="none"
         d="m 42.86291,251.84649 c -23.077107,0.0141 -55.844803,7.43621 -75.63109,21.10856 5.500568,31.33375 44.838064,33.1236 75.63109,33.1236 30.776767,0 70.08909,-1.78809 75.62244,-33.07415 C 98.709807,259.31631 65.942427,251.87678 42.86291,251.84649 Z"
         id="path5958"
         inkscape:connector-curvature="0"
         inkscape:label="chin-fill" />
      <path
         style="display:inline;fill:none;fill-opacity:1;stroke:#000000;stroke-width:8.83189;stroke-miterlimit:4;stroke-dasharray:none;stroke-opacity:1"
         d="m 14.988691,184.77015 c -10.5846169,-8e-5 -19.1651629,8.58046 -19.1650809,19.16509 0.0075,3.46001 0.951415,6.85348 2.731791,9.82029 -14.9807161,9.76853 -31.9787941,30.84472 -31.9787901,51.36871 0,38.87761 43.1020531,40.95441 76.28197,40.95441 33.179926,0 76.281979,-2.07681 76.281979,-40.95441 0,-21.44849 -18.02157,-42.95706 -34.026343,-52.65497 1.32765,-2.6494 2.02282,-5.5706 2.03087,-8.53403 8e-5,-10.58463 -8.58047,-19.16517 -19.16508,-19.16509 -9.398011,0.0114 -17.401114,6.83599 -18.897124,16.11418 -2.106335,-0.17568 -4.186407,-0.26623 -6.224302,-0.26623 -2.904826,0 -5.894358,0.17969 -8.925607,0.53647 -1.378831,-9.40318 -9.440553,-16.37555 -18.944283,-16.38442 z"
         id="circle823"
         inkscape:connector-curvature="0"
         sodipodi:nodetypes="cccsssccccscc"
         inkscape:label="face-outline"
         clip-path="none" />
      <path
         inkscape:connector-curvature="0"
         id="circle827"
         d="m 24.784385,212.00047 c -9.816719,0 -17.1671127,8.99836 -17.1671075,19.238 a 4.4174759,4.4174759 0 1 0 8.8349515,0 c 0,-6.13364 4.064092,-10.41027 8.332156,-10.41027 a 4.4163852,4.4163852 0 1 0 0,-8.82773 z m 36.140198,0 a 4.4163852,4.4163852 0 1 0 0,8.82773 c 4.268069,0 8.342411,4.27663 8.342411,10.41027 a 4.4163852,4.4163852 0 1 0 8.824696,0 c 0,-10.23964 -7.350388,-19.238 -17.167107,-19.238 z"
         style="color:#000000;font-style:normal;font-variant:normal;font-weight:normal;font-stretch:normal;font-size:medium;line-height:normal;font-family:sans-serif;font-variant-ligatures:normal;font-variant-position:normal;font-variant-caps:normal;font-variant-numeric:normal;font-variant-alternates:normal;font-feature-settings:normal;text-indent:0;text-align:start;text-decoration:none;text-decoration-line:none;text-decoration-style:solid;text-decoration-color:#000000;letter-spacing:normal;word-spacing:normal;text-transform:none;writing-mode:lr-tb;direction:ltr;text-orientation:mixed;dominant-baseline:auto;baseline-shift:baseline;text-anchor:start;white-space:normal;shape-padding:0;clip-rule:nonzero;display:inline;overflow:visible;visibility:visible;opacity:1;isolation:auto;mix-blend-mode:normal;color-interpolation:sRGB;color-interpolation-filters:linearRGB;solid-color:#000000;solid-opacity:1;vector-effect:none;fill:#000000;fill-opacity:1;fill-rule:nonzero;stroke:none;stroke-width:8.83189;stroke-linecap:round;stroke-linejoin:miter;stroke-miterlimit:4;stroke-dasharray:none;stroke-dashoffset:0;stroke-opacity:1;color-rendering:auto;image-rendering:auto;shape-rendering:auto;text-rendering:auto;enable-background:accumulate"
         inkscape:label="eyes" />
      <path
         style="display:inline;fill:#a05a2c;fill-opacity:1;stroke:#000000;stroke-width:8.83189;stroke-linecap:round;stroke-miterlimit:4;stroke-dasharray:none;stroke-opacity:1"
         d="m 30.887331,234.58286 c 3.054125,-6.45051 20.88837,-6.45051 23.942506,0 2.159598,4.5612 -6.32795,10.47298 -11.971256,10.47298 -5.643303,0 -14.130848,-5.91178 -11.97125,-10.47298 z"
         id="rect915"
         inkscape:connector-curvature="0"
         sodipodi:nodetypes="ssss"
         inkscape:label="nose" />
      <g
         id="g5916"
         transform="matrix(1.1126787,0,0,1.1126787,-73.97268,144.9571)"
         style="display:inline"
         inkscape:label="chortle">
        <path
           sodipodi:nodetypes="sssssss"
           inkscape:connector-curvature="0"
           id="path4617"
           d="m 126.18104,108.45957 c 0,5.84898 1.06881,13.12862 -4.08712,17.35851 -5.15593,4.22989 -11.24494,8.58503 -17.09392,8.58503 -5.848979,0 -11.937986,-4.35514 -17.093916,-8.58503 -5.155929,-4.22989 -4.087114,-11.50953 -4.087114,-17.35851 0,-11.697983 9.483071,1.5731 21.18103,1.5731 11.69796,0 21.18104,-13.271113 21.18104,-1.5731 z"
           style="display:inline;fill:#ffffff;fill-opacity:1;stroke:#000000;stroke-width:7.9375;stroke-linecap:round;stroke-miterlimit:4;stroke-dasharray:none;stroke-opacity:1"
           inkscape:label="mouth" />
        <path
           sodipodi:nodetypes="cc"
           inkscape:connector-curvature="0"
           id="path4609"
           d="m 105,111.77529 v 19.86999"
           style="display:inline;fill:none;stroke:#000000;stroke-width:7.9375;stroke-linecap:round;stroke-linejoin:miter;stroke-miterlimit:4;stroke-dasharray:none;stroke-opacity:1"
           inkscape:label="tooth-gap" />
      </g>
    </g>
    <path
       style="font-style:normal;font-variant:normal;font-weight:normal;font-stretch:normal;font-size:10.6667px;line-height:1.25;font-family:'Francois One';-inkscape-font-specification:'Francois One, Normal';font-variant-ligatures:normal;font-variant-caps:normal;font-variant-numeric:normal;font-feature-settings:normal;text-align:center;letter-spacing:0px;word-spacing:0px;writing-mode:lr-tb;text-anchor:middle;fill:#f9f9f9;fill-opacity:1;stroke:none;stroke-width:0.265762"
       inkscape:connector-curvature="0"
       id="path258"
       d="m 12.23284,261.5674 c -0.115347,0 -0.214375,0.0249 -0.297425,0.0747 -0.08212,0.0489 -0.149951,0.11823 -0.203474,0.20867 -0.05352,0.0904 -0.09303,0.19966 -0.118867,0.32701 -0.02491,0.12734 -0.03738,0.26576 -0.03738,0.41525 0,0.0996 0.0035,0.19794 0.0109,0.29483 0.0074,0.0969 0.02047,0.189 0.03893,0.27666 0.01846,0.0868 0.04337,0.16766 0.07474,0.24241 0.03138,0.0738 0.07152,0.13761 0.120424,0.19205 0.04891,0.0544 0.107043,0.0972 0.174406,0.12769 0.06828,0.0304 0.147299,0.0457 0.237732,0.0457 0.09043,0 0.169967,-0.0153 0.238252,-0.0457 0.06828,-0.0304 0.127056,-0.0732 0.175963,-0.12769 0.04891,-0.0544 0.08905,-0.11823 0.120425,-0.19205 0.03229,-0.0747 0.05732,-0.15566 0.07579,-0.24241 0.01937,-0.0877 0.0331,-0.17977 0.04049,-0.27666 0.0074,-0.0969 0.0109,-0.19517 0.0109,-0.29483 0,-0.14949 -0.01309,-0.28791 -0.03893,-0.41525 -0.02492,-0.12735 -0.06443,-0.23658 -0.118866,-0.32701 -0.05352,-0.0904 -0.122096,-0.15976 -0.20607,-0.20867 -0.08305,-0.0498 -0.182596,-0.0747 -0.297944,-0.0747 z m -2.2823359,0.0342 -0.491556,0.0166 0.5014183,2.10948 h 0.4552216 l 0.512318,-2.1261 -0.4002,0.0166 -0.294829,1.45078 z m 3.6599379,0 -0.415252,0.0166 v 1.40926 c 0,0.0996 0.01119,0.19453 0.03426,0.28497 0.02307,0.0904 0.05894,0.16995 0.106927,0.23825 0.04891,0.0674 0.109926,0.12134 0.18375,0.16195 0.07475,0.0397 0.163333,0.0597 0.265762,0.0597 0.109812,0 0.202435,-0.0139 0.277182,-0.0415 0.07567,-0.0277 0.137322,-0.0643 0.185306,-0.10953 0.04891,-0.0452 0.08628,-0.0964 0.112119,-0.15364 0.02584,-0.0582 0.04447,-0.11628 0.05554,-0.17442 0.01199,-0.0591 0.01892,-0.1158 0.02076,-0.17024 0.0018,-0.0554 0.0026,-0.10319 0.0026,-0.14379 v -1.3776 l -0.380476,0.0332 v 1.42173 c 0,0.0415 -0.0014,0.0838 -0.0041,0.12717 -0.0018,0.0425 -0.01004,0.0812 -0.02388,0.11626 -0.01384,0.0351 -0.03536,0.064 -0.06489,0.0862 -0.02861,0.0221 -0.0695,0.0332 -0.123019,0.0332 -0.05721,0 -0.101505,-0.0109 -0.132881,-0.0321 -0.03045,-0.0221 -0.05388,-0.0499 -0.06956,-0.0841 -0.01478,-0.0342 -0.02319,-0.0728 -0.02595,-0.11523 -0.0028,-0.0425 -0.0041,-0.0848 -0.0041,-0.12718 z m 1.08485,0 -0.03322,0.33221 h 0.433421 v 1.8105 l 0.415253,-0.0332 v -1.77728 h 0.397086 l 0.03322,-0.33221 z m -2.462452,0.29639 c 0.03784,0 0.0703,0.0118 0.09707,0.0348 0.02768,0.0221 0.05057,0.0519 0.06904,0.0898 0.01845,0.0369 0.03293,0.0799 0.04308,0.12872 0.01108,0.0489 0.01939,0.0995 0.02491,0.15208 0.0056,0.0517 0.0089,0.10215 0.0098,0.15105 0.0018,0.048 0.0026,0.0943 0.0026,0.1386 0,0.12734 -0.0021,0.24223 -0.0067,0.34466 -0.0046,0.10151 -0.01568,0.18807 -0.03322,0.26005 -0.01661,0.071 -0.04153,0.12579 -0.07474,0.16454 -0.03229,0.0379 -0.07648,0.0571 -0.131843,0.0571 -0.05537,0 -0.09903,-0.0193 -0.131324,-0.0571 -0.0323,-0.0388 -0.05659,-0.0935 -0.07318,-0.16454 -0.01661,-0.072 -0.02757,-0.15854 -0.03218,-0.26005 -0.0046,-0.10243 -0.0067,-0.21732 -0.0067,-0.34466 0,-0.0443 6.65e-4,-0.0906 0.0016,-0.1386 0.0018,-0.0489 0.0053,-0.0993 0.0109,-0.15105 0.0055,-0.0526 0.01321,-0.10316 0.02335,-0.15208 0.01107,-0.0489 0.02554,-0.0918 0.04308,-0.12872 0.01846,-0.0379 0.04123,-0.0677 0.068,-0.0898 0.02676,-0.0231 0.05871,-0.0348 0.09655,-0.0348 z m -1.260812,1.43106 v 0.41526 l 0.398643,-0.0332 v -0.38204 z"
       inkscape:label="label_voltage_out" />
    <path
       id="path3264"
       d="m 18.159806,243.80368 h 1.074872 l -0.03307,0.33073 H 18.57322 v 0.50437 h 0.445109 l -0.0013,0.35553 h -0.44373 v 0.59532 h 0.683508 l -0.03307,0.33072 H 18.15989 Z m -1.559947,0 h 0.432705 q 0.417547,0 0.624256,0.26459 0.206705,0.2632 0.206705,0.80202 0,0.13367 -0.01791,0.26458 -0.01791,0.12954 -0.0565,0.24667 -0.03721,0.11576 -0.09647,0.21498 -0.05926,0.0992 -0.143316,0.17087 -0.08406,0.0717 -0.194303,0.113 -0.110243,0.04 -0.249425,0.04 h -0.505743 z m 0.412036,0.33073 v 1.45522 h 0.05926 q 0.07855,0 0.137803,-0.0262 0.05926,-0.0276 0.100597,-0.0744 0.04272,-0.0469 0.0689,-0.10887 0.02756,-0.0634 0.04272,-0.13367 0.01654,-0.0717 0.02204,-0.14745 0.0069,-0.0758 0.0069,-0.1502 0,-0.0675 0,-0.15435 0,-0.0868 -0.0083,-0.17639 -0.0083,-0.0909 -0.03032,-0.17776 -0.02204,-0.0868 -0.06477,-0.15434 -0.04272,-0.0689 -0.113001,-0.11025 -0.0689,-0.0413 -0.173632,-0.0413 z m -1.672944,1.33257 -0.09233,0.45337 h -0.367938 l 0.446487,-2.09186 0.588423,-0.0248 0.457512,2.10013 -0.45062,0.0165 -0.07855,-0.45338 z m 0.428572,-0.339 -0.194305,-1.01286 -0.159853,1.01286 z m -1.925127,-1.3243 h 1.074875 l -0.03307,0.33211 H 14.25581 v 0.55397 h 0.44373 v 0.35141 h -0.44373 v 0.86265 l -0.413414,0.0331 z m -0.680752,0.54433 q -0.02479,-0.0524 -0.04686,-0.0992 -0.02066,-0.0469 -0.04961,-0.0827 -0.02756,-0.0358 -0.06752,-0.0565 -0.03996,-0.0207 -0.101976,-0.0207 -0.04823,0 -0.08544,0.0179 -0.03583,0.0179 -0.05926,0.0482 -0.02342,0.0303 -0.03583,0.0703 -0.01103,0.04 -0.01103,0.0841 0,0.0358 0.01103,0.0675 0.01103,0.0317 0.02894,0.0579 0.01929,0.0262 0.04272,0.0482 0.02341,0.0207 0.04685,0.0344 l 0.341755,0.19982 q 0.121269,0.0689 0.198437,0.14469 0.07717,0.0758 0.119891,0.15021 0.0441,0.0744 0.06063,0.14469 0.01654,0.0689 0.01929,0.12541 0,0.15296 -0.05237,0.27974 -0.05099,0.1254 -0.141938,0.21497 -0.09095,0.0896 -0.214974,0.13918 -0.122648,0.0482 -0.265965,0.0482 -0.132291,0 -0.242535,-0.04 -0.110242,-0.04 -0.197059,-0.11024 -0.08544,-0.0717 -0.148829,-0.16812 -0.06201,-0.0978 -0.100597,-0.21084 l 0.350023,-0.16399 q 0.03032,0.0496 0.06615,0.11024 0.03583,0.0593 0.07993,0.11163 0.0441,0.051 0.100597,0.0854 0.0565,0.0344 0.130916,0.0344 0.03721,0 0.07028,-0.0165 0.03445,-0.0179 0.05926,-0.0469 0.02619,-0.0303 0.04134,-0.0675 0.01654,-0.0386 0.01654,-0.0799 0,-0.0841 -0.04134,-0.14746 -0.03996,-0.0634 -0.09922,-0.10197 l -0.370691,-0.21911 q -0.07717,-0.0441 -0.141939,-0.1006 -0.06339,-0.0565 -0.111622,-0.12402 -0.04685,-0.0689 -0.07304,-0.14745 -0.02619,-0.0786 -0.02619,-0.16812 0,-0.14056 0.04961,-0.25632 0.05099,-0.11713 0.137803,-0.20119 0.0882,-0.0841 0.208084,-0.12954 0.121269,-0.0469 0.261829,-0.0469 0.214974,0 0.367938,0.11024 0.152963,0.10887 0.225999,0.31971 l -0.350023,0.15847 z m -1.504823,0 q -0.02479,-0.0524 -0.04685,-0.0992 -0.02066,-0.0469 -0.04961,-0.0827 -0.02756,-0.0358 -0.06752,-0.0565 -0.03996,-0.0207 -0.101976,-0.0207 -0.04823,0 -0.08544,0.0179 -0.03583,0.0179 -0.05926,0.0482 -0.02342,0.0303 -0.03583,0.0703 -0.01103,0.04 -0.01103,0.0841 0,0.0358 0.01103,0.0675 0.01103,0.0317 0.02894,0.0579 0.01929,0.0262 0.04272,0.0482 0.02341,0.0207 0.04685,0.0344 l 0.341757,0.19982 q 0.121267,0.0689 0.198438,0.14469 0.07717,0.0758 0.119888,0.15021 0.0441,0.0744 0.06063,0.14469 0.01654,0.0689 0.01929,0.12541 0,0.15296 -0.05237,0.27974 -0.05099,0.1254 -0.141938,0.21497 -0.09095,0.0896 -0.214974,0.13918 -0.122645,0.0482 -0.265962,0.0482 -0.132292,0 -0.242536,-0.04 -0.110244,-0.04 -0.197061,-0.11024 -0.08544,-0.0717 -0.148829,-0.16812 -0.06201,-0.0978 -0.100597,-0.21084 l 0.350023,-0.16399 q 0.03032,0.0496 0.06615,0.11024 0.03583,0.0593 0.07993,0.11163 0.0441,0.051 0.100597,0.0854 0.0565,0.0344 0.130913,0.0344 0.03721,0 0.07028,-0.0165 0.03445,-0.0179 0.05926,-0.0469 0.02619,-0.0303 0.04134,-0.0675 0.01654,-0.0386 0.01654,-0.0799 0,-0.0841 -0.04134,-0.14746 -0.03997,-0.0634 -0.09922,-0.10197 l -0.370691,-0.21911 q -0.07717,-0.0441 -0.141939,-0.1006 -0.06339,-0.0565 -0.111622,-0.12402 -0.04685,-0.0689 -0.07304,-0.14745 -0.02619,-0.0786 -0.02619,-0.16812 0,-0.14056 0.04961,-0.25632 0.05099,-0.11713 0.137805,-0.20119 0.08819,-0.0841 0.208085,-0.12954 0.121266,-0.0469 0.261826,-0.0469 0.214977,0 0.367938,0.11024 0.152963,0.10887 0.225999,0.31971 l -0.350023,0.15847 z m -1.794211,1.61644 q -0.1350486,0 -0.2370243,-0.0455 -0.1005972,-0.0455 -0.1736328,-0.12678 -0.073036,-0.0813 -0.119888,-0.19155 -0.046855,-0.11162 -0.074417,-0.24116 -0.027559,-0.13091 -0.038584,-0.27561 -0.011033,-0.14469 -0.011033,-0.29352 0,-0.22324 0.037208,-0.41341 0.038584,-0.19017 0.1185122,-0.32522 0.079925,-0.13505 0.2025729,-0.20808 0.1240235,-0.0744 0.2962778,-0.0744 0.1722542,0 0.2962812,0.0744 0.125401,0.073 0.205327,0.20808 0.0813,0.13505 0.118512,0.32522 0.03858,0.19017 0.03858,0.41341 0,0.14883 -0.01103,0.29352 -0.01103,0.1447 -0.03996,0.27561 -0.02756,0.12954 -0.07579,0.24116 -0.04685,0.11024 -0.119888,0.19155 -0.07304,0.0813 -0.175012,0.12678 -0.1019755,0.0455 -0.2370241,0.0455 z m 0,-0.3514 q 0.082682,0 0.1309132,-0.0565 0.04961,-0.0579 0.074414,-0.16398 0.02619,-0.10749 0.03307,-0.25908 0.0069,-0.15296 0.0069,-0.34313 0,-0.0661 -0.0028,-0.1378 -0.0013,-0.073 -0.0097,-0.15021 -0.0083,-0.0786 -0.02479,-0.15159 -0.01516,-0.073 -0.04272,-0.12815 -0.02756,-0.0565 -0.068903,-0.0896 -0.039963,-0.0345 -0.096462,-0.0345 -0.056499,0 -0.096462,0.0345 -0.039965,0.0331 -0.067524,0.0896 -0.026194,0.0551 -0.04272,0.12815 -0.015161,0.073 -0.023416,0.15159 -0.00826,0.0772 -0.011033,0.15021 -0.00132,0.0717 -0.00132,0.1378 0,0.19017 0.00688,0.34313 0.00688,0.15159 0.031694,0.25908 0.024792,0.1061 0.073038,0.16398 0.048231,0.0565 0.1309132,0.0565 z m -2.1704167,0.32384 v -2.11667 l 0.5016076,-0.0165 q 0.1736329,0 0.3169497,0.0344 0.1433169,0.0331 0.2452926,0.10611 0.1033515,0.0717 0.1584748,0.18328 0.056499,0.11162 0.056499,0.26596 0,0.10336 -0.02204,0.18604 -0.02204,0.0827 -0.06201,0.14745 -0.039963,0.0648 -0.096464,0.11438 -0.055121,0.0496 -0.122645,0.0882 0,0.001 0.016536,0.0413 0.016537,0.04 0.04272,0.10474 0.027562,0.0648 0.060635,0.14745 0.034451,0.0827 0.070279,0.16812 0.084061,0.20119 0.1915478,0.45613 l -0.4065217,0.11024 -0.3775843,-0.96463 H 8.1042395 v 0.91089 z m 0.4120356,-1.24988 h 0.1405599 q 0.06201,0 0.1185122,-0.01 0.056499,-0.011 0.099219,-0.0413 0.044096,-0.0317 0.0689,-0.0882 0.026194,-0.0565 0.026194,-0.15021 0,-0.0744 -0.020664,-0.12402 -0.019288,-0.051 -0.055123,-0.0813 -0.034451,-0.0317 -0.082682,-0.0441 -0.046852,-0.0138 -0.1019757,-0.0138 H 8.1042448 Z m -0.7055591,0.51263 q 0,0.14745 -0.037206,0.28663 -0.03583,0.13781 -0.1102439,0.24392 -0.074414,0.10611 -0.187415,0.17087 -0.1129982,0.0634 -0.2659618,0.0634 -0.1322916,0 -0.2342674,-0.0469 -0.1005972,-0.0482 -0.1736328,-0.13092 -0.073036,-0.084 -0.1226449,-0.1943 -0.048234,-0.11162 -0.077171,-0.2384 -0.02894,-0.12816 -0.041341,-0.26458 -0.012409,-0.13781 -0.012409,-0.27148 0,-0.11851 0.015161,-0.24253 0.015161,-0.1254 0.048234,-0.24254 0.033073,-0.11851 0.085437,-0.22186 0.053745,-0.10473 0.1281589,-0.18191 0.074414,-0.0785 0.1722543,-0.12402 0.097843,-0.0455 0.2218664,-0.0455 0.1391814,0 0.2480469,0.0675 0.1102439,0.0661 0.184658,0.17501 0.075793,0.10749 0.1157552,0.24391 0.039963,0.13643 0.039963,0.27699 l -0.3996319,0.0207 q 0,-0.011 -0.00132,-0.0482 -0.00132,-0.0386 -0.00826,-0.0882 -0.00688,-0.051 -0.020664,-0.10611 -0.012409,-0.0565 -0.03583,-0.10335 -0.023416,-0.0469 -0.059256,-0.0772 -0.035827,-0.0303 -0.086815,-0.0303 -0.049609,0 -0.086818,0.0331 -0.03583,0.0317 -0.062013,0.0868 -0.026194,0.0537 -0.042717,0.12678 -0.016536,0.073 -0.026194,0.15434 -0.00966,0.0799 -0.013785,0.16399 -0.00275,0.0841 -0.00275,0.16261 0,0.0992 0.00275,0.19706 0.00413,0.0978 0.015161,0.18603 0.011033,0.0882 0.028937,0.16399 0.019288,0.0744 0.049609,0.12953 0.031694,0.0538 0.074414,0.0854 0.044098,0.0303 0.1033542,0.0303 0.064767,0 0.10473,-0.0427 0.041341,-0.0441 0.066146,-0.11024 0.024792,-0.0662 0.03583,-0.14332 0.011033,-0.0786 0.016536,-0.14745 l 0.351401,0.0331 z"
       style="font-size:10.6667px;line-height:1.25;font-family:'Francois One';-inkscape-font-specification:'Francois One, Normal';text-align:center;letter-spacing:0px;word-spacing:0px;text-anchor:middle;fill:#1a1a1a;stroke-width:0.264583"
       inkscape:label="label_crossfade" />
    <path
       id="path1161"
       d="m 21.544254,231.64938 v -2.11667 l 0.501608,-0.0165 q 0.173632,0 0.316949,0.0344 0.143317,0.0331 0.245293,0.10611 0.103351,0.0717 0.158475,0.18328 0.0565,0.11162 0.0565,0.26596 0,0.10336 -0.02204,0.18604 -0.02204,0.0827 -0.06201,0.14745 -0.03996,0.0648 -0.09646,0.11438 -0.05512,0.0496 -0.122647,0.0882 0,0.001 0.01654,0.0413 0.01654,0.04 0.04272,0.10474 0.02756,0.0648 0.06063,0.14745 0.03445,0.0827 0.07028,0.16812 0.08406,0.20119 0.191548,0.45613 l -0.406522,0.11024 -0.377584,-0.96463 h -0.161229 v 0.91089 z m 0.412036,-1.24988 h 0.14056 q 0.06201,0 0.118512,-0.01 0.0565,-0.011 0.09922,-0.0413 0.0441,-0.0317 0.0689,-0.0882 0.02619,-0.0565 0.02619,-0.1502 0,-0.0744 -0.02066,-0.12402 -0.01929,-0.051 -0.05512,-0.0813 -0.03445,-0.0317 -0.08268,-0.0441 -0.04685,-0.0138 -0.101973,-0.0138 h -0.192926 z m -1.672945,0.77997 -0.09233,0.45337 h -0.367938 l 0.446487,-2.09186 0.588423,-0.0248 0.457509,2.10013 -0.450619,0.0165 -0.07855,-0.45339 z m 0.428572,-0.339 -0.194305,-1.01286 -0.159853,1.01286 z m -2.089113,-1.3243 h 1.074872 l -0.03307,0.33073 h -0.628388 v 0.50437 h 0.445109 l -0.0013,0.35553 h -0.44373 v 0.59532 h 0.683483 l -0.03307,0.33072 h -1.063848 z m -0.927423,0 v 1.78596 h 0.716582 l -0.06615,0.33072 h -1.062472 v -2.08359 z m -0.705559,1.39596 q 0,0.14745 -0.03721,0.28663 -0.03583,0.13781 -0.110244,0.24392 -0.07441,0.10611 -0.187415,0.17088 -0.112998,0.0634 -0.265961,0.0634 -0.132292,0 -0.234268,-0.0469 -0.100597,-0.0482 -0.173633,-0.13092 -0.07304,-0.084 -0.122645,-0.1943 -0.04823,-0.11162 -0.07717,-0.23841 -0.02894,-0.12816 -0.04134,-0.26457 -0.01241,-0.13781 -0.01241,-0.27148 0,-0.11851 0.01516,-0.24253 0.01516,-0.1254 0.04823,-0.24254 0.03307,-0.11851 0.08544,-0.22186 0.05374,-0.10473 0.128157,-0.18191 0.07441,-0.0785 0.172257,-0.12402 0.09784,-0.0455 0.221863,-0.0455 0.139182,0 0.248047,0.0675 0.110244,0.0661 0.184658,0.17501 0.07579,0.10749 0.115755,0.24391 0.03997,0.13643 0.03997,0.27699 l -0.399634,0.0207 q 0,-0.011 -0.0013,-0.0482 -0.0013,-0.0386 -0.0083,-0.0882 -0.0069,-0.051 -0.02066,-0.10611 -0.01241,-0.0565 -0.03583,-0.10335 -0.02342,-0.0469 -0.05926,-0.0772 -0.03583,-0.0303 -0.08681,-0.0303 -0.04961,0 -0.08682,0.0331 -0.03583,0.0317 -0.06201,0.0868 -0.02619,0.0537 -0.04272,0.12678 -0.01654,0.073 -0.02619,0.15433 -0.0097,0.0799 -0.01378,0.164 -0.0028,0.0841 -0.0028,0.16261 0,0.0992 0.0028,0.19706 0.0041,0.0978 0.01516,0.18602 0.01103,0.0882 0.02894,0.164 0.01929,0.0744 0.04961,0.12952 0.0317,0.0537 0.07441,0.0854 0.0441,0.0303 0.103354,0.0303 0.06477,0 0.104733,-0.0427 0.04134,-0.0441 0.06615,-0.11024 0.02479,-0.0661 0.03583,-0.14331 0.01103,-0.0786 0.01654,-0.14745 l 0.351401,0.0331 z"
       style="font-size:10.6667px;line-height:1.25;font-family:'Francois One';-inkscape-font-specification:'Francois One, Normal';text-align:center;letter-spacing:0px;word-spacing:0px;text-anchor:middle;fill:#1a1a1a;stroke-width:0.264583"
       inkscape:label="label_clear" />
    <path
       id="path1764"
       d="m 9.7937272,229.84703 0.033075,-0.33072 h 1.2402368 l -0.03307,0.33072 H 10.63847 v 1.76941 l -0.413411,0.0331 v -1.80248 z m -1.424895,1.80248 v -2.11667 l 0.5016076,-0.0165 q 0.1736328,0 0.3169497,0.0344 0.1433169,0.0331 0.2452926,0.10611 0.1033515,0.0717 0.1584748,0.18328 0.056499,0.11162 0.056499,0.26596 0,0.10337 -0.02204,0.18604 -0.02204,0.0827 -0.06201,0.14745 -0.039963,0.0648 -0.096464,0.11438 -0.055121,0.0496 -0.122645,0.0882 0,0.001 0.016536,0.0413 0.016536,0.04 0.04272,0.10474 0.027562,0.0648 0.060635,0.14745 0.034451,0.0827 0.070279,0.16812 0.084061,0.20119 0.1915478,0.45613 l -0.4065218,0.11024 -0.3775842,-0.96463 H 8.7808784 v 0.91089 z m 0.4120356,-1.24987 h 0.1405599 q 0.06201,0 0.1185122,-0.01 0.056499,-0.011 0.099219,-0.0413 0.044096,-0.0317 0.0689,-0.0882 0.026194,-0.0565 0.026194,-0.15021 0,-0.0744 -0.020664,-0.12402 -0.019288,-0.051 -0.055123,-0.0813 -0.034449,-0.0317 -0.082682,-0.0441 -0.046852,-0.0138 -0.1019731,-0.0138 H 8.7808846 Z m -1.6729445,0.77996 -0.092329,0.45338 H 6.6476564 l 0.4464874,-2.09186 0.5884227,-0.0248 0.4575096,2.10013 -0.4506198,0.0165 -0.078547,-0.45338 z m 0.4285721,-0.339 -0.1943048,-1.01285 -0.1598533,1.01285 z m -2.130454,-0.99357 0.03307,-0.33072 h 1.240237 l -0.03307,0.33072 h -0.395497 v 1.76941 l -0.413414,0.0331 v -1.80248 z m -0.525034,0.21361 q -0.02479,-0.0524 -0.04685,-0.0992 -0.02066,-0.0469 -0.04961,-0.0827 -0.02756,-0.0358 -0.06752,-0.0565 -0.03996,-0.0207 -0.101973,-0.0207 -0.04823,0 -0.08544,0.0179 -0.03583,0.0179 -0.05926,0.0482 -0.02342,0.0303 -0.03583,0.0703 -0.01103,0.04 -0.01103,0.0841 0,0.0358 0.01103,0.0675 0.01103,0.0317 0.02894,0.0579 0.01929,0.0262 0.04272,0.0482 0.02341,0.0207 0.04685,0.0345 l 0.341755,0.19982 q 0.121269,0.0689 0.198437,0.14469 0.07717,0.0758 0.119891,0.15021 0.0441,0.0744 0.06063,0.14469 0.01654,0.0689 0.01929,0.1254 0,0.15296 -0.05236,0.27974 -0.05099,0.12541 -0.141939,0.21497 -0.09095,0.0896 -0.214976,0.13918 -0.122645,0.0482 -0.265962,0.0482 -0.132292,0 -0.242536,-0.04 -0.110244,-0.04 -0.197059,-0.11024 -0.08544,-0.0717 -0.148828,-0.16812 -0.06201,-0.0978 -0.100597,-0.21084 l 0.350022,-0.16399 q 0.03032,0.0496 0.06615,0.11024 0.03583,0.0593 0.07993,0.11163 0.0441,0.051 0.100597,0.0854 0.0565,0.0345 0.130916,0.0345 0.03721,0 0.07028,-0.0165 0.03445,-0.0179 0.05926,-0.0469 0.02619,-0.0303 0.04134,-0.0675 0.01654,-0.0386 0.01654,-0.0799 0,-0.0841 -0.04134,-0.14746 -0.03996,-0.0634 -0.09922,-0.10197 l -0.370694,-0.21911 q -0.07717,-0.0441 -0.141939,-0.1006 -0.06339,-0.0565 -0.11162,-0.12402 -0.04686,-0.0689 -0.07304,-0.14745 -0.02619,-0.0786 -0.02619,-0.16812 0,-0.14056 0.04961,-0.25632 0.05099,-0.11713 0.137802,-0.20119 0.0882,-0.0841 0.208085,-0.12954 0.121269,-0.0469 0.261829,-0.0469 0.214974,0 0.367937,0.11024 0.152964,0.10887 0.225999,0.31971 l -0.350022,0.15847 z m -2.184199,-0.54433 h 1.074875 l -0.03307,0.33072 h -0.628388 v 0.50437 h 0.445106 l -0.0013,0.35553 h -0.44373 v 0.59532 h 0.683509 l -0.03307,0.33072 h -1.06385 z m -1.593016,2.1332 v -2.11667 l 0.501607,-0.0165 q 0.173633,0 0.31695,0.0344 0.143317,0.0331 0.245292,0.10611 0.103352,0.0717 0.158475,0.18328 0.0565,0.11162 0.0565,0.26596 0,0.10337 -0.02204,0.18604 -0.02204,0.0827 -0.06201,0.14745 -0.03996,0.0648 -0.09647,0.11438 -0.05512,0.0496 -0.122645,0.0882 0,0.001 0.01654,0.0413 0.01654,0.04 0.04272,0.10474 0.02756,0.0648 0.06064,0.14745 0.03445,0.0827 0.07028,0.16812 0.08406,0.20119 0.191548,0.45613 l -0.406521,0.11024 -0.377585,-0.96463 h -0.161229 v 0.91089 z m 0.412035,-1.24987 h 0.14056 q 0.06201,0 0.118512,-0.01 0.0565,-0.011 0.09922,-0.0413 0.0441,-0.0317 0.0689,-0.0882 0.02619,-0.0565 0.02619,-0.15021 0,-0.0744 -0.02066,-0.12402 -0.01929,-0.051 -0.05512,-0.0813 -0.03445,-0.0317 -0.08268,-0.0441 -0.04685,-0.0138 -0.101973,-0.0138 h -0.192926 z"
       style="font-size:10.6667px;line-height:1.25;font-family:'Francois One';-inkscape-font-specification:'Francois One, Normal';text-align:center;letter-spacing:0px;word-spacing:0px;text-anchor:middle;fill:#1a1a1a;stroke-width:0.264583"
       inkscape:label="label_restart" />
    <path
       id="path2945"
       d="m 22.748459,219.79654 h 1.074872 l -0.03307,0.33073 H 23.16187 v 0.50437 h 0.445109 l -0.0013,0.35553 h -0.44373 v 0.59532 h 0.683508 l -0.03307,0.33072 H 22.74854 Z m -0.293524,1.39596 q 0,0.14745 -0.03721,0.28663 -0.03583,0.13781 -0.110242,0.24392 -0.07442,0.10611 -0.187415,0.17087 -0.112998,0.0634 -0.265961,0.0634 -0.132292,0 -0.234268,-0.0469 -0.100597,-0.0482 -0.173633,-0.13092 -0.07304,-0.084 -0.122647,-0.1943 -0.04823,-0.11162 -0.07717,-0.2384 -0.02894,-0.12816 -0.04134,-0.26458 -0.01241,-0.13781 -0.01241,-0.27148 0,-0.11851 0.01516,-0.24253 0.01516,-0.1254 0.04823,-0.24254 0.03308,-0.11851 0.08544,-0.22186 0.05374,-0.10473 0.128159,-0.18191 0.07441,-0.0785 0.172254,-0.12402 0.09784,-0.0455 0.221867,-0.0455 0.139181,0 0.248047,0.0675 0.110244,0.0661 0.184658,0.17501 0.07579,0.10749 0.115755,0.24391 0.03996,0.13643 0.03996,0.27699 l -0.399631,0.0207 q 0,-0.011 -0.0013,-0.0482 -0.0013,-0.0386 -0.0083,-0.0882 -0.0069,-0.051 -0.02066,-0.10611 -0.01241,-0.0565 -0.03583,-0.10335 -0.02342,-0.0469 -0.05926,-0.0772 -0.03583,-0.0303 -0.08682,-0.0303 -0.04961,0 -0.08682,0.0331 -0.03583,0.0317 -0.06201,0.0868 -0.02619,0.0537 -0.04272,0.12678 -0.01654,0.073 -0.02619,0.15434 -0.0097,0.0799 -0.01378,0.16399 -0.0028,0.0841 -0.0028,0.16261 0,0.0992 0.0028,0.19706 0.0041,0.0978 0.01516,0.18603 0.01103,0.0882 0.02894,0.16399 0.01929,0.0744 0.04961,0.12953 0.03169,0.0538 0.07441,0.0854 0.0441,0.0303 0.103354,0.0303 0.06477,0 0.10473,-0.0427 0.04134,-0.0441 0.06615,-0.11024 0.02479,-0.0661 0.03583,-0.14332 0.01103,-0.0786 0.01654,-0.14745 l 0.351401,0.0331 z m -2.524575,-0.58567 v 1.28985 l -0.369316,0.0165 v -2.10013 l 0.431329,-0.0165 0.545703,1.25953 v -1.22645 l 0.350026,-0.0331 v 2.10014 l -0.339,0.0331 z m -1.339455,1.35048 q -0.135049,0 -0.237025,-0.0455 -0.100597,-0.0455 -0.173633,-0.12678 -0.07304,-0.0813 -0.11989,-0.19155 -0.04685,-0.11162 -0.07441,-0.24116 -0.02756,-0.13091 -0.03858,-0.27561 -0.01103,-0.14469 -0.01103,-0.29352 0,-0.22324 0.03721,-0.41341 0.03858,-0.19017 0.118509,-0.32522 0.07993,-0.13505 0.202573,-0.20808 0.124024,-0.0744 0.296281,-0.0744 0.172254,0 0.296277,0.0744 0.125402,0.073 0.20533,0.20808 0.0813,0.13505 0.11851,0.32522 0.03859,0.19017 0.03859,0.41341 0,0.14883 -0.01103,0.29352 -0.01103,0.1447 -0.03996,0.27561 -0.02756,0.12954 -0.07579,0.24116 -0.04685,0.11024 -0.11989,0.19155 -0.07304,0.0813 -0.175012,0.12678 -0.101975,0.0455 -0.237021,0.0455 z m 0,-0.3514 q 0.08268,0 0.130913,-0.0565 0.04961,-0.0579 0.07441,-0.16398 0.02619,-0.10749 0.03307,-0.25908 0.0069,-0.15296 0.0069,-0.34313 0,-0.0661 -0.0028,-0.1378 -0.0013,-0.073 -0.0097,-0.15021 -0.0083,-0.0785 -0.02479,-0.15159 -0.01516,-0.073 -0.04272,-0.12815 -0.02756,-0.0565 -0.0689,-0.0896 -0.03996,-0.0345 -0.09646,-0.0345 -0.0565,0 -0.09646,0.0345 -0.03996,0.0331 -0.06752,0.0896 -0.02619,0.0551 -0.04272,0.12815 -0.01516,0.073 -0.02342,0.15159 -0.0083,0.0772 -0.01103,0.15021 -0.0013,0.0717 -0.0013,0.1378 0,0.19017 0.0069,0.34313 0.0069,0.15159 0.03169,0.25908 0.02479,0.1061 0.07304,0.16398 0.04823,0.0565 0.130916,0.0565 z"
       style="font-size:10.6667px;line-height:1.25;font-family:'Francois One';-inkscape-font-specification:'Francois One, Normal';text-align:center;letter-spacing:0px;word-spacing:0px;text-anchor:middle;fill:#1a1a1a;stroke-width:0.264583"
       inkscape:label="label_once" />
    <path
       id="path2832"
       d="m 6.2124029,219.79654 h 0.2645833 q 0.107487,0 0.2218664,0.001 0.1143767,0.001 0.2232422,0.0179 0.1102439,0.0152 0.2080842,0.0524 0.099219,0.0358 0.1722543,0.10749 0.074414,0.0703 0.1171337,0.1819 0.044098,0.11025 0.044098,0.27423 0,0.14883 -0.03583,0.25494 -0.035827,0.10473 -0.09784,0.17777 -0.06201,0.0716 -0.1446954,0.11437 -0.081304,0.0427 -0.1750113,0.0662 -0.093705,0.022 -0.1929262,0.0289 -0.09784,0.007 -0.1915477,0.007 v 0.8158 l -0.4134115,0.0331 z m 0.4864497,0.94947 q 0.071657,0 0.1350486,-0.0124 0.064767,-0.0138 0.1129983,-0.0482 0.048231,-0.0358 0.075793,-0.0978 0.028937,-0.062 0.028937,-0.15847 0,-0.0951 -0.024792,-0.15434 -0.023416,-0.0593 -0.070279,-0.0909 -0.046855,-0.0331 -0.1143767,-0.0441 -0.067524,-0.0124 -0.1543421,-0.0124 h -0.059256 v 0.61874 z m -1.4565921,1.2113 q -0.1350486,0 -0.2370243,-0.0455 -0.1005946,-0.0455 -0.1736328,-0.12678 -0.073036,-0.0813 -0.119888,-0.19155 -0.046855,-0.11162 -0.074414,-0.24116 -0.027562,-0.13091 -0.038587,-0.27561 -0.011033,-0.14469 -0.011033,-0.29352 0,-0.22324 0.037208,-0.41341 0.038584,-0.19017 0.1185122,-0.32522 0.079925,-0.13505 0.2025729,-0.20808 0.1240234,-0.0744 0.2962778,-0.0744 0.1722543,0 0.2962804,0.0744 0.1254019,0.073 0.2053272,0.20808 0.081304,0.13505 0.1185122,0.32522 0.038584,0.19017 0.038584,0.41341 0,0.14883 -0.011033,0.29352 -0.011033,0.1447 -0.039965,0.27561 -0.027559,0.12954 -0.075793,0.24116 -0.046852,0.11024 -0.119888,0.19155 -0.073036,0.0813 -0.1750113,0.12678 -0.1019757,0.0455 -0.2370243,0.0455 z m 0,-0.3514 q 0.082682,0 0.1309132,-0.0565 0.049609,-0.0579 0.074417,-0.16398 0.026194,-0.10749 0.033073,-0.25908 0.00688,-0.15296 0.00688,-0.34313 0,-0.0661 -0.00275,-0.1378 -0.00132,-0.073 -0.00966,-0.15021 -0.00826,-0.0785 -0.024791,-0.15159 -0.015161,-0.073 -0.04272,-0.12815 -0.027559,-0.0565 -0.0689,-0.0896 -0.039965,-0.0345 -0.096464,-0.0345 -0.056499,0 -0.096462,0.0345 -0.039965,0.0331 -0.067524,0.0896 -0.026194,0.0551 -0.04272,0.12815 -0.015161,0.073 -0.023416,0.15159 -0.00826,0.0772 -0.011033,0.15021 -0.00132,0.0717 -0.00132,0.1378 0,0.19017 0.00688,0.34313 0.00688,0.15159 0.031697,0.25908 0.024792,0.1061 0.073036,0.16398 0.048231,0.0565 0.1309132,0.0565 z m -1.5489184,0.3514 q -0.1350487,0 -0.2370244,-0.0455 -0.1005972,-0.0455 -0.1736328,-0.12678 -0.073036,-0.0813 -0.1198906,-0.19155 -0.046852,-0.11162 -0.074414,-0.24116 -0.027562,-0.13091 -0.038584,-0.27561 -0.011033,-0.14469 -0.011033,-0.29352 0,-0.22324 0.037208,-0.41341 0.038584,-0.19017 0.1185095,-0.32522 0.079928,-0.13505 0.2025729,-0.20808 0.1240235,-0.0744 0.2962804,-0.0744 0.1722544,0 0.2962778,0.0744 0.1254019,0.073 0.2053299,0.20808 0.081304,0.13505 0.1185095,0.32522 0.038587,0.19017 0.038587,0.41341 0,0.14883 -0.011033,0.29352 -0.011033,0.1447 -0.039963,0.27561 -0.027562,0.12954 -0.075793,0.24116 -0.046852,0.11024 -0.1198906,0.19155 -0.073036,0.0813 -0.1750113,0.12678 -0.1019757,0.0455 -0.2370217,0.0455 z m 0,-0.3514 q 0.082682,0 0.1309132,-0.0565 0.049609,-0.0579 0.074414,-0.16398 0.026194,-0.10749 0.033073,-0.25908 0.00688,-0.15296 0.00688,-0.34313 0,-0.0661 -0.00275,-0.1378 -0.00132,-0.073 -0.00966,-0.15021 -0.00825,-0.0785 -0.024791,-0.15159 -0.015161,-0.073 -0.04272,-0.12815 -0.027562,-0.0565 -0.068903,-0.0896 -0.039963,-0.0345 -0.096462,-0.0345 -0.056502,0 -0.096465,0.0345 -0.039963,0.0331 -0.067524,0.0896 -0.026194,0.0551 -0.04272,0.12815 -0.015161,0.073 -0.023416,0.15159 -0.00826,0.0772 -0.011033,0.15021 -0.00132,0.0717 -0.00132,0.1378 0,0.19017 0.00688,0.34313 0.00688,0.15159 0.031694,0.25908 0.024792,0.1061 0.073036,0.16398 0.048234,0.0565 0.1309159,0.0565 z m -1.4882866,-1.80937 v 1.78595 h 0.7165817 l -0.066146,0.33072 H 1.7930199 v -2.08359 z"
       style="font-size:10.6667px;line-height:1.25;font-family:'Francois One';-inkscape-font-specification:'Francois One, Normal';text-align:center;letter-spacing:0px;word-spacing:0px;text-anchor:middle;fill:#1a1a1a;stroke-width:0.264583"
       inkscape:label="label_loop" />
    <path
       id="path2716"
       d="m 24.330451,210.44931 h -0.396875 v 0.86403 l -0.413414,0.0331 v -2.10013 l 0.413414,-0.0331 v 0.85852 h 0.396875 v -0.82544 l 0.413414,-0.0331 v 2.10014 l -0.413414,0.0331 z m -1.103813,0.15985 q 0,0.14745 -0.03721,0.28663 -0.03583,0.13781 -0.110244,0.24392 -0.07441,0.10611 -0.187415,0.17087 -0.112999,0.0634 -0.265962,0.0634 -0.132292,0 -0.234267,-0.0469 -0.100598,-0.0482 -0.173633,-0.13092 -0.07304,-0.084 -0.122645,-0.1943 -0.04823,-0.11162 -0.07717,-0.2384 -0.02894,-0.12816 -0.04134,-0.26458 -0.01241,-0.13781 -0.01241,-0.27148 0,-0.11851 0.01516,-0.24253 0.01516,-0.1254 0.04823,-0.24254 0.03307,-0.11851 0.08544,-0.22186 0.05374,-0.10473 0.128157,-0.18191 0.07441,-0.0785 0.172257,-0.12402 0.09784,-0.0455 0.221863,-0.0455 0.139182,0 0.248047,0.0675 0.110244,0.0661 0.184658,0.17501 0.07579,0.10749 0.115755,0.24391 0.03997,0.13643 0.03997,0.27699 l -0.399635,0.0207 q 0,-0.011 -0.0013,-0.0482 -0.0013,-0.0386 -0.0083,-0.0882 -0.0069,-0.051 -0.02066,-0.10611 -0.01241,-0.0565 -0.03583,-0.10335 -0.02341,-0.0469 -0.05926,-0.0772 -0.03583,-0.0303 -0.08682,-0.0303 -0.04961,0 -0.08682,0.0331 -0.03583,0.0317 -0.06201,0.0868 -0.02619,0.0537 -0.04272,0.12678 -0.01654,0.073 -0.02619,0.15434 -0.0097,0.0799 -0.01378,0.16399 -0.0028,0.0841 -0.0028,0.16261 0,0.0992 0.0028,0.19706 0.0041,0.0978 0.01516,0.18603 0.01103,0.0882 0.02894,0.16399 0.01929,0.0744 0.04961,0.12953 0.0317,0.0537 0.07441,0.0854 0.0441,0.0303 0.103355,0.0303 0.06477,0 0.104732,-0.0427 0.04134,-0.0441 0.06615,-0.11024 0.02479,-0.0661 0.03583,-0.14332 0.01103,-0.0786 0.01654,-0.14745 l 0.351401,0.0331 z m -2.647219,-1.06523 0.03307,-0.33073 h 1.240239 l -0.03307,0.33073 h -0.395499 v 1.76941 l -0.413411,0.0331 v -1.80248 z m -1.004592,1.33257 -0.09233,0.45337 H 19.11456 l 0.446484,-2.09186 0.588426,-0.0248 0.457509,2.10013 -0.45062,0.0165 -0.07855,-0.45338 z m 0.42857,-0.339 -0.194302,-1.01286 -0.159853,1.01286 z m -1.65503,-1.3243 v 1.78595 h 0.716585 l -0.06615,0.33072 H 17.93633 v -2.08359 z"
       style="font-size:10.6667px;line-height:1.25;font-family:'Francois One';-inkscape-font-specification:'Francois One, Normal';text-align:center;letter-spacing:0px;word-spacing:0px;text-anchor:middle;fill:#1a1a1a;stroke-width:0.264583"
       inkscape:label="label_latch" />
    <path
       id="path2667"
       d="M 6.3667445,209.2132 H 7.441617 l -0.033073,0.33073 H 6.780156 v 0.50437 h 0.4451085 l -0.00132,0.35553 h -0.443733 v 0.59532 h 0.6835087 l -0.033073,0.33072 H 6.3668001 Z m -1.502066,0.33073 0.033073,-0.33073 h 1.240237 l -0.033073,0.33073 H 5.709419 v 1.76941 l -0.4134141,0.0331 v -1.80248 z m -1.0045938,1.33257 -0.092329,0.45337 H 3.3998182 l 0.446487,-2.09186 0.5884228,-0.0248 0.4575095,2.10013 -0.4506198,0.0165 -0.078547,-0.45338 z m 0.4285721,-0.339 -0.1943047,-1.01286 -0.1598533,1.01286 z m -1.4648603,-0.60634 q -0.0055,-0.04 -0.011033,-0.0868 -0.00413,-0.0482 -0.013785,-0.0965 -0.00825,-0.0496 -0.02204,-0.0951 -0.013785,-0.0455 -0.037208,-0.0799 -0.023416,-0.0358 -0.057878,-0.0565 -0.034451,-0.022 -0.082682,-0.022 -0.055121,0 -0.096462,0.0372 -0.041341,0.0358 -0.07166,0.0965 -0.030316,0.0606 -0.049609,0.14194 -0.019288,0.0799 -0.030316,0.16812 -0.011033,0.0868 -0.016536,0.17777 -0.00413,0.0896 -0.00413,0.1695 0,0.0758 0.00132,0.16123 0.00132,0.0854 0.00826,0.1695 0.00826,0.0841 0.023416,0.16123 0.016536,0.0772 0.046855,0.13643 0.030316,0.0579 0.077168,0.0937 0.046855,0.0345 0.1143793,0.0345 0.055121,0 0.096462,-0.0303 0.04272,-0.0317 0.07166,-0.0868 0.028938,-0.0551 0.042717,-0.13091 0.015161,-0.0758 0.015161,-0.16399 H 2.6183925 l 0.033073,-0.35829 h 0.5746433 v 1.0418 l -0.1584749,0.0165 q -0.00132,-0.006 -0.00688,-0.0262 -0.00413,-0.0207 -0.011033,-0.0482 -0.00688,-0.0289 -0.016536,-0.0634 -0.00825,-0.0344 -0.016536,-0.0703 -0.020664,-0.0827 -0.045477,-0.18466 -0.00966,0.12265 -0.059253,0.21911 -0.020664,0.0413 -0.053745,0.0799 -0.031694,0.0386 -0.078549,0.0703 -0.046852,0.0303 -0.1102413,0.0482 -0.063391,0.0193 -0.1460738,0.0193 -0.1116224,0 -0.2011945,-0.0427 -0.088194,-0.0413 -0.1557178,-0.11576 -0.066146,-0.0758 -0.1143768,-0.17914 -0.046855,-0.10473 -0.077171,-0.22738 -0.030319,-0.12402 -0.044098,-0.26183 -0.013785,-0.13918 -0.013785,-0.28387 0,-0.12265 0.015161,-0.25081 0.016536,-0.12815 0.049609,-0.24942 0.034451,-0.12265 0.088194,-0.23014 0.053745,-0.10748 0.1295373,-0.18879 0.077171,-0.0813 0.1777683,-0.12816 0.1005972,-0.0469 0.227375,-0.0469 0.1612317,0 0.2769869,0.062 0.1157553,0.0606 0.1901693,0.16261 0.074417,0.10198 0.110244,0.23565 0.03583,0.13229 0.03583,0.2756 z"
       style="font-size:10.6667px;line-height:1.25;font-family:'Francois One';-inkscape-font-specification:'Francois One, Normal';text-align:center;letter-spacing:0px;word-spacing:0px;text-anchor:middle;fill:#1a1a1a;stroke-width:0.264583"
       inkscape:label="label_gate" />
    <path
       id="path1152"
       d="m 15.844004,192.29109 h 0.432705 q 0.417547,0 0.624255,0.26459 0.206706,0.2632 0.206706,0.80202 0,0.13367 -0.01791,0.26458 -0.01791,0.12954 -0.0565,0.24667 -0.03721,0.11576 -0.09647,0.21498 -0.05926,0.0992 -0.143317,0.17087 -0.08406,0.0717 -0.194302,0.113 -0.110244,0.04 -0.249425,0.04 h -0.505743 z m 0.412036,0.33073 v 1.45522 h 0.05926 q 0.07855,0 0.137803,-0.0262 0.05926,-0.0276 0.100597,-0.0744 0.04272,-0.0469 0.0689,-0.10887 0.02756,-0.0634 0.04272,-0.13367 0.01654,-0.0717 0.02204,-0.14745 0.0069,-0.0758 0.0069,-0.1502 0,-0.0675 0,-0.15435 0,-0.0868 -0.0083,-0.17639 -0.0083,-0.091 -0.03032,-0.17776 -0.02204,-0.0868 -0.06477,-0.15434 -0.04272,-0.0689 -0.113001,-0.11025 -0.0689,-0.0413 -0.173632,-0.0413 z m -2.005053,1.80248 v -2.11667 l 0.501608,-0.0165 q 0.173633,0 0.31695,0.0344 0.143317,0.0331 0.24529,0.10611 0.103354,0.0717 0.158475,0.18328 0.0565,0.11162 0.0565,0.26596 0,0.10336 -0.02204,0.18604 -0.02204,0.0827 -0.06201,0.14745 -0.03997,0.0648 -0.09646,0.11438 -0.05512,0.0496 -0.122645,0.0882 0,10e-4 0.01654,0.0413 0.01654,0.04 0.04272,0.10474 0.02756,0.0648 0.06063,0.14745 0.03445,0.0827 0.07028,0.16812 0.08406,0.20119 0.191548,0.45613 l -0.406522,0.11024 -0.377584,-0.96463 h -0.161236 v 0.91089 z m 0.412033,-1.24988 h 0.140563 q 0.06201,0 0.118509,-0.01 0.0565,-0.011 0.09922,-0.0413 0.0441,-0.0317 0.0689,-0.0882 0.02619,-0.0565 0.02619,-0.15021 0,-0.0744 -0.02066,-0.12402 -0.01929,-0.051 -0.05512,-0.0813 -0.03445,-0.0317 -0.08268,-0.0441 -0.04685,-0.0138 -0.101975,-0.0138 H 14.66304 Z m -1.383554,1.27744 q -0.135048,0 -0.237024,-0.0455 -0.100594,-0.0455 -0.173633,-0.12678 -0.07304,-0.0813 -0.119888,-0.19155 -0.04685,-0.11162 -0.07441,-0.24116 -0.02756,-0.13091 -0.03859,-0.27561 -0.01103,-0.14469 -0.01103,-0.29352 0,-0.22324 0.03721,-0.41341 0.03858,-0.19017 0.118513,-0.32522 0.07992,-0.13505 0.202572,-0.20808 0.124024,-0.0744 0.296278,-0.0744 0.172255,0 0.296281,0.0744 0.125402,0.073 0.205327,0.20808 0.0813,0.13505 0.118512,0.32522 0.03858,0.19017 0.03858,0.41341 0,0.14883 -0.01103,0.29352 -0.01103,0.1447 -0.03997,0.27561 -0.02756,0.12954 -0.07579,0.24116 -0.04685,0.11024 -0.119888,0.19155 -0.07304,0.0813 -0.175011,0.12678 -0.101976,0.0455 -0.237025,0.0455 z m 0,-0.3514 q 0.08268,0 0.130914,-0.0565 0.04961,-0.0579 0.07442,-0.16398 0.02619,-0.10749 0.03307,-0.25908 0.0069,-0.15296 0.0069,-0.34313 0,-0.0661 -0.0027,-0.1378 -0.0013,-0.073 -0.0097,-0.15021 -0.0083,-0.0785 -0.02479,-0.15159 -0.01516,-0.073 -0.04272,-0.12815 -0.02756,-0.0565 -0.0689,-0.0896 -0.03996,-0.0345 -0.09646,-0.0345 -0.0565,0 -0.09646,0.0345 -0.03996,0.0331 -0.06752,0.0896 -0.02619,0.0551 -0.04272,0.12815 -0.01516,0.073 -0.02342,0.15159 -0.0083,0.0772 -0.01103,0.15021 -0.0013,0.0717 -0.0013,0.1378 0,0.19017 0.0069,0.34313 0.0069,0.15159 0.0317,0.25908 0.02479,0.1061 0.07304,0.16398 0.04823,0.0565 0.130913,0.0565 z m -0.870923,-0.41341 q 0,0.14745 -0.03721,0.28663 -0.03583,0.13781 -0.110244,0.24392 -0.07441,0.10611 -0.187412,0.17087 -0.113001,0.0634 -0.265965,0.0634 -0.132292,0 -0.234267,-0.0469 -0.100598,-0.0482 -0.173633,-0.13092 -0.07304,-0.084 -0.122645,-0.1943 -0.04823,-0.11162 -0.07717,-0.2384 -0.02894,-0.12816 -0.04134,-0.26458 -0.01241,-0.13781 -0.01241,-0.27148 0,-0.11851 0.01516,-0.24253 0.01516,-0.1254 0.04823,-0.24254 0.03307,-0.11851 0.08544,-0.22186 0.05374,-0.10473 0.128156,-0.18191 0.07442,-0.0785 0.172257,-0.12402 0.09784,-0.0455 0.221864,-0.0455 0.139184,0 0.248049,0.0675 0.110242,0.0661 0.184656,0.17501 0.07579,0.10749 0.115758,0.24391 0.03996,0.13643 0.03996,0.27699 l -0.399632,0.0207 q 0,-0.011 -0.0013,-0.0482 -0.0013,-0.0386 -0.0083,-0.0882 -0.0069,-0.051 -0.02066,-0.10611 -0.01241,-0.0565 -0.03583,-0.10335 -0.02344,-0.0469 -0.05926,-0.0772 -0.03583,-0.0303 -0.08682,-0.0303 -0.04961,0 -0.08682,0.0331 -0.03583,0.0317 -0.06201,0.0868 -0.02619,0.0537 -0.04272,0.12678 -0.01654,0.073 -0.02619,0.15434 -0.0097,0.0799 -0.01378,0.16399 -0.0028,0.0841 -0.0028,0.16261 0,0.0992 0.0028,0.19706 0.0041,0.0978 0.01516,0.18603 0.01103,0.0882 0.02894,0.16399 0.01929,0.0744 0.04961,0.12953 0.03169,0.0537 0.07441,0.0854 0.0441,0.0303 0.103351,0.0303 0.06477,0 0.104733,-0.0427 0.04134,-0.0441 0.06615,-0.11024 0.02479,-0.0661 0.03583,-0.14332 0.01103,-0.0786 0.01654,-0.14745 l 0.351398,0.0331 z m -2.5231938,-1.39596 h 1.0748728 l -0.03307,0.33073 h -0.628388 v 0.50437 h 0.445108 l -0.0013,0.35553 h -0.443733 v 0.59532 h 0.683509 l -0.03307,0.33072 H 9.8854048 Z M 8.29233,194.4243 v -2.11667 l 0.5016077,-0.0165 q 0.1736328,0 0.3169496,0.0344 0.1433169,0.0331 0.2452926,0.10611 0.1033542,0.0717 0.1584748,0.18328 0.056499,0.11162 0.056499,0.26596 0,0.10336 -0.02204,0.18604 -0.02204,0.0827 -0.062013,0.14745 -0.039963,0.0648 -0.096462,0.11438 -0.055123,0.0496 -0.1226476,0.0882 0,10e-4 0.016536,0.0413 0.016536,0.04 0.04272,0.10474 0.027562,0.0648 0.060635,0.14745 0.034451,0.0827 0.070281,0.16812 0.084061,0.20119 0.1915478,0.45613 L 9.2431865,194.44493 8.865605,193.4803 H 8.7043736 v 0.91089 z m 0.4120356,-1.24988 h 0.1405599 q 0.062013,0 0.1185122,-0.01 0.056499,-0.011 0.099219,-0.0413 0.044098,-0.0317 0.068903,-0.0882 0.026194,-0.0565 0.026194,-0.15021 0,-0.0744 -0.020664,-0.12402 -0.019288,-0.051 -0.055121,-0.0813 -0.034451,-0.0317 -0.082682,-0.0441 -0.046855,-0.0138 -0.1019757,-0.0138 H 8.7043842 Z"
       style="font-size:10.6667px;line-height:1.25;font-family:'Francois One';-inkscape-font-specification:'Francois One, Normal';text-align:center;letter-spacing:0px;word-spacing:0px;text-anchor:middle;fill:#1a1a1a;stroke-width:0.264583"
       inkscape:label="label_record" />
    <path
       style="font-style:normal;font-variant:normal;font-weight:normal;font-stretch:normal;font-size:10.6667px;line-height:1.25;font-family:'Francois One';-inkscape-font-specification:'Francois One, Normal';font-variant-ligatures:normal;font-variant-caps:normal;font-variant-numeric:normal;font-feature-settings:normal;text-align:center;letter-spacing:0px;word-spacing:0px;writing-mode:lr-tb;text-anchor:middle;fill:#1a1a1a;fill-opacity:1;stroke:none;stroke-width:0.273479"
       inkscape:connector-curvature="0"
       id="path282"
       d="m 10.94989,177.61367 -0.505297,0.0171 0.515445,2.17074 h 0.46844 l 0.527197,-2.18784 -0.411821,0.0171 -0.303393,1.49239 z m 2.230568,0 -0.427311,0.0342 v 2.17075 l 0.427311,-0.0342 z m 0.849284,0 -0.446007,0.0171 v 2.17074 l 0.38191,-0.0171 v -1.33321 l 0.639366,1.36739 0.350396,-0.0342 v -2.17075 l -0.361613,0.0342 v 1.26752 z m -2.028665,1.77762 v 0.42731 l 0.41022,-0.0342 v -0.39313 z"
       inkscape:label="label_voltage_in" />
    <path
       id="path6360"
       style="font-size:3.88056px;line-height:1.25;font-family:Sniglet;-inkscape-font-specification:Sniglet;fill:#ff0000;stroke-width:0.288997"
       d="m 15.203443,170.44989 q 0.237364,0.009 0.411147,0.0339 0.178022,0.0255 0.305181,0.0678 0.131397,0.0381 0.216169,0.0848 0.08477,0.0466 0.135637,0.0974 0.122919,0.11445 0.118681,0.25432 0,0.12715 -0.04663,0.22041 -0.04663,0.089 -0.122921,0.15259 -0.07629,0.0636 -0.178021,0.10168 -0.101724,0.0381 -0.207693,0.0593 -0.250078,0.0466 -0.567976,0.0297 0.241602,0.0424 0.364522,0.11868 0.12292,0.0721 0.169545,0.14411 0.0551,0.0848 0.04663,0.1865 0,0.13565 -0.07206,0.22041 -0.07206,0.0805 -0.156829,0.1314 -0.101723,0.0593 -0.228887,0.089 0.199216,-0.005 0.347568,0.0169 0.148352,0.0212 0.254317,0.0593 0.110205,0.0381 0.182261,0.089 0.07206,0.0466 0.118682,0.0975 0.105961,0.11868 0.105961,0.27551 -0.0085,0.1017 -0.05934,0.17803 -0.05087,0.0721 -0.131397,0.12715 -0.0763,0.0551 -0.178022,0.0933 -0.101724,0.0339 -0.203454,0.0593 -0.241601,0.0552 -0.551022,0.0593 -0.233124,0.009 -0.411146,-0.0169 -0.178023,-0.0255 -0.313659,-0.0678 -0.135636,-0.0424 -0.233124,-0.0974 -0.09748,-0.0552 -0.161069,-0.11444 -0.15259,-0.13988 -0.190737,-0.31791 -0.0551,-0.27974 -0.06358,-0.58492 -0.0043,-0.30941 0.01272,-0.56797 0.01695,-0.30095 0.05934,-0.59342 0.02543,-0.1441 0.08901,-0.25007 0.06782,-0.1102 0.15683,-0.1865 0.09325,-0.0764 0.199215,-0.12292 0.110205,-0.0509 0.220408,-0.0763 0.254319,-0.0636 0.563738,-0.0509 z m -3.068435,2.15323 q -0.02542,-0.17379 -0.0339,-0.37723 -0.0043,-0.2077 0,-0.38572 0.0043,-0.20769 0.01696,-0.41963 0.02119,-0.26279 0.105961,-0.47048 0.03816,-0.089 0.09325,-0.17378 0.0551,-0.0848 0.131396,-0.14836 0.08053,-0.0678 0.1865,-0.1102 0.105961,-0.0424 0.24584,-0.0424 0.169546,0.0127 0.30942,0.10169 0.05934,0.0381 0.118682,0.0975 0.06358,0.0593 0.114443,0.14835 0.0551,0.089 0.09325,0.20769 0.04239,0.11869 0.06358,0.27128 0.03392,0.2967 0.03815,0.56373 0.0043,0.2628 -0.0043,0.46625 -0.01272,0.23313 -0.03392,0.43658 -0.02966,0.2077 -0.110204,0.36876 -0.03814,0.0678 -0.08901,0.13565 -0.05087,0.0636 -0.122921,0.11867 -0.07206,0.0509 -0.165306,0.0805 -0.09325,0.0297 -0.211932,0.0297 -0.131397,0 -0.233123,-0.0381 -0.101723,-0.0424 -0.182261,-0.10595 -0.0763,-0.0636 -0.131398,-0.14412 -0.05087,-0.0805 -0.08901,-0.16531 -0.08477,-0.19921 -0.110204,-0.44505 z m -2.2732933,-0.89859 q -0.2416026,0.0169 -0.4323406,-0.0339 -0.080534,-0.0212 -0.1568292,-0.0593 -0.076295,-0.0424 -0.1398747,-0.10168 -0.059341,-0.0636 -0.097488,-0.1526 -0.03391,-0.089 -0.03391,-0.21192 0,-0.21193 0.084772,-0.33486 0.089011,-0.12716 0.1949768,-0.19073 0.1229203,-0.0763 0.2797492,-0.10169 0.3390908,-0.0721 0.6612258,-0.0805 0.322136,-0.0127 0.580692,0.005 0.296704,0.0169 0.572214,0.0636 0.194977,0.0424 0.292465,0.13141 0.101724,0.089 0.148352,0.18225 0.05087,0.11021 0.05087,0.23313 -0.0043,0.13563 -0.04239,0.23312 -0.0339,0.0975 -0.09325,0.16955 -0.0551,0.0678 -0.127159,0.1102 -0.07206,0.0424 -0.144113,0.0678 -0.169545,0.0551 -0.385715,0.0381 0.0551,0.32215 0.05934,0.57223 0.0085,0.24583 -0.0043,0.41962 -0.01696,0.20345 -0.0551,0.34756 -0.04239,0.20346 -0.139875,0.30094 -0.09325,0.0975 -0.190739,0.14412 -0.114443,0.0509 -0.245839,0.0509 -0.148352,0.005 -0.275511,-0.0424 -0.110204,-0.0424 -0.211931,-0.14411 -0.1017232,-0.10169 -0.1483525,-0.30942 -0.046627,-0.21617 -0.055105,-0.44506 -0.00425,-0.23312 0.00852,-0.42386 0.016955,-0.22464 0.046627,-0.43657 z"
       inkscape:label="TIE"
       sodipodi:insensitive="true" />
  </g>
  <g
     inkscape:groupmode="layer"
     id="layer3"
     inkscape:label="labels_as_text"
     style="display:none"
     sodipodi:insensitive="true">
    <flowRoot
       transform="matrix(0.26458333,0,0,0.26458333,67.31341,3.7127456)"
       style="font-style:normal;font-variant:normal;font-weight:normal;font-stretch:normal;font-size:10.6667px;line-height:1.25;font-family:'Francois One';-inkscape-font-specification:'Francois One, Normal';font-variant-ligatures:normal;font-variant-caps:normal;font-variant-numeric:normal;font-feature-settings:normal;text-align:center;letter-spacing:0px;word-spacing:0px;writing-mode:lr-tb;text-anchor:middle;display:inline;fill:#1a1a1a;fill-opacity:1;stroke:none"
       id="flowRoot1479"
       xml:space="preserve"><flowRegion
         style="font-style:normal;font-variant:normal;font-weight:normal;font-stretch:normal;font-size:10.6667px;font-family:'Francois One';-inkscape-font-specification:'Francois One, Normal';font-variant-ligatures:normal;font-variant-caps:normal;font-variant-numeric:normal;font-feature-settings:normal;text-align:center;writing-mode:lr-tb;text-anchor:middle;fill:#1a1a1a;fill-opacity:1"
         id="flowRegion1475"><rect
           style="font-style:normal;font-variant:normal;font-weight:normal;font-stretch:normal;font-size:10.66666698px;font-family:'Francois One';-inkscape-font-specification:'Francois One, Normal';font-variant-ligatures:normal;font-variant-caps:normal;font-variant-numeric:normal;font-feature-settings:normal;text-align:center;writing-mode:lr-tb;text-anchor:middle;fill:#1a1a1a;fill-opacity:1"
           y="122.38205"
           x="-266.81491"
           height="21.499548"
           width="62.844833"
           id="rect1473" /></flowRegion><flowPara
         id="flowPara1477">RESET</flowPara></flowRoot>
    <flowRoot
       xml:space="preserve"
       id="flowRoot1554"
       style="font-style:normal;font-variant:normal;font-weight:normal;font-stretch:normal;font-size:10.6667px;line-height:1.25;font-family:'Francois One';-inkscape-font-specification:'Francois One, Normal';font-variant-ligatures:normal;font-variant-caps:normal;font-variant-numeric:normal;font-feature-settings:normal;text-align:center;letter-spacing:0px;word-spacing:0px;writing-mode:lr-tb;text-anchor:middle;display:inline;fill:#1a1a1a;fill-opacity:1;stroke:none"
       transform="matrix(0.26458333,0,0,0.26458333,67.320989,-1.5789211)"><flowRegion
         id="flowRegion1550"
         style="font-style:normal;font-variant:normal;font-weight:normal;font-stretch:normal;font-size:10.6667px;font-family:'Francois One';-inkscape-font-specification:'Francois One, Normal';font-variant-ligatures:normal;font-variant-caps:normal;font-variant-numeric:normal;font-feature-settings:normal;text-align:center;writing-mode:lr-tb;text-anchor:middle;fill:#1a1a1a;fill-opacity:1"><rect
           id="rect1548"
           width="62.844833"
           height="21.499548"
           x="-266.81491"
           y="122.38205"
           style="font-style:normal;font-variant:normal;font-weight:normal;font-stretch:normal;font-size:10.66666698px;font-family:'Francois One';-inkscape-font-specification:'Francois One, Normal';font-variant-ligatures:normal;font-variant-caps:normal;font-variant-numeric:normal;font-feature-settings:normal;text-align:center;writing-mode:lr-tb;text-anchor:middle;fill:#1a1a1a;fill-opacity:1" /></flowRegion><flowPara
         id="flowPara1552">V.IN</flowPara></flowRoot>
    <flowRoot
       xml:space="preserve"
       id="flowRoot1562"
       style="font-style:normal;font-variant:normal;font-weight:normal;font-stretch:normal;font-size:10.6667px;line-height:1.25;font-family:'Francois One';-inkscape-font-specification:'Francois One, Normal';font-variant-ligatures:normal;font-variant-caps:normal;font-variant-numeric:normal;font-feature-settings:normal;text-align:center;letter-spacing:0px;word-spacing:0px;writing-mode:lr-tb;text-anchor:middle;display:inline;fill:#1a1a1a;fill-opacity:1;stroke:none"
       transform="matrix(0.26458333,0,0,0.26458333,67.241063,9.0044123)"><flowRegion
         id="flowRegion1558"
         style="font-style:normal;font-variant:normal;font-weight:normal;font-stretch:normal;font-size:10.6667px;font-family:'Francois One';-inkscape-font-specification:'Francois One, Normal';font-variant-ligatures:normal;font-variant-caps:normal;font-variant-numeric:normal;font-feature-settings:normal;text-align:center;writing-mode:lr-tb;text-anchor:middle;fill:#1a1a1a;fill-opacity:1"><rect
           id="rect1556"
           width="62.844833"
           height="21.499548"
           x="-266.81491"
           y="122.38205"
           style="font-style:normal;font-variant:normal;font-weight:normal;font-stretch:normal;font-size:10.66666698px;font-family:'Francois One';-inkscape-font-specification:'Francois One, Normal';font-variant-ligatures:normal;font-variant-caps:normal;font-variant-numeric:normal;font-feature-settings:normal;text-align:center;writing-mode:lr-tb;text-anchor:middle;fill:#1a1a1a;fill-opacity:1" /></flowRegion><flowPara
         id="flowPara1560">V.OUT</flowPara></flowRoot>
    <flowRoot
       transform="matrix(0.26458333,0,0,0.26458333,67.31341,-6.8705873)"
       style="font-style:normal;font-variant:normal;font-weight:normal;font-stretch:normal;font-size:10.6667px;line-height:1.25;font-family:'Francois One';-inkscape-font-specification:'Francois One, Normal';font-variant-ligatures:normal;font-variant-caps:normal;font-variant-numeric:normal;font-feature-settings:normal;text-align:center;letter-spacing:0px;word-spacing:0px;writing-mode:lr-tb;text-anchor:middle;display:inline;fill:#1a1a1a;fill-opacity:1;stroke:none"
       id="flowRoot16023"
       xml:space="preserve"><flowRegion
         style="font-style:normal;font-variant:normal;font-weight:normal;font-stretch:normal;font-size:10.6667px;font-family:'Francois One';-inkscape-font-specification:'Francois One, Normal';font-variant-ligatures:normal;font-variant-caps:normal;font-variant-numeric:normal;font-feature-settings:normal;text-align:center;writing-mode:lr-tb;text-anchor:middle;fill:#1a1a1a;fill-opacity:1"
         id="flowRegion16019"><rect
           style="font-style:normal;font-variant:normal;font-weight:normal;font-stretch:normal;font-size:10.66666698px;font-family:'Francois One';-inkscape-font-specification:'Francois One, Normal';font-variant-ligatures:normal;font-variant-caps:normal;font-variant-numeric:normal;font-feature-settings:normal;text-align:center;writing-mode:lr-tb;text-anchor:middle;fill:#1a1a1a;fill-opacity:1"
           y="122.38205"
           x="-266.81491"
           height="21.499548"
           width="62.844833"
           id="rect16017" /></flowRegion><flowPara
         id="flowPara16021">RECORD</flowPara></flowRoot>
    <flowRoot
       transform="matrix(0.26458333,0,0,0.26458333,67.31341,14.296079)"
       style="font-style:normal;font-variant:normal;font-weight:normal;font-stretch:normal;font-size:10.6667px;line-height:1.25;font-family:'Francois One';-inkscape-font-specification:'Francois One, Normal';font-variant-ligatures:normal;font-variant-caps:normal;font-variant-numeric:normal;font-feature-settings:normal;text-align:center;letter-spacing:0px;word-spacing:0px;writing-mode:lr-tb;text-anchor:middle;display:inline;fill:#1a1a1a;fill-opacity:1;stroke:none"
       id="flowRoot280"
       xml:space="preserve"><flowRegion
         style="font-style:normal;font-variant:normal;font-weight:normal;font-stretch:normal;font-size:10.6667px;font-family:'Francois One';-inkscape-font-specification:'Francois One, Normal';font-variant-ligatures:normal;font-variant-caps:normal;font-variant-numeric:normal;font-feature-settings:normal;text-align:center;writing-mode:lr-tb;text-anchor:middle;fill:#1a1a1a;fill-opacity:1"
         id="flowRegion276"><rect
           style="font-style:normal;font-variant:normal;font-weight:normal;font-stretch:normal;font-size:10.66666698px;font-family:'Francois One';-inkscape-font-specification:'Francois One, Normal';font-variant-ligatures:normal;font-variant-caps:normal;font-variant-numeric:normal;font-feature-settings:normal;text-align:center;writing-mode:lr-tb;text-anchor:middle;fill:#1a1a1a;fill-opacity:1"
           y="122.38205"
           x="-266.81491"
           height="21.499548"
           width="62.844833"
           id="rect274" /></flowRegion><flowPara
         id="flowPara278">CLEAR</flowPara></flowRoot>
  </g>
  <g
     inkscape:groupmode="layer"
     id="layer2"
     inkscape:label="components"
     style="display:none"
     sodipodi:insensitive="true">
    <circle
       style="display:inline;fill:#0000ff;fill-opacity:1;stroke:none;stroke-width:0.131116"
       id="circle308"
       cx="12.700001"
       cy="100.49899"
       r="4.178"
       inkscape:label="VOLTAGE" />
    <circle
       inkscape:label="CROSSFADE"
       r="4.178"
       cy="82.700829"
       cx="12.700001"
       id="circle597"
       style="display:inline;fill:#ff0000;stroke:none;stroke-width:0.131116" />
    <circle
       inkscape:label="CLEAR_RECORDING"
       r="4.178"
       cy="68.41333"
       cx="19.314583"
       id="circle1377"
       style="display:inline;fill:#00ff00;stroke:none;stroke-width:0.131116" />
    <circle
       inkscape:label="RESTART_PLAYBACK"
       r="4.178"
       cy="68.41333"
       cx="6.0854163"
       id="circle1830"
       style="display:inline;fill:#00ff00;stroke:none;stroke-width:0.131116" />
    <circle
       inkscape:label="LOOP_OR_ONCE"
       r="4.178"
       cy="52.354916"
       cx="12.700001"
       id="circle541"
       style="display:inline;fill:#ffff00;stroke:none;stroke-width:0.131116" />
    <circle
       inkscape:label="GATE_OR_LATCH"
       r="4.178"
       cy="41.77158"
       cx="12.700001"
       id="circle521"
       style="display:inline;fill:#ffff00;stroke:none;stroke-width:0.131116" />
    <circle
       inkscape:label="RECORD_GATE"
       r="1.27"
       cy="31.188244"
       cx="19.314583"
       id="circle1290"
       style="display:inline;fill:#ff00ff;stroke:none;stroke-width:0.0398557" />
    <circle
       inkscape:label="RECORD_GATE"
       r="4.178"
       cy="31.188244"
       cx="12.700001"
       id="circle1286"
       style="display:inline;fill:#00ff00;stroke:none;stroke-width:0.131116" />
    <circle
       style="display:inline;fill:#00ff00;stroke:none;stroke-width:0.131116"
       id="circle306"
       cx="12.700001"
       cy="16.554995"
       r="4.178"
       inkscape:label="VOLTAGE" />
  </g>
</svg>
